<svg width="331" height="331" viewBox="0 0 331 331" fill="none" xmlns="http://www.w3.org/2000/svg">
<g clip-path="url(#clip0_1_2304)">
<path d="M330.673 252.761H0.514648V252.926H330.673V252.761Z" fill="#EBEBEB"/>
<path d="M52.3233 259.047H35.155V259.212H52.3233V259.047Z" fill="#EBEBEB"/>
<path d="M132.862 257.258H97.1387V257.423H132.862V257.258Z" fill="#EBEBEB"/>
<path d="M70.3628 265.182H52.9833V265.347H70.3628V265.182Z" fill="#EBEBEB"/>
<path d="M297.591 264.072H284.894V264.237H297.591V264.072Z" fill="#EBEBEB"/>
<path d="M279.01 264.072H259.009V264.237H279.01V264.072Z" fill="#EBEBEB"/>
<path d="M207.055 261.286H171.028V261.451H207.055V261.286Z" fill="#EBEBEB"/>
<path d="M157.01 223.311H29.509C28.5102 223.309 27.5529 222.911 26.8472 222.204C26.1416 221.497 25.7452 220.539 25.7452 219.54V40.3105C25.7539 39.3174 26.1541 38.3678 26.8588 37.6681C27.5636 36.9683 28.5159 36.5748 29.509 36.5731H157.01C158.01 36.5731 158.969 36.9704 159.676 37.6774C160.383 38.3845 160.78 39.3436 160.78 40.3435V219.54C160.78 220.54 160.383 221.499 159.676 222.207C158.969 222.914 158.01 223.311 157.01 223.311ZM29.509 36.7052C28.554 36.7069 27.6387 37.0876 26.964 37.7635C26.2893 38.4394 25.9103 39.3555 25.9103 40.3105V219.54C25.9103 220.496 26.2893 221.412 26.964 222.087C27.6387 222.763 28.554 223.144 29.509 223.146H157.01C157.965 223.144 158.881 222.764 159.557 222.088C160.233 221.412 160.613 220.496 160.615 219.54V40.3105C160.613 39.3549 160.233 38.4388 159.557 37.7631C158.881 37.0873 157.965 36.7069 157.01 36.7052H29.509Z" fill="#EBEBEB"/>
<path d="M299.843 223.311H172.336C171.337 223.309 170.379 222.911 169.672 222.205C168.965 221.498 168.567 220.54 168.566 219.54V40.3105C168.576 39.3168 168.978 38.3673 169.684 37.6677C170.389 36.9681 171.342 36.5748 172.336 36.5731H299.843C300.835 36.5766 301.786 36.9708 302.489 37.6704C303.193 38.37 303.592 39.3186 303.601 40.3105V219.54C303.601 220.538 303.205 221.495 302.501 222.202C301.797 222.909 300.841 223.307 299.843 223.311ZM172.336 36.7052C171.38 36.7069 170.464 37.0873 169.789 37.7631C169.113 38.4388 168.732 39.3549 168.731 40.3105V219.54C168.732 220.496 169.113 221.412 169.789 222.088C170.464 222.764 171.38 223.144 172.336 223.146H299.843C300.799 223.144 301.715 222.764 302.391 222.088C303.067 221.412 303.447 220.496 303.449 219.54V40.3105C303.447 39.3549 303.067 38.4388 302.391 37.7631C301.715 37.0873 300.799 36.7069 299.843 36.7052H172.336Z" fill="#EBEBEB"/>
<path d="M291.88 183.388H273.721V252.761H291.88V183.388Z" fill="#E6E6E6"/>
<path d="M288.433 252.761H291.88V242.949H284.814L288.433 252.761Z" fill="#F0F0F0"/>
<path d="M188.263 183.388H170.104V252.761H188.263V183.388Z" fill="#E6E6E6"/>
<path d="M291.88 183.388H185.252V246.739H291.88V183.388Z" fill="#F0F0F0"/>
<path d="M188.798 186.597V234.47H220.407V186.597H188.798Z" fill="#E6E6E6"/>
<path d="M207.729 189.344H201.476C200.132 189.345 198.802 189.071 197.567 188.541C196.331 188.011 195.217 187.235 194.292 186.26H214.913C213.988 187.235 212.873 188.011 211.638 188.541C210.403 189.071 209.073 189.345 207.729 189.344Z" fill="#F0F0F0"/>
<path d="M222.764 186.604V234.477H254.374V186.604H222.764Z" fill="#E6E6E6"/>
<path d="M242.012 189.344H235.759C234.416 189.344 233.087 189.07 231.854 188.54C230.62 188.01 229.506 187.234 228.582 186.26H249.197C248.271 187.235 247.157 188.011 245.922 188.541C244.687 189.071 243.356 189.345 242.012 189.344Z" fill="#F0F0F0"/>
<path d="M256.724 186.604V234.477H288.334V186.604H256.724Z" fill="#E6E6E6"/>
<path d="M275.979 189.344H269.726C268.382 189.345 267.052 189.071 265.817 188.541C264.582 188.011 263.467 187.235 262.542 186.26H283.13C282.209 187.231 281.1 188.005 279.871 188.535C278.641 189.065 277.318 189.34 275.979 189.344Z" fill="#F0F0F0"/>
<path d="M188.698 252.761H185.252V242.949H192.317L188.698 252.761Z" fill="#F0F0F0"/>
<path d="M145.626 49.1125H45.5878V142.812H145.626V49.1125Z" fill="#E6E6E6"/>
<path d="M149.218 49.1125H47.2654V142.812H149.218V49.1125Z" fill="#F0F0F0"/>
<path d="M145.626 142.812H45.5878V149.487H145.626V142.812Z" fill="#E6E6E6"/>
<path d="M155.201 142.812H53.2477V149.487H155.201V142.812Z" fill="#F0F0F0"/>
<path d="M144.193 137.78V54.1442L52.2966 54.1442V137.78H144.193Z" fill="#F9F9F9"/>
<path d="M61.9177 137.78L91.4405 54.1442H105.373L75.8504 137.78H61.9177Z" fill="white"/>
<path d="M54.6209 109.406C54.7172 109.406 54.8095 109.368 54.8777 109.3C54.9458 109.232 54.984 109.139 54.984 109.043V57.4127C54.9823 57.3176 54.9433 57.2269 54.8753 57.1602C54.8074 57.0935 54.716 57.0561 54.6209 57.0562C54.5263 57.0562 54.4356 57.0937 54.3687 57.1606C54.3018 57.2275 54.2643 57.3182 54.2643 57.4127V109.043C54.2643 109.138 54.3016 109.23 54.3683 109.297C54.435 109.365 54.5257 109.404 54.6209 109.406Z" fill="#F0F0F0"/>
<path d="M78.848 137.78L108.371 54.1442H113.799L84.2824 137.78H78.848Z" fill="white"/>
<path d="M144.186 137.78V54.1442H143.546V137.78H144.186Z" fill="#E6E6E6"/>
<path opacity="0.5" d="M150.407 62.8141H50.3687L49.9065 56.0986H149.945L150.407 62.8141Z" fill="#E6E6E6"/>
<path opacity="0.5" d="M150.407 67.7269H50.3687L49.9065 61.0115H149.945L150.407 67.7269Z" fill="#E6E6E6"/>
<path opacity="0.5" d="M150.407 73.6236H50.3687L49.9065 66.9082H149.945L150.407 73.6236Z" fill="#E6E6E6"/>
<path opacity="0.5" d="M150.407 80.1871H50.3687L49.9065 73.4717H149.945L150.407 80.1871Z" fill="#E6E6E6"/>
<path opacity="0.5" d="M150.407 88.0515H50.3687L49.9065 81.3361H149.945L150.407 88.0515Z" fill="#E6E6E6"/>
<path opacity="0.5" d="M150.407 96.8931H50.3687L49.9065 90.1776H149.945L150.407 96.8931Z" fill="#E6E6E6"/>
<path d="M151.483 190.559H121.874V252.761H151.483V190.559Z" fill="#E6E6E6"/>
<path d="M148.505 252.761H151.483V244.289H145.382L148.505 252.761Z" fill="#F0F0F0"/>
<path d="M78.65 190.559H49.0414V252.761H78.65V190.559Z" fill="#E6E6E6"/>
<path d="M151.477 190.559H76.0486V247.564H151.477V190.559Z" fill="#F0F0F0"/>
<path d="M149.172 193.082H78.3594V208.718H149.172V193.082Z" fill="#E6E6E6"/>
<path d="M117.107 197.941H110.418C107.513 197.941 104.739 196.013 102.739 192.606H124.793C122.792 196.013 120.032 197.941 117.107 197.941Z" fill="#F0F0F0"/>
<path d="M79.0266 252.761H76.0486V244.289H82.1499L79.0266 252.761Z" fill="#F0F0F0"/>
<path d="M149.172 211.24H78.3594V226.877H149.172V211.24Z" fill="#E6E6E6"/>
<path d="M117.107 216.1H110.418C107.513 216.1 104.739 214.172 102.739 210.765H124.793C122.792 214.199 120.032 216.1 117.107 216.1Z" fill="#F0F0F0"/>
<path d="M149.172 229.399H78.3594V245.035H149.172V229.399Z" fill="#E6E6E6"/>
<path d="M117.107 234.259H110.418C107.513 234.259 104.739 232.331 102.739 228.924H124.793C122.792 232.331 120.032 234.259 117.107 234.259Z" fill="#F0F0F0"/>
<path d="M271.027 61.9755H213.54V138.863H271.027V61.9755Z" fill="#E6E6E6"/>
<path d="M274.764 61.9755H214.345V138.863H274.764V61.9755Z" fill="#F0F0F0"/>
<path d="M266.398 130.497V70.3351H222.705V130.497H266.398Z" fill="white"/>
<path d="M266.398 130.497V70.3351H265.744V130.497H266.398Z" fill="#E6E6E6"/>
<path d="M245.367 87.6949H232.286C232.158 87.6949 232.034 87.7455 231.943 87.8357C231.851 87.9259 231.799 88.0485 231.797 88.177V101.231C231.808 104.381 233.064 107.398 235.29 109.624C237.517 111.851 240.534 113.107 243.683 113.117H256.738C256.867 113.117 256.992 113.066 257.083 112.974C257.175 112.882 257.226 112.758 257.226 112.629V99.6005C257.223 96.452 255.974 93.4328 253.752 91.2021C251.53 88.9715 248.515 87.7106 245.367 87.6949ZM243.736 112.173C240.836 112.169 238.056 111.015 236.005 108.964C233.955 106.913 232.803 104.132 232.801 101.231V88.6854H245.347C248.247 88.6889 251.027 89.8419 253.078 91.8916C255.129 93.9414 256.283 96.7206 256.289 99.6203L243.736 112.173Z" fill="#F0F0F0"/>
<path d="M165.594 282.581C236.302 282.581 293.623 279.234 293.623 275.106C293.623 270.978 236.302 267.631 165.594 267.631C94.8856 267.631 37.5651 270.978 37.5651 275.106C37.5651 279.234 94.8856 282.581 165.594 282.581Z" fill="#F5F5F5"/>
<path d="M163.342 58.3635C162.742 54.7186 165.205 51.7604 168.849 51.7604H142.219C138.574 51.7604 136.111 54.712 136.712 58.3635H163.342Z" fill="#223C6A"/>
<path opacity="0.3" d="M163.342 58.3635C162.742 54.7186 165.205 51.7604 168.849 51.7604H142.219C138.574 51.7604 136.111 54.712 136.712 58.3635H163.342Z" fill="black"/>
<path d="M168.849 51.7604H142.219C144.062 51.8216 145.829 52.5091 147.228 53.7095C148.628 54.9099 149.577 56.5515 149.918 58.3635L155.749 93.5717C156.091 95.3832 157.04 97.0241 158.44 98.2243C159.839 99.4245 161.606 100.112 163.448 100.175H176.879C180.524 100.175 182.987 97.2166 182.386 93.5717L176.549 58.3635C176.207 56.5515 175.259 54.9099 173.859 53.7095C172.459 52.5091 170.692 51.8216 168.849 51.7604Z" fill="#223C6A"/>
<path d="M168.955 93.5914C169.556 97.2364 167.093 100.195 163.448 100.195H190.079C190.908 100.223 191.732 100.061 192.489 99.7222C193.246 99.3833 193.915 98.8761 194.447 98.2392C194.978 97.6023 195.356 96.8526 195.554 96.0471C195.751 95.2417 195.762 94.4018 195.586 93.5914H168.955Z" fill="#223C6A"/>
<path opacity="0.3" d="M168.955 93.5914C169.556 97.2364 167.093 100.195 163.448 100.195H190.079C190.908 100.223 191.732 100.061 192.489 99.7222C193.246 99.3833 193.915 98.8761 194.447 98.2392C194.978 97.6023 195.356 96.8526 195.554 96.0471C195.751 95.2417 195.762 94.4018 195.586 93.5914H168.955Z" fill="black"/>
<path d="M173.24 61.4208H154.23C154.119 61.4168 154.013 61.3754 153.929 61.3035C153.846 61.2315 153.788 61.1332 153.768 61.0246C153.756 60.9759 153.757 60.9253 153.768 60.8767C153.78 60.8281 153.802 60.7829 153.834 60.7445C153.866 60.7061 153.907 60.6756 153.952 60.6555C153.998 60.6354 154.048 60.6261 154.098 60.6284H173.108C173.219 60.6324 173.325 60.6737 173.409 60.7457C173.493 60.8177 173.55 60.916 173.57 61.0246C173.582 61.0733 173.582 61.1239 173.57 61.1725C173.558 61.2211 173.536 61.2663 173.504 61.3047C173.472 61.3431 173.431 61.3735 173.386 61.3937C173.34 61.4138 173.29 61.4231 173.24 61.4208Z" fill="white"/>
<path d="M162.708 64.1677H154.686C154.575 64.1637 154.469 64.1224 154.385 64.0504C154.301 63.9785 154.244 63.8801 154.223 63.7715C154.212 63.7229 154.212 63.6723 154.224 63.6237C154.235 63.5751 154.258 63.5298 154.29 63.4914C154.322 63.453 154.362 63.4226 154.408 63.4025C154.454 63.3823 154.504 63.373 154.553 63.3753H162.576C162.687 63.3793 162.793 63.4207 162.877 63.4927C162.961 63.5646 163.018 63.6629 163.039 63.7715C163.048 63.8201 163.047 63.8702 163.035 63.9182C163.023 63.9663 163 64.011 162.969 64.049C162.937 64.087 162.897 64.1175 162.852 64.138C162.807 64.1586 162.758 64.1687 162.708 64.1677Z" fill="white"/>
<path d="M170.13 64.1677H164.584C164.474 64.1635 164.369 64.1219 164.286 64.0498C164.203 63.9778 164.148 63.8796 164.128 63.7715C164.117 63.7234 164.117 63.6734 164.128 63.6253C164.139 63.5773 164.161 63.5324 164.193 63.4941C164.224 63.4559 164.263 63.4253 164.308 63.4047C164.353 63.3841 164.402 63.3741 164.452 63.3754H169.998C170.108 63.3796 170.213 63.4212 170.296 63.4933C170.379 63.5653 170.434 63.6635 170.454 63.7715C170.465 63.8197 170.465 63.8697 170.454 63.9177C170.442 63.9658 170.42 64.0107 170.389 64.0489C170.358 64.0872 170.318 64.1178 170.274 64.1384C170.229 64.1589 170.18 64.169 170.13 64.1677Z" fill="white"/>
<path d="M174.178 66.9476H155.141C155.031 66.9451 154.926 66.9051 154.842 66.8343C154.757 66.7634 154.7 66.666 154.679 66.558C154.668 66.5094 154.668 66.4588 154.68 66.4102C154.691 66.3616 154.714 66.3163 154.746 66.2779C154.778 66.2395 154.818 66.2091 154.864 66.189C154.91 66.1688 154.959 66.1595 155.009 66.1618H174.02C174.13 66.1658 174.236 66.2072 174.32 66.2792C174.404 66.3511 174.461 66.4494 174.482 66.558C174.492 66.6041 174.491 66.6516 174.481 66.6974C174.47 66.7432 174.449 66.7862 174.42 66.8233C174.392 66.8604 174.355 66.8907 174.313 66.9122C174.271 66.9336 174.225 66.9457 174.178 66.9476Z" fill="white"/>
<path d="M172.732 69.6682H155.597C155.487 69.6642 155.381 69.6228 155.297 69.5509C155.213 69.4789 155.156 69.3806 155.135 69.272C155.125 69.2235 155.126 69.1733 155.138 69.1253C155.15 69.0773 155.173 69.0326 155.205 68.9945C155.236 68.9565 155.276 68.9261 155.321 68.9055C155.366 68.885 155.415 68.8748 155.465 68.8758H172.633C172.744 68.8798 172.85 68.9212 172.934 68.9931C173.018 69.0651 173.075 69.1634 173.095 69.272C173.106 69.3234 173.105 69.3767 173.091 69.4274C173.077 69.4781 173.051 69.5248 173.016 69.5636C172.98 69.6023 172.936 69.632 172.887 69.6502C172.837 69.6684 172.785 69.6746 172.732 69.6682Z" fill="white"/>
<path d="M167.575 72.4151H156.053C155.942 72.4111 155.836 72.3697 155.752 72.2978C155.669 72.2258 155.611 72.1275 155.591 72.0189C155.581 71.9707 155.582 71.9208 155.594 71.8731C155.606 71.8253 155.629 71.781 155.66 71.7434C155.692 71.7058 155.732 71.676 155.777 71.6562C155.823 71.6365 155.872 71.6273 155.921 71.6293H167.45C167.559 71.6341 167.664 71.6749 167.747 71.7454C167.831 71.8159 167.889 71.912 167.912 72.0189C167.922 72.068 167.921 72.1187 167.908 72.1672C167.896 72.2158 167.873 72.2608 167.84 72.299C167.808 72.3372 167.767 72.3675 167.721 72.3876C167.675 72.4077 167.625 72.4171 167.575 72.4151Z" fill="white"/>
<path d="M175.499 75.1687H156.508C156.398 75.1647 156.292 75.1233 156.208 75.0514C156.124 74.9794 156.067 74.8811 156.046 74.7725C156.036 74.724 156.037 74.6738 156.049 74.6258C156.061 74.5778 156.084 74.5331 156.116 74.495C156.148 74.457 156.187 74.4265 156.232 74.406C156.278 74.3854 156.327 74.3753 156.376 74.3763H175.387C175.497 74.3803 175.603 74.4216 175.687 74.4936C175.771 74.5656 175.828 74.6639 175.849 74.7725C175.861 74.8229 175.86 74.8754 175.848 74.9257C175.835 74.9759 175.811 75.0224 175.777 75.0612C175.742 75.1001 175.699 75.1301 175.651 75.1488C175.603 75.1675 175.55 75.1743 175.499 75.1687Z" fill="white"/>
<path d="M175.974 77.9155H156.964C156.853 77.9115 156.747 77.8701 156.663 77.7982C156.579 77.7262 156.522 77.6279 156.502 77.5193C156.492 77.4708 156.493 77.4206 156.505 77.3726C156.517 77.3246 156.54 77.2799 156.571 77.2418C156.603 77.2038 156.643 77.1734 156.688 77.1528C156.733 77.1323 156.782 77.1221 156.832 77.1231H175.849C175.959 77.1274 176.064 77.169 176.146 77.241C176.229 77.3131 176.285 77.4112 176.304 77.5193C176.316 77.568 176.316 77.6186 176.304 77.6672C176.292 77.7158 176.27 77.761 176.238 77.7994C176.206 77.8378 176.165 77.8682 176.12 77.8884C176.074 77.9085 176.024 77.9178 175.974 77.9155Z" fill="white"/>
<path d="M168.949 80.6624H157.42C157.31 80.6576 157.206 80.6168 157.122 80.5464C157.039 80.4759 156.981 80.3797 156.957 80.2728C156.948 80.2243 156.949 80.1742 156.961 80.1262C156.973 80.0781 156.996 80.0334 157.027 79.9954C157.059 79.9573 157.099 79.9269 157.144 79.9064C157.189 79.8858 157.238 79.8757 157.288 79.8767H168.817C168.927 79.8806 169.033 79.922 169.117 79.994C169.201 80.0659 169.258 80.1643 169.279 80.2728C169.289 80.3211 169.288 80.3709 169.276 80.4187C169.264 80.4664 169.241 80.5108 169.209 80.5484C169.177 80.5859 169.137 80.6157 169.092 80.6355C169.047 80.6553 168.998 80.6645 168.949 80.6624Z" fill="white"/>
<path d="M179.863 88.2227L181.052 88.9606L199.301 59.5401L198.111 58.8022L179.863 88.2227Z" fill="#263238"/>
<path opacity="0.3" d="M179.863 88.2227L181.052 88.9606L199.301 59.5401L198.111 58.8022L179.863 88.2227Z" fill="black"/>
<path d="M177.488 86.7517L178.678 87.4896L196.926 58.0692L195.737 57.3313L177.488 86.7517Z" fill="#263238"/>
<path opacity="0.3" d="M177.488 86.7517L178.678 87.4896L196.926 58.0692L195.737 57.3313L177.488 86.7517Z" fill="black"/>
<path d="M178.684 87.4844L179.873 88.2223L198.122 58.8018L196.932 58.0639L178.684 87.4844Z" fill="#263238"/>
<path d="M177.46 89.5833L178.53 90.2502L181.059 88.9626L177.493 86.7505L177.46 89.5833Z" fill="#FF8B7B"/>
<path d="M177.447 90.805L178.53 90.2503L177.46 89.5834L177.447 90.805Z" fill="#263238"/>
<path d="M176.819 91.0492H176.773C175.888 90.6846 175.106 90.1088 174.495 89.372C174.112 88.961 173.694 88.5832 173.247 88.2428C173.179 88.1864 173.094 88.1555 173.006 88.1555C172.918 88.1555 172.833 88.1864 172.765 88.2428C172.711 88.3013 172.681 88.3779 172.681 88.4574C172.681 88.5369 172.711 88.6135 172.765 88.672C172.924 88.9097 173.102 89.1342 173.28 89.3323C173.352 89.4109 173.396 89.5105 173.407 89.6163C173.418 89.7222 173.394 89.8287 173.34 89.92C173.282 90.0003 173.2 90.0598 173.106 90.0896C173.012 90.1193 172.911 90.1178 172.818 90.0851C172.567 90.0031 172.32 89.9084 172.078 89.8012C172.057 89.7821 172.029 89.772 172 89.7729C171.972 89.7737 171.945 89.7855 171.924 89.8057C171.904 89.8259 171.892 89.8532 171.892 89.8818C171.891 89.9104 171.901 89.9382 171.92 89.9596L171.953 90.0455C171.992 90.1325 172.008 90.2283 171.998 90.3232C171.989 90.4182 171.955 90.5091 171.9 90.5869C171.844 90.6615 171.769 90.7206 171.684 90.7587C171.598 90.7968 171.505 90.8127 171.411 90.8048C168.505 90.6677 165.594 90.6787 162.689 90.8379C162.645 90.8379 162.603 90.8205 162.572 90.7895C162.541 90.7585 162.524 90.7166 162.524 90.6728C162.524 90.629 162.541 90.587 162.572 90.556C162.603 90.5251 162.645 90.5077 162.689 90.5077C165.605 90.3486 168.527 90.3376 171.444 90.4747C171.482 90.481 171.52 90.4769 171.555 90.4629C171.59 90.4489 171.62 90.4256 171.643 90.3954C171.662 90.3613 171.673 90.3226 171.673 90.2832C171.673 90.2438 171.662 90.2051 171.643 90.1709L171.61 90.0983C171.563 90.0143 171.546 89.9177 171.559 89.8228C171.573 89.7279 171.617 89.64 171.684 89.5722C171.752 89.5044 171.84 89.4605 171.935 89.447C172.03 89.4335 172.126 89.4512 172.21 89.4974C172.437 89.6041 172.671 89.6946 172.91 89.7681C172.931 89.7842 172.957 89.7929 172.983 89.7929C173.009 89.7929 173.035 89.7842 173.056 89.7681C173.072 89.7371 173.078 89.7014 173.072 89.6667C173.066 89.6321 173.049 89.6004 173.023 89.5767C172.831 89.3522 172.653 89.1144 172.488 88.8767C172.393 88.753 172.344 88.5995 172.352 88.4436C172.359 88.2876 172.421 88.1393 172.527 88.0249C172.649 87.9117 172.81 87.8488 172.976 87.8488C173.143 87.8488 173.303 87.9117 173.425 88.0249C173.901 88.3723 174.343 88.7636 174.746 89.1937C175.311 89.8548 176.02 90.3768 176.819 90.719C176.84 90.7257 176.86 90.7365 176.877 90.7509C176.893 90.7652 176.907 90.7827 176.917 90.8024C176.927 90.8221 176.932 90.8435 176.934 90.8655C176.935 90.8875 176.932 90.9095 176.925 90.9303C176.919 90.9574 176.906 90.9825 176.888 91.0033C176.869 91.0241 176.846 91.0398 176.819 91.0492Z" fill="white"/>
<path d="M173.987 115.243L178.404 107.603H169.576L173.987 115.243Z" fill="#223C6A"/>
<path d="M223.556 92.8057C221.679 91.1446 219.234 90.2697 216.729 90.3625C215.124 87.1269 211.816 85.2384 208.316 85.8789C203.298 86.7968 201.766 92.8255 205.252 95.0243C206.405 95.7549 207.654 96.3216 208.963 96.7082V96.8666C206.913 97.606 205.12 98.9214 203.798 100.655C202.477 102.388 201.684 104.466 201.515 106.639C201 114.114 209.029 118.485 213.401 114.325C214.005 113.752 214.578 113.145 215.117 112.51C215.963 113.698 216.874 114.913 217.858 116.181C228.779 111.149 230.622 98.9004 223.556 92.8057Z" fill="#263238"/>
<path d="M201.601 121.866C201.535 122.791 201.456 123.596 201.337 124.441C201.218 125.287 201.106 126.105 200.967 126.931C200.69 128.588 200.307 130.232 199.917 131.85C199.114 135.141 197.99 138.346 196.563 141.418L196.424 141.709C196.371 141.821 196.358 141.861 196.259 142.059C196.094 142.385 195.897 142.695 195.671 142.983C195.246 143.506 194.735 143.953 194.159 144.304C193.209 144.87 192.161 145.253 191.069 145.433C189.27 145.71 187.441 145.734 185.635 145.506C182.291 145.096 179.006 144.305 175.842 143.148L176.568 140.507C178.094 140.738 179.685 140.949 181.243 141.088C182.778 141.255 184.322 141.335 185.866 141.326C187.283 141.352 188.698 141.201 190.078 140.877C190.578 140.756 191.05 140.543 191.472 140.249C191.576 140.174 191.664 140.077 191.729 139.966C191.747 139.932 191.76 139.897 191.769 139.86L191.954 139.384C192.231 138.678 192.502 137.965 192.733 137.232C192.964 136.499 193.208 135.773 193.44 135.04C193.856 133.554 194.265 132.068 194.602 130.549C194.938 129.031 195.216 127.512 195.473 125.98C195.731 124.448 195.935 122.863 196.087 121.437L201.601 121.866Z" fill="#FFB573"/>
<path d="M197.844 115.256C195.612 115.818 194.053 124.99 194.053 124.99L200.194 129.163C200.194 129.163 206.084 119.918 204.367 117.469C202.571 114.913 201.092 114.424 197.844 115.256Z" fill="#263238"/>
<path opacity="0.2" d="M198.042 117.303L196.331 126.541L199.778 128.885L198.042 117.303Z" fill="black"/>
<path d="M174.27 140.626L170.104 142.224L174.812 145.063C174.812 145.063 177.816 143.327 177.737 141.101L177.275 140.837C176.821 140.581 176.316 140.429 175.796 140.393C175.276 140.356 174.755 140.436 174.27 140.626Z" fill="#FFB573"/>
<path opacity="0.1" d="M173.96 140.831L171.9 141.564C171.497 141.7 171.103 141.858 170.718 142.039C170.718 142.039 172.078 142.607 172.758 142.224C173.79 142.302 174.827 142.239 175.842 142.039L173.96 140.831Z" fill="black"/>
<path d="M167.509 145.321L171.055 148.272L174.805 145.09L170.104 142.25L167.509 145.321Z" fill="#FFB573"/>
<path d="M209.894 269.586H204.493L204.13 257.066H209.538L209.894 269.586Z" fill="#FFB573"/>
<path d="M204.308 268.959H210.377C210.482 268.956 210.585 268.992 210.665 269.06C210.745 269.129 210.798 269.224 210.812 269.328L211.473 274.135C211.486 274.257 211.473 274.379 211.435 274.495C211.398 274.611 211.336 274.717 211.255 274.808C211.173 274.898 211.073 274.97 210.962 275.019C210.85 275.069 210.73 275.094 210.608 275.093C208.495 275.06 207.471 274.934 204.797 274.934C203.159 274.934 198.438 275.106 196.167 275.106C193.895 275.106 193.776 272.861 194.72 272.656C198.96 271.745 201.984 270.49 203.377 269.289C203.639 269.072 203.969 268.955 204.308 268.959Z" fill="#263238"/>
<g opacity="0.2">
<path opacity="0.2" d="M204.13 257.066L204.315 263.524H209.723L209.538 257.066H204.13Z" fill="black"/>
</g>
<path d="M197.844 115.256C197.844 115.256 195.269 116.161 200.426 147.883H222.381C222.012 138.949 222.005 133.435 226.277 115.098C223.203 114.462 220.087 114.051 216.953 113.87C213.634 113.632 210.302 113.632 206.983 113.87C202.697 114.259 197.844 115.256 197.844 115.256Z" fill="#263238"/>
<path d="M212.965 123.953C211.151 123.899 209.388 123.341 207.874 122.342C207.856 122.33 207.841 122.315 207.83 122.297C207.818 122.279 207.81 122.259 207.806 122.238C207.803 122.217 207.803 122.195 207.808 122.175C207.813 122.154 207.822 122.134 207.834 122.117C207.846 122.099 207.862 122.083 207.88 122.071C207.898 122.058 207.919 122.05 207.94 122.046C207.962 122.041 207.984 122.041 208.005 122.046C208.027 122.05 208.047 122.059 208.065 122.071C209.684 123.132 211.591 123.667 213.526 123.603C214.246 123.147 219.225 119.826 219.601 114.075C219.603 114.053 219.609 114.032 219.619 114.012C219.628 113.993 219.642 113.976 219.659 113.962C219.675 113.947 219.694 113.937 219.715 113.93C219.736 113.923 219.758 113.921 219.779 113.923C219.801 113.924 219.822 113.93 219.842 113.94C219.861 113.95 219.878 113.964 219.892 113.98C219.906 113.997 219.917 114.016 219.924 114.037C219.93 114.057 219.933 114.079 219.931 114.101C219.548 119.984 214.649 123.299 213.665 123.9C213.641 123.907 213.616 123.907 213.592 123.9C213.381 123.946 213.17 123.953 212.965 123.953Z" fill="white"/>
<path d="M203.621 122.936C203.594 122.946 203.563 122.946 203.536 122.936C203.295 122.749 203.098 122.511 202.958 122.24C202.819 121.968 202.741 121.669 202.73 121.364C202.42 119.35 203.166 115.831 204.711 114.009C204.726 113.993 204.745 113.98 204.765 113.971C204.786 113.962 204.808 113.958 204.83 113.958C204.852 113.958 204.874 113.962 204.894 113.971C204.915 113.98 204.933 113.993 204.949 114.009C204.979 114.039 204.996 114.081 204.996 114.124C204.996 114.167 204.979 114.209 204.949 114.24C203.483 115.95 202.723 119.39 203.021 121.331C203.05 121.834 203.27 122.306 203.635 122.652C204.549 122.493 205.437 122.211 206.276 121.813C206.316 121.798 206.361 121.798 206.402 121.813C206.442 121.829 206.475 121.86 206.494 121.899C206.503 121.919 206.507 121.941 206.508 121.962C206.508 121.984 206.504 122.006 206.496 122.026C206.488 122.046 206.476 122.065 206.461 122.08C206.446 122.096 206.428 122.109 206.408 122.117C205.523 122.521 204.584 122.797 203.621 122.936Z" fill="white"/>
<path d="M215.963 102.644C215.335 105.847 214.708 111.73 216.953 113.87C216.953 113.87 216.075 117.125 210.112 117.125C203.555 117.125 206.982 113.87 206.982 113.87C210.555 113.011 210.462 110.357 209.842 107.868L215.963 102.644Z" fill="#FFB573"/>
<path d="M216.946 113.87C213.627 113.632 210.295 113.632 206.976 113.87L206.315 113.936C205.516 115.441 205.318 117.759 207.227 121.199C207.227 121.199 215.969 117.673 218.247 113.989C217.825 113.923 217.389 113.89 216.946 113.87Z" fill="#FFB573"/>
<path opacity="0.2" d="M213.467 104.777L209.835 107.887C209.992 108.467 210.096 109.059 210.145 109.657C211.512 109.459 213.387 107.96 213.533 106.527C213.62 105.945 213.597 105.351 213.467 104.777Z" fill="black"/>
<path d="M219.423 97.0845C218.201 102.308 217.792 104.546 214.662 106.798C209.96 110.192 203.813 107.551 203.436 102.063C203.106 97.1308 205.166 89.4116 210.7 88.1967C211.917 87.9223 213.184 87.9633 214.38 88.3158C215.577 88.6684 216.663 89.3207 217.537 90.2109C218.411 91.1012 219.043 92.1999 219.373 93.4028C219.703 94.6058 219.72 95.8731 219.423 97.0845Z" fill="#FFB573"/>
<path d="M200.426 147.883C200.426 147.883 196.16 189.529 196.517 205.991C196.886 223.159 203.166 262.243 203.166 262.243H210.495C210.495 262.243 209.34 224.136 209.987 207.298C210.694 188.935 216.524 147.87 216.524 147.87L200.426 147.883Z" fill="#223C6A"/>
<path opacity="0.3" d="M200.426 147.883C200.426 147.883 196.16 189.529 196.517 205.991C196.886 223.159 203.166 262.243 203.166 262.243H210.495C210.495 262.243 209.34 224.136 209.987 207.298C210.694 188.935 216.524 147.87 216.524 147.87L200.426 147.883Z" fill="white"/>
<path d="M211.109 262.534H202.532L201.905 259.8L211.512 259.463L211.109 262.534Z" fill="#263238"/>
<path opacity="0.2" d="M209.894 158.243C204.506 169.092 208.811 188.882 210.72 196.244C211.697 185.191 213.361 171.667 214.635 161.743C213.797 156.13 212.384 153.245 209.894 158.243Z" fill="black"/>
<path d="M235.165 269.586H229.757L227.776 257.066H233.178L235.165 269.586Z" fill="#FFB573"/>
<path d="M229.493 268.959H235.587C235.696 268.961 235.801 268.998 235.887 269.064C235.972 269.131 236.034 269.224 236.063 269.328L237.383 274.136C237.416 274.249 237.421 274.369 237.398 274.485C237.375 274.601 237.326 274.71 237.253 274.803C237.18 274.897 237.087 274.971 236.98 275.022C236.873 275.072 236.755 275.096 236.637 275.093C234.518 275.06 233.481 274.935 230.807 274.935C229.163 274.935 224.468 275.106 222.223 275.106C219.977 275.106 219.542 272.861 220.46 272.656C224.58 271.745 227.406 270.491 228.68 269.289C228.903 269.085 229.191 268.967 229.493 268.959Z" fill="#263238"/>
<g opacity="0.2">
<path opacity="0.2" d="M227.776 257.066L228.8 263.524H234.208L233.184 257.066H227.776Z" fill="black"/>
</g>
<path d="M206.533 147.883C206.533 147.883 211.07 189.529 213.566 205.991C216.161 223.159 227.518 262.243 227.518 262.243H234.795C234.795 262.243 228.694 224.136 227.155 207.298C225.478 188.935 222.579 147.87 222.579 147.87L206.533 147.883Z" fill="#223C6A"/>
<path opacity="0.3" d="M206.533 147.883C206.533 147.883 211.07 189.529 213.566 205.991C216.161 223.159 227.518 262.243 227.518 262.243H234.795C234.795 262.243 228.694 224.136 227.155 207.298C225.478 188.935 222.579 147.87 222.579 147.87L206.533 147.883Z" fill="white"/>
<path d="M235.462 262.534H226.884L225.901 259.8L235.462 259.463V262.534Z" fill="#263238"/>
<path d="M227.584 269.903C227.109 269.941 226.635 269.825 226.231 269.573C226.135 269.498 226.057 269.403 226.003 269.295C225.949 269.186 225.921 269.067 225.92 268.945C225.913 268.879 225.925 268.811 225.956 268.751C225.986 268.691 226.033 268.642 226.092 268.609C226.706 268.245 229.004 269.341 229.261 269.474C229.287 269.484 229.31 269.503 229.325 269.526C229.34 269.55 229.348 269.577 229.347 269.606C229.348 269.631 229.339 269.655 229.324 269.674C229.308 269.693 229.286 269.707 229.261 269.711C228.71 269.829 228.148 269.893 227.584 269.903ZM226.475 268.787C226.395 268.781 226.315 268.797 226.244 268.833C226.22 268.846 226.2 268.867 226.189 268.892C226.177 268.917 226.173 268.945 226.178 268.972C226.179 269.05 226.197 269.128 226.231 269.199C226.265 269.269 226.315 269.332 226.376 269.381C226.746 269.678 227.637 269.724 228.812 269.526C228.078 269.157 227.289 268.907 226.475 268.787Z" fill="#223C6A"/>
<path d="M229.235 269.711H229.183C228.522 269.414 227.076 268.252 227.096 267.638C227.096 267.493 227.182 267.314 227.532 267.275C227.796 267.253 228.058 267.333 228.265 267.499C228.818 268.074 229.194 268.796 229.348 269.579C229.352 269.601 229.351 269.623 229.344 269.644C229.337 269.665 229.324 269.684 229.308 269.698C229.286 269.709 229.26 269.714 229.235 269.711ZM227.664 267.519H227.591C227.36 267.519 227.354 267.638 227.354 267.664C227.354 268.034 228.324 268.952 229.031 269.348C228.895 268.718 228.581 268.141 228.126 267.684C227.995 267.579 227.832 267.52 227.664 267.519Z" fill="#223C6A"/>
<path d="M210.766 97.0515C210.694 97.4807 210.403 97.7911 210.106 97.7118C209.809 97.6326 209.65 97.276 209.73 96.8468C209.809 96.4176 210.086 96.1073 210.39 96.1535C210.694 96.1997 210.839 96.6223 210.766 97.0515Z" fill="#263238"/>
<path d="M205.906 96.2262C205.834 96.6554 205.543 96.9658 205.246 96.8865C204.949 96.8073 204.797 96.4573 204.87 96.0215C204.942 95.5857 205.226 95.282 205.53 95.3612C205.834 95.4405 205.979 95.797 205.906 96.2262Z" fill="#263238"/>
<path d="M205.649 95.4073L204.665 94.9319C204.665 94.9319 205.061 95.8299 205.649 95.4073Z" fill="#263238"/>
<path d="M207.273 97.2562C206.729 98.1703 206.062 99.0056 205.292 99.739C205.486 99.9318 205.719 100.08 205.975 100.175C206.231 100.27 206.505 100.308 206.778 100.287L207.273 97.2562Z" fill="#ED893E"/>
<path d="M208.812 102.367C208.59 102.367 208.369 102.347 208.151 102.308C208.135 102.305 208.119 102.3 208.104 102.291C208.09 102.282 208.078 102.271 208.068 102.257C208.058 102.244 208.051 102.228 208.047 102.212C208.043 102.196 208.043 102.179 208.046 102.162C208.052 102.128 208.072 102.098 208.1 102.079C208.128 102.059 208.163 102.051 208.197 102.057C208.729 102.159 209.278 102.134 209.799 101.985C210.32 101.836 210.798 101.567 211.195 101.198C211.207 101.186 211.221 101.175 211.237 101.168C211.253 101.161 211.27 101.158 211.288 101.158C211.305 101.158 211.322 101.161 211.338 101.168C211.354 101.175 211.368 101.186 211.38 101.198C211.392 101.21 211.401 101.224 211.408 101.239C211.414 101.255 211.417 101.271 211.417 101.287C211.417 101.304 211.414 101.32 211.408 101.336C211.401 101.351 211.392 101.365 211.38 101.377C210.689 102.034 209.765 102.39 208.812 102.367Z" fill="#263238"/>
<path d="M221.971 88.9494C221.351 88.5145 220.647 88.2132 219.905 88.0646C219.304 82.9141 215.177 79.639 210.574 80.6757C205.358 81.851 203.542 88.3221 207.048 90.5276C209.111 91.7878 211.44 92.5456 213.85 92.7397C213.942 97.0119 216.603 100.663 218.472 100.862C223.807 98.7353 225.187 91.2143 221.971 88.9494Z" fill="#263238"/>
<path d="M220.03 102.169C219.504 103.063 218.648 103.715 217.646 103.985C216.326 104.322 215.666 103.126 216.075 101.885C216.425 100.769 217.547 99.2437 218.875 99.4484C219.163 99.5011 219.433 99.6245 219.662 99.8076C219.891 99.9907 220.071 100.228 220.185 100.497C220.3 100.767 220.346 101.061 220.319 101.353C220.291 101.644 220.192 101.925 220.03 102.169Z" fill="#FFB573"/>
<path d="M212.885 96.3911C212.831 96.391 212.778 96.3737 212.734 96.3416C212.69 96.3096 212.658 96.2645 212.641 96.2129C212.291 95.0837 210.845 94.5951 210.832 94.5951C210.767 94.5739 210.713 94.528 210.682 94.4674C210.651 94.4067 210.646 94.3363 210.667 94.2715C210.676 94.239 210.693 94.2087 210.714 94.1826C210.736 94.1565 210.763 94.1351 210.793 94.1197C210.823 94.1043 210.856 94.0951 210.89 94.0929C210.924 94.0906 210.958 94.0952 210.99 94.1064C211.056 94.1064 212.707 94.6809 213.13 96.0874C213.15 96.1522 213.145 96.2226 213.114 96.2832C213.083 96.3439 213.029 96.3898 212.965 96.4109L212.885 96.3911Z" fill="#263238"/>
<path d="M204.83 93.7302C204.785 93.7301 204.741 93.7186 204.701 93.6966C204.662 93.6747 204.629 93.643 204.605 93.6047C204.572 93.5452 204.564 93.4749 204.582 93.4093C204.601 93.3437 204.645 93.2881 204.704 93.2547C205.052 93.0444 205.445 92.9203 205.851 92.8927C206.256 92.8651 206.662 92.9349 207.035 93.0963C207.087 93.1315 207.124 93.1843 207.14 93.245C207.156 93.3057 207.149 93.3699 207.12 93.4258C207.092 93.4817 207.044 93.5253 206.986 93.5485C206.928 93.5717 206.863 93.5729 206.804 93.5519C206.506 93.4299 206.184 93.3795 205.862 93.4047C205.541 93.43 205.231 93.5301 204.955 93.6972C204.918 93.7203 204.874 93.7318 204.83 93.7302Z" fill="#263238"/>
<path d="M228.799 121.391C229.46 124.501 229.896 127.558 230.265 130.682C230.656 133.817 230.876 136.971 230.926 140.131C230.926 140.289 230.926 140.619 230.926 140.91C230.926 141.2 230.879 141.438 230.846 141.682C230.767 142.164 230.681 142.613 230.569 143.003C230.358 143.848 230.107 144.634 229.843 145.407C229.315 146.945 228.687 148.404 228.053 149.844C226.762 152.699 225.327 155.487 223.755 158.197L221.272 157.041L222.744 152.697C223.24 151.257 223.715 149.804 224.157 148.358C224.6 146.912 225.029 145.479 225.399 144.066C225.577 143.36 225.729 142.66 225.835 141.999C225.887 141.669 225.927 141.339 225.953 141.075C225.953 140.936 225.953 140.811 225.953 140.699L225.92 140.322C225.802 138.843 225.63 137.357 225.452 135.865L224.831 131.375C224.375 128.39 223.867 125.366 223.358 122.414L228.799 121.391Z" fill="#FFB573"/>
<path d="M226.277 115.098C228.476 115.758 231.117 123.339 231.117 123.339L222.579 129.44C222.579 129.44 219.469 123.121 220.393 120.275C221.357 117.317 223.761 114.332 226.277 115.098Z" fill="#263238"/>
<path d="M202.274 269.903C201.809 269.949 201.342 269.833 200.954 269.573C200.866 269.496 200.799 269.398 200.758 269.288C200.718 269.179 200.706 269.061 200.722 268.945C200.726 268.876 200.747 268.808 200.784 268.749C200.821 268.69 200.872 268.642 200.934 268.609C201.594 268.245 203.753 269.341 203.998 269.474C204.021 269.486 204.04 269.505 204.052 269.529C204.064 269.553 204.068 269.579 204.064 269.606C204.06 269.631 204.049 269.655 204.031 269.674C204.013 269.693 203.99 269.706 203.965 269.711C203.408 269.827 202.842 269.891 202.274 269.903ZM201.31 268.787C201.228 268.782 201.146 268.798 201.072 268.833C201.047 268.846 201.025 268.866 201.01 268.89C200.995 268.915 200.987 268.943 200.987 268.972C200.976 269.047 200.984 269.123 201.01 269.194C201.035 269.265 201.077 269.329 201.132 269.381C201.462 269.678 202.353 269.724 203.549 269.526C202.85 269.153 202.093 268.903 201.31 268.787Z" fill="#223C6A"/>
<path d="M203.952 269.711H203.892C203.232 269.414 201.971 268.252 202.076 267.638C202.076 267.493 202.202 267.314 202.552 267.275C202.68 267.262 202.809 267.275 202.931 267.314C203.054 267.353 203.167 267.416 203.265 267.499C203.925 268.067 204.071 269.52 204.071 269.579C204.074 269.602 204.071 269.625 204.062 269.647C204.052 269.668 204.037 269.686 204.018 269.698C203.997 269.708 203.975 269.713 203.952 269.711ZM202.664 267.519H202.572C202.341 267.519 202.327 267.638 202.321 267.664C202.261 268.034 203.126 268.952 203.78 269.348C203.738 268.739 203.507 268.157 203.12 267.684C202.994 267.573 202.831 267.514 202.664 267.519Z" fill="#223C6A"/>
<path d="M210.495 96.2327L209.511 95.7573C209.511 95.7573 209.921 96.6619 210.495 96.2327Z" fill="#263238"/>
<path d="M222.711 146.595L223.272 148.576C223.352 148.735 223.167 148.886 222.916 148.886H200.313C200.115 148.886 199.957 148.787 199.943 148.669L199.745 146.688C199.745 146.549 199.904 146.437 200.115 146.437H222.381C222.445 146.435 222.508 146.449 222.565 146.476C222.623 146.504 222.673 146.544 222.711 146.595Z" fill="#223C6A"/>
<path d="M219.74 149.078H220.334C220.453 149.078 220.539 149.018 220.532 148.946L220.255 146.39C220.255 146.318 220.143 146.252 220.024 146.252H219.43C219.311 146.252 219.218 146.318 219.225 146.39L219.509 148.946C219.502 149.018 219.608 149.078 219.74 149.078Z" fill="#223C6A"/>
<g opacity="0.3">
<path opacity="0.3" d="M219.74 149.078H220.334C220.453 149.078 220.539 149.018 220.532 148.946L220.255 146.39C220.255 146.318 220.143 146.252 220.024 146.252H219.43C219.311 146.252 219.218 146.318 219.225 146.39L219.509 148.946C219.502 149.018 219.608 149.078 219.74 149.078Z" fill="white"/>
</g>
<path d="M201.991 149.078H202.585C202.704 149.078 202.796 149.018 202.79 148.946L202.506 146.39C202.506 146.318 202.393 146.252 202.274 146.252H201.68C201.561 146.252 201.469 146.318 201.482 146.39L201.759 148.946C201.766 149.018 201.872 149.078 201.991 149.078Z" fill="#223C6A"/>
<path opacity="0.3" d="M201.991 149.078H202.585C202.704 149.078 202.796 149.018 202.79 148.946L202.506 146.39C202.506 146.318 202.393 146.252 202.274 146.252H201.68C201.561 146.252 201.469 146.318 201.482 146.39L201.759 148.946C201.766 149.018 201.872 149.078 201.991 149.078Z" fill="white"/>
<path d="M210.859 149.078H211.453C211.572 149.078 211.664 149.018 211.651 148.946L211.374 146.39C211.374 146.318 211.261 146.252 211.143 146.252H210.548C210.429 146.252 210.337 146.318 210.35 146.39L210.627 148.946C210.634 149.018 210.74 149.078 210.859 149.078Z" fill="#223C6A"/>
<path opacity="0.3" d="M210.859 149.078H211.453C211.572 149.078 211.664 149.018 211.651 148.946L211.374 146.39C211.374 146.318 211.261 146.252 211.143 146.252H210.548C210.429 146.252 210.337 146.318 210.35 146.39L210.627 148.946C210.634 149.018 210.74 149.078 210.859 149.078Z" fill="white"/>
<path d="M221.371 156.553L217.178 160.62L222.645 161.168C222.645 161.168 224.626 158.309 223.59 156.315L221.371 156.553Z" fill="#FFB573"/>
<path d="M216.557 165.124L221.166 165.335L222.645 161.168L217.178 160.62L216.557 165.124Z" fill="#FFB573"/>
<path d="M109.665 270.398C110.186 270.459 110.711 270.33 111.144 270.035C111.205 269.968 111.243 269.884 111.255 269.794C111.267 269.705 111.251 269.614 111.21 269.533C111.181 269.466 111.136 269.407 111.08 269.36C111.024 269.313 110.958 269.28 110.887 269.262C110.108 269.044 108.246 270.008 108.193 270.055C108.17 270.065 108.151 270.082 108.139 270.103C108.126 270.124 108.119 270.149 108.12 270.173C108.121 270.196 108.13 270.217 108.144 270.233C108.158 270.25 108.178 270.262 108.199 270.266C108.683 270.353 109.174 270.397 109.665 270.398ZM110.577 269.46C110.649 269.45 110.722 269.45 110.794 269.46C110.838 269.469 110.878 269.488 110.913 269.516C110.947 269.543 110.975 269.579 110.993 269.619C111.052 269.764 110.993 269.837 110.993 269.876C110.722 270.187 109.494 270.193 108.609 270.068C109.224 269.752 109.89 269.546 110.577 269.46Z" fill="#223C6A"/>
<path d="M108.22 270.266H108.272C108.893 270.002 110.207 268.945 110.2 268.404C110.2 268.272 110.128 268.113 109.817 268.08C109.581 268.064 109.346 268.134 109.157 268.278C108.648 268.794 108.294 269.441 108.134 270.147C108.127 270.166 108.127 270.186 108.133 270.205C108.139 270.224 108.151 270.241 108.167 270.253C108.183 270.262 108.201 270.267 108.22 270.266ZM109.692 268.285H109.765C109.963 268.285 109.969 268.384 109.969 268.41C109.969 268.741 109.065 269.566 108.411 269.923C108.557 269.357 108.854 268.841 109.269 268.43C109.393 268.343 109.541 268.297 109.692 268.298V268.285Z" fill="#223C6A"/>
<path d="M102.903 270.154H107.757L109.89 258.915H105.036L102.903 270.154Z" fill="#FFB573"/>
<path d="M107.803 269.593H102.52C102.419 269.596 102.322 269.629 102.24 269.688C102.157 269.747 102.094 269.828 102.058 269.923L100.467 274.235C100.422 274.328 100.403 274.431 100.41 274.535C100.417 274.638 100.451 274.738 100.508 274.824C100.565 274.911 100.644 274.981 100.736 275.028C100.828 275.075 100.931 275.097 101.035 275.093C102.956 275.093 105.73 274.954 108.133 274.954C110.939 274.954 110.682 275.106 113.977 275.106C115.958 275.106 116.816 273.092 116.011 272.907C112.339 272.082 111.91 271.989 108.932 269.969C108.603 269.731 108.209 269.599 107.803 269.593Z" fill="#263238"/>
<path opacity="0.2" d="M109.89 258.922L108.787 264.713H103.934L105.036 258.922H109.89Z" fill="black"/>
<path d="M110.253 149.124L113.429 152.459L108.305 154.248C108.305 154.248 106.443 151.528 107.876 149.665L110.253 149.124Z" fill="#FFB573"/>
<path d="M114.38 157.12L109.309 157.86L108.305 154.248L113.429 152.459L114.38 157.12Z" fill="#FFB573"/>
<path d="M91.216 176.798L115.965 177.881C116.546 177.89 117.113 177.698 117.569 177.337C118.025 176.976 118.343 176.468 118.467 175.9L121.426 160.779C121.487 160.522 121.49 160.256 121.434 159.998C121.379 159.741 121.266 159.499 121.104 159.291C120.943 159.083 120.736 158.914 120.5 158.797C120.264 158.679 120.005 158.616 119.742 158.613L94.993 157.523C94.4126 157.516 93.8473 157.709 93.3926 158.07C92.9379 158.431 92.6216 158.937 92.497 159.504L89.5322 174.625C89.4696 174.882 89.4657 175.15 89.5208 175.408C89.5759 175.666 89.6885 175.909 89.8504 176.118C90.0122 176.326 90.219 176.496 90.4555 176.614C90.6919 176.732 90.9519 176.795 91.216 176.798Z" fill="#263238"/>
<path d="M92.9129 181.447L123.486 182.767C124.179 182.794 124.856 182.553 125.377 182.095C125.898 181.636 126.223 180.995 126.285 180.304L127.903 161.538C127.936 161.205 127.9 160.868 127.797 160.549C127.695 160.23 127.528 159.935 127.307 159.684C127.086 159.432 126.816 159.228 126.513 159.084C126.21 158.941 125.881 158.862 125.546 158.851L94.9797 157.53C94.2864 157.506 93.6103 157.748 93.0889 158.206C92.5676 158.663 92.2402 159.302 92.1734 159.993L90.5556 178.759C90.5239 179.092 90.5606 179.429 90.6636 179.747C90.7665 180.066 90.9335 180.36 91.1543 180.612C91.375 180.863 91.6449 181.067 91.9474 181.211C92.2498 181.354 92.5784 181.435 92.9129 181.447Z" fill="#223C6A"/>
<path opacity="0.2" d="M92.9129 181.447L123.486 182.767C124.179 182.794 124.856 182.553 125.377 182.095C125.898 181.636 126.223 180.995 126.285 180.304L127.903 161.538C127.936 161.205 127.9 160.868 127.797 160.549C127.695 160.23 127.528 159.935 127.307 159.684C127.086 159.432 126.816 159.228 126.513 159.084C126.21 158.941 125.881 158.862 125.546 158.851L94.9797 157.53C94.2864 157.506 93.6103 157.748 93.0889 158.206C92.5676 158.663 92.2402 159.302 92.1734 159.993L90.5556 178.759C90.5239 179.092 90.5606 179.429 90.6636 179.747C90.7665 180.066 90.9335 180.36 91.1543 180.612C91.375 180.863 91.6449 181.067 91.9474 181.211C92.2498 181.354 92.5784 181.435 92.9129 181.447Z" fill="black"/>
<path d="M115.344 163.823H115.265L106.39 163.433C106.159 163.425 105.932 163.37 105.722 163.271C105.513 163.172 105.327 163.031 105.174 162.858C105.021 162.684 104.906 162.481 104.834 162.26C104.763 162.04 104.737 161.808 104.759 161.578L105.109 157.53C105.195 156.702 105.591 155.938 106.216 155.389C106.842 154.841 107.651 154.549 108.483 154.572L114.426 154.829C114.855 154.846 115.277 154.95 115.665 155.135C116.053 155.321 116.399 155.583 116.683 155.906C116.966 156.229 117.181 156.606 117.314 157.015C117.447 157.423 117.496 157.855 117.457 158.283L117.12 162.205C117.076 162.646 116.87 163.056 116.542 163.355C116.214 163.653 115.787 163.82 115.344 163.823ZM106.76 161.459L115.152 161.829L115.476 158.104C115.494 157.941 115.479 157.776 115.43 157.62C115.382 157.463 115.301 157.318 115.194 157.194C115.086 157.07 114.955 156.97 114.807 156.899C114.659 156.828 114.498 156.789 114.334 156.784L108.391 156.52C108.067 156.517 107.754 156.633 107.511 156.846C107.267 157.059 107.111 157.354 107.07 157.675L106.76 161.459Z" fill="#223C6A"/>
<path d="M126.754 182.932L96.1882 181.612C95.4897 181.571 94.8316 181.271 94.343 180.77C93.8544 180.269 93.5705 179.604 93.547 178.904L93.1376 160.052C93.1241 159.72 93.1805 159.388 93.3031 159.078C93.4257 158.768 93.6118 158.488 93.8495 158.255C94.0871 158.021 94.371 157.84 94.6828 157.724C94.9947 157.607 95.3275 157.557 95.66 157.576L126.233 158.897C126.932 158.936 127.591 159.236 128.08 159.737C128.569 160.238 128.852 160.904 128.874 161.604L129.277 180.456C129.289 180.789 129.232 181.12 129.109 181.429C128.986 181.738 128.8 182.018 128.563 182.252C128.325 182.485 128.042 182.666 127.73 182.783C127.419 182.9 127.087 182.951 126.754 182.932Z" fill="#223C6A"/>
<path d="M117.701 112.192C117.378 112.853 116.995 113.606 116.651 114.325C116.308 115.045 115.991 115.811 115.628 116.557C114.968 118.056 114.307 119.562 113.739 121.074C113.171 122.586 112.643 124.111 112.174 125.623C111.956 126.383 111.732 127.135 111.567 127.882C111.468 128.258 111.382 128.634 111.316 128.998L111.21 129.552C111.171 129.744 111.131 129.935 111.118 130.067C111.118 130.358 111.039 130.622 111.025 131.012C111.012 131.401 110.979 131.718 110.979 132.121C110.979 132.893 110.979 133.706 110.979 134.518C111.012 136.162 111.111 137.819 111.21 139.523C111.402 142.897 111.686 146.324 111.95 149.705L105.901 150.682C105.083 147.242 104.435 143.835 103.854 140.342C103.577 138.599 103.339 136.842 103.141 135.059C103.049 134.148 102.956 133.243 102.91 132.286C102.87 131.83 102.864 131.315 102.857 130.813C102.851 130.312 102.857 129.744 102.917 129.176C102.93 128.917 102.956 128.659 102.996 128.403L103.088 127.677C103.141 127.188 103.214 126.713 103.3 126.251C103.458 125.3 103.656 124.382 103.854 123.464C104.284 121.648 104.772 119.859 105.353 118.129C105.934 116.399 106.548 114.682 107.235 113.005C107.579 112.166 107.896 111.334 108.305 110.502C108.714 109.67 109.038 108.878 109.493 107.966L117.701 112.192Z" fill="#223C6A"/>
<path d="M130.934 146.76C130.934 146.76 126.266 183.031 123.565 197.822C120.752 213.208 110.788 263.59 110.788 263.59H102.541C102.541 263.59 106.727 214.106 108.583 198.998C110.61 182.49 113.865 146.76 113.865 146.76H130.934Z" fill="#263238"/>
<path d="M112.822 260.315C112.861 260.315 111.858 263.729 111.858 263.729H101.86L102.039 260.685L112.822 260.315Z" fill="#223C6A"/>
<path d="M134.909 86.5261C134.909 86.9355 135.127 87.2722 135.398 87.2722C135.669 87.2722 135.88 86.9355 135.88 86.5261C135.88 86.1167 135.662 85.7865 135.398 85.7865C135.134 85.7865 134.909 86.0968 134.909 86.5261Z" fill="#263238"/>
<path d="M135.087 87.2722C135.583 88.5286 136.25 89.7106 137.068 90.7851C136.785 90.9881 136.461 91.1264 136.119 91.1903C135.777 91.2542 135.425 91.2421 135.087 91.1549V87.2722Z" fill="#ED893E"/>
<path d="M133.456 84.2479C133.506 84.2482 133.554 84.2344 133.595 84.2083C133.835 84.0222 134.116 83.8963 134.415 83.8411C134.714 83.786 135.021 83.8032 135.312 83.8913C135.372 83.913 135.437 83.9107 135.495 83.8848C135.553 83.8589 135.599 83.8115 135.622 83.7526C135.634 83.7232 135.64 83.6917 135.639 83.6601C135.638 83.6284 135.631 83.5972 135.618 83.5683C135.605 83.5394 135.587 83.5133 135.564 83.4917C135.541 83.4701 135.513 83.4533 135.484 83.4423C135.118 83.3246 134.73 83.2967 134.352 83.3611C133.974 83.4254 133.617 83.5802 133.311 83.8121C133.26 83.8503 133.226 83.9068 133.216 83.9697C133.206 84.0326 133.222 84.0969 133.258 84.1488C133.281 84.1802 133.311 84.2056 133.345 84.2228C133.38 84.2401 133.418 84.2487 133.456 84.2479Z" fill="#263238"/>
<path d="M121.908 91.0624C122.568 94.6149 123.294 101.119 120.811 103.483C120.811 103.483 121.782 107.082 128.379 107.082C135.642 107.082 131.839 103.483 131.839 103.483C127.877 102.539 127.989 99.6069 128.676 96.8468L121.908 91.0624Z" fill="#FFB573"/>
<path d="M119.861 104.718C119.346 103.582 118.771 102.275 119.953 101.865C121.274 101.416 128.385 100.961 130.842 101.806C131.166 101.896 131.469 102.049 131.733 102.256C131.998 102.464 132.218 102.722 132.382 103.016C132.546 103.309 132.65 103.633 132.688 103.967C132.727 104.301 132.698 104.639 132.605 104.962L119.861 104.718Z" fill="#263238"/>
<path d="M111.257 104.876C107.011 106.804 104.37 121.424 104.37 121.424L112.696 124.065C114.332 120.205 115.692 116.233 116.764 112.179C118.276 106.078 115.602 102.909 111.257 104.876Z" fill="#223C6A"/>
<path d="M162.953 141.075H168.077L167.179 147.203C167.179 147.203 163.164 147.057 161.342 144.033L162.953 141.075Z" fill="#FFB573"/>
<path d="M172.897 143.208L170.322 147.942L167.152 147.216L168.05 141.088L172.897 143.208Z" fill="#FFB573"/>
<path d="M121.208 85.6543C121.518 90.6992 121.446 93.6706 123.994 96.259C127.824 100.155 134.051 97.8438 135.253 92.8056C136.342 88.2758 135.649 80.7878 130.71 78.7804C129.623 78.3328 128.441 78.1702 127.274 78.3082C126.107 78.4462 124.995 78.8801 124.043 79.5688C123.091 80.2575 122.331 81.1781 121.834 82.2431C121.338 83.3082 121.123 84.4824 121.208 85.6543Z" fill="#FFB573"/>
<path d="M120.626 92.5151C120.626 92.5151 116.057 85.661 117.048 81.1906C117.952 77.1033 127.177 75.644 131.007 76.0534C135.074 76.4958 136.659 78.2456 134.427 81.7717C133.11 82.3959 131.725 82.8657 130.3 83.1716C130.3 83.1716 132.565 85.9515 132.585 87.7938C131.924 88.1372 129.884 88.956 129.884 88.956C129.884 88.956 126.992 96.094 126.906 96.0808C125.79 95.9487 123.208 95.9091 122.284 96.2591C121.629 95.059 121.074 93.8067 120.626 92.5151Z" fill="#263238"/>
<path d="M127.883 88.2165C128.216 89.4232 128.935 90.4877 129.93 91.2473C131.251 92.2378 132.235 91.3002 132.136 89.8144C132.05 88.4938 131.258 86.361 129.805 85.945C128.352 85.529 127.5 86.7572 127.883 88.2165Z" fill="#FFB573"/>
<path opacity="0.3" d="M127.434 160.317C120.943 161.822 122.152 185.303 123.4 198.688C123.459 198.384 123.505 198.1 123.558 197.823C125.169 189.014 127.474 172.598 129.078 160.752C128.579 160.464 128.011 160.313 127.434 160.317Z" fill="black"/>
<path d="M133.714 270.398C134.335 270.398 134.936 270.312 135.141 270.035C135.193 269.962 135.222 269.874 135.222 269.784C135.222 269.694 135.193 269.606 135.141 269.533C135.102 269.466 135.049 269.407 134.987 269.36C134.924 269.314 134.853 269.28 134.777 269.262C133.972 269.044 132.275 270.008 132.202 270.055C132.182 270.066 132.166 270.084 132.157 270.106C132.147 270.127 132.145 270.151 132.149 270.173C132.154 270.196 132.165 270.217 132.182 270.234C132.198 270.25 132.219 270.261 132.242 270.266C132.728 270.351 133.221 270.395 133.714 270.398ZM134.487 269.46C134.559 269.45 134.633 269.45 134.705 269.46C134.751 269.469 134.795 269.488 134.834 269.516C134.873 269.543 134.905 269.578 134.929 269.619C135.015 269.764 134.982 269.837 134.929 269.876C134.705 270.187 133.477 270.193 132.572 270.068C133.165 269.743 133.815 269.536 134.487 269.46Z" fill="#223C6A"/>
<path d="M132.248 270.266H132.294C132.882 270.002 134.044 268.945 133.952 268.404C133.952 268.272 133.839 268.113 133.522 268.08C133.405 268.066 133.285 268.076 133.172 268.11C133.058 268.144 132.953 268.201 132.862 268.278C132.241 268.787 132.116 270.094 132.109 270.147C132.107 270.167 132.11 270.188 132.118 270.206C132.126 270.225 132.139 270.241 132.156 270.253C132.184 270.269 132.217 270.274 132.248 270.266ZM133.43 268.285H133.503C133.707 268.285 133.721 268.384 133.727 268.41C133.78 268.741 132.988 269.566 132.407 269.923C132.467 269.369 132.698 268.847 133.067 268.43C133.17 268.348 133.298 268.301 133.43 268.298V268.285Z" fill="#223C6A"/>
<path d="M126.913 270.154H131.766L132.248 258.915H127.401L126.913 270.154Z" fill="#FFB573"/>
<path d="M131.733 269.593H126.451C126.354 269.593 126.261 269.626 126.185 269.686C126.11 269.745 126.057 269.829 126.035 269.923L125.077 274.235C125.054 274.339 125.055 274.446 125.08 274.55C125.104 274.654 125.152 274.75 125.22 274.833C125.287 274.916 125.372 274.982 125.468 275.027C125.565 275.072 125.67 275.094 125.777 275.093C127.685 275.093 130.445 274.954 132.849 274.954C135.662 274.954 138.085 275.106 141.38 275.106C143.361 275.106 143.923 273.092 143.091 272.907C139.294 272.082 136.197 271.989 132.915 269.969C132.564 269.735 132.155 269.605 131.733 269.593Z" fill="#263238"/>
<path opacity="0.2" d="M132.248 258.922L131.997 264.713H127.144L127.394 258.922H132.248Z" fill="black"/>
<path d="M139.591 146.76C139.591 146.76 140.251 183.031 139.73 197.822C139.182 213.208 133.787 263.59 133.787 263.59H125.592C125.592 263.59 125.288 214.106 124.932 198.998C124.529 182.49 122.542 146.76 122.542 146.76H139.591Z" fill="#263238"/>
<path d="M135.391 260.315C135.424 260.315 134.923 263.729 134.923 263.729H124.932L124.655 260.685L135.391 260.315Z" fill="#223C6A"/>
<path d="M139.3 104.83C139.3 104.83 145.124 113.705 140.245 149.804H112.841C112.663 145.842 115.971 123.345 112.128 104.579C114.996 104.027 117.896 103.661 120.811 103.483C124.484 103.272 128.166 103.272 131.839 103.483C134.357 103.737 136.852 104.187 139.3 104.83Z" fill="#223C6A"/>
<path opacity="0.2" d="M142.193 123.299L136.448 113.777C136.448 113.777 138.607 127.274 141.915 133.362C142.14 129.552 142.219 126.211 142.193 123.299Z" fill="black"/>
<path d="M144.642 111.776C145.587 114.794 146.623 117.884 147.687 120.909C148.75 123.933 149.859 126.937 151.074 129.823L151.536 130.893C151.576 130.972 151.611 131.054 151.642 131.137C151.669 131.198 151.7 131.258 151.734 131.315C152.027 131.753 152.368 132.156 152.751 132.517C153.793 133.487 154.913 134.371 156.099 135.158C157.34 136.017 158.654 136.849 160.008 137.635C161.362 138.42 162.762 139.226 164.095 139.919L161.527 145.915C158.276 144.722 155.122 143.283 152.091 141.61C150.469 140.704 148.923 139.669 147.469 138.513C146.602 137.814 145.816 137.021 145.124 136.149C144.926 135.865 144.735 135.614 144.543 135.297C144.352 134.98 144.141 134.584 144.081 134.452L143.5 133.296C141.988 130.219 140.634 127.142 139.386 124.052C138.138 120.962 136.976 117.851 135.86 114.636L144.642 111.776Z" fill="#223C6A"/>
<path d="M132.829 107.022C131.132 111.341 141.453 128.727 141.453 128.727L148.168 122.302C148.168 122.302 146.702 116.841 144.748 110.264C142.82 103.8 134.447 102.895 132.829 107.022Z" fill="#223C6A"/>
</g>
<defs>
<clipPath id="clip0_1_2304">
<rect width="330.159" height="330.159" fill="white" transform="translate(0.514648 0.255615)"/>
</clipPath>
</defs>
</svg>
