<svg width="329" height="355" viewBox="0 0 329 355" fill="none" xmlns="http://www.w3.org/2000/svg">
<g clip-path="url(#clip0_1_1960)">
<path d="M328.275 267.01H0.378357V267.187H328.275V267.01Z" fill="#EBEBEB"/>
<path d="M295.42 278.385H273.7V278.562H295.42V278.385Z" fill="#EBEBEB"/>
<path d="M217.59 280.308H211.891V280.485H217.59V280.308Z" fill="#EBEBEB"/>
<path d="M273.044 271.824H260.459V272.001H273.044V271.824Z" fill="#EBEBEB"/>
<path d="M63.1052 273.012H34.7814V273.189H63.1052V273.012Z" fill="#EBEBEB"/>
<path d="M73.0994 273.012H68.9482V273.189H73.0994V273.012Z" fill="#EBEBEB"/>
<path d="M148.031 275.996H86.5958V276.172H148.031V275.996Z" fill="#EBEBEB"/>
<path d="M155.801 235.479H29.1743C28.1823 235.477 27.2316 235.051 26.5307 234.294C25.8299 233.537 25.4363 232.511 25.4363 231.442V39.5472C25.4363 38.4778 25.8299 37.4521 26.5307 36.6952C27.2316 35.9384 28.1823 35.5122 29.1743 35.5104H155.801C156.795 35.5104 157.747 35.9357 158.449 36.6927C159.152 37.4498 159.546 38.4766 159.546 39.5472V231.442C159.546 232.513 159.152 233.539 158.449 234.296C157.747 235.053 156.795 235.479 155.801 235.479ZM29.1743 35.6871C28.2258 35.689 27.3167 36.0965 26.6467 36.8202C25.9766 37.5439 25.6002 38.5247 25.6002 39.5472V231.442C25.6002 232.464 25.9766 233.445 26.6467 234.169C27.3167 234.893 28.2258 235.3 29.1743 235.302H155.801C156.751 235.3 157.66 234.893 158.331 234.169C159.003 233.446 159.38 232.465 159.382 231.442V39.5472C159.38 38.524 159.003 37.5433 158.331 36.8198C157.66 36.0963 156.751 35.689 155.801 35.6871H29.1743Z" fill="#EBEBEB"/>
<path d="M297.656 235.479H171.022C170.03 235.477 169.078 235.051 168.376 234.294C167.675 233.538 167.279 232.512 167.278 231.442V39.5472C167.279 38.4772 167.675 37.4515 168.376 36.6948C169.078 35.9382 170.03 35.5122 171.022 35.5104H297.656C298.647 35.5141 299.596 35.9411 300.295 36.6977C300.995 37.4544 301.388 38.479 301.388 39.5472V231.442C301.388 232.51 300.995 233.535 300.295 234.291C299.596 235.048 298.647 235.475 297.656 235.479ZM171.022 35.6871C170.073 35.689 169.163 36.0963 168.492 36.8198C167.821 37.5433 167.443 38.524 167.442 39.5472V231.442C167.443 232.465 167.821 233.446 168.492 234.169C169.163 234.893 170.073 235.3 171.022 235.302H297.656C298.605 235.3 299.515 234.893 300.186 234.169C300.857 233.446 301.235 232.465 301.237 231.442V39.5472C301.235 38.524 300.857 37.5433 300.186 36.8198C299.515 36.0963 298.605 35.689 297.656 35.6871H171.022Z" fill="#EBEBEB"/>
<path d="M209.025 261.602C206.703 263.863 204.827 266.607 203.51 269.668C201.372 259.827 195.083 252.786 195.083 252.786C197.691 258.517 199.234 264.741 199.628 271.11C198.316 266.911 195.608 265.716 195.608 265.716C197.628 269.894 196.887 275.473 196.887 275.473H206.199C206.092 270.671 207.061 265.913 209.025 261.602Z" fill="#F0F0F0"/>
<path d="M286.396 277.282C286.696 272.461 287.865 267.749 289.839 263.411C286.791 267.061 284.602 271.447 283.458 276.201C282.459 273.882 281.038 271.802 279.281 270.085C280.769 273.348 281.502 276.95 281.419 280.584H288.469C288.469 280.584 287.911 276.342 289.439 273.196C289.439 273.196 287.373 274.101 286.396 277.282Z" fill="#F0F0F0"/>
<path d="M42.2183 274.638C41.9269 270.081 40.8131 265.628 38.9393 261.531C41.8225 264.979 43.8921 269.126 44.9726 273.62C45.9119 271.428 47.2499 269.461 48.9074 267.837C47.5065 270.914 46.8115 274.308 46.881 277.735H40.2575C40.2575 277.735 40.7887 273.747 39.3394 270.75C40.0411 271.15 40.6588 271.702 41.1541 272.371C41.6494 273.04 42.0117 273.812 42.2183 274.638Z" fill="#F0F0F0"/>
<path d="M193.746 235.097C188.63 205.849 183.161 162.087 166.353 161.154C140.849 159.74 144.174 204.28 130.009 203.403C115.844 202.526 114.854 135.109 87.9135 135.498C62.6392 135.859 52.0088 224.132 50.7891 235.097H193.746Z" fill="#E0E0E0"/>
<g style="mix-blend-mode:multiply">
<path d="M295.761 208.43V196.369H172.485V208.43H295.761Z" fill="#E0E0E0"/>
</g>
<path d="M194.034 189.377H182.847V249.986H194.034V189.377Z" fill="#F0F0F0"/>
<path d="M217.177 189.377H205.989V249.986H217.177V189.377Z" fill="#F0F0F0"/>
<path d="M240.314 189.377H229.126V249.986H240.314V189.377Z" fill="#F0F0F0"/>
<path d="M263.45 189.377H252.262V249.986H263.45V189.377Z" fill="#F0F0F0"/>
<path d="M286.586 189.377H275.398V249.986H286.586V189.377Z" fill="#F0F0F0"/>
<path d="M189.948 202.032C189.948 201.71 189.86 201.396 189.694 201.128C189.529 200.861 189.293 200.652 189.017 200.529C188.742 200.406 188.439 200.374 188.146 200.437C187.853 200.5 187.585 200.654 187.374 200.882C187.163 201.109 187.019 201.399 186.961 201.714C186.903 202.03 186.933 202.357 187.047 202.654C187.161 202.951 187.354 203.205 187.602 203.384C187.85 203.562 188.142 203.658 188.44 203.658C188.84 203.658 189.224 203.486 189.507 203.181C189.79 202.877 189.948 202.463 189.948 202.032Z" fill="#F9F9F9"/>
<path d="M213.085 202.032C213.085 201.71 212.996 201.395 212.83 201.128C212.664 200.86 212.428 200.652 212.152 200.529C211.876 200.406 211.573 200.374 211.28 200.437C210.987 200.501 210.719 200.656 210.508 200.884C210.297 201.113 210.154 201.403 210.097 201.719C210.039 202.035 210.07 202.362 210.185 202.659C210.3 202.956 210.495 203.209 210.744 203.387C210.992 203.565 211.285 203.659 211.583 203.658C211.982 203.656 212.364 203.484 212.646 203.179C212.927 202.874 213.085 202.462 213.085 202.032Z" fill="#F9F9F9"/>
<path d="M236.228 202.032C236.228 201.71 236.139 201.396 235.974 201.128C235.808 200.861 235.572 200.652 235.297 200.529C235.021 200.406 234.718 200.374 234.425 200.437C234.133 200.5 233.864 200.654 233.653 200.882C233.442 201.109 233.298 201.399 233.24 201.714C233.182 202.03 233.212 202.357 233.326 202.654C233.44 202.951 233.634 203.205 233.882 203.384C234.13 203.562 234.421 203.658 234.72 203.658C235.12 203.658 235.503 203.486 235.786 203.181C236.069 202.877 236.228 202.463 236.228 202.032Z" fill="#F9F9F9"/>
<path d="M259.364 202.032C259.364 201.71 259.276 201.396 259.11 201.128C258.944 200.861 258.709 200.652 258.433 200.529C258.157 200.406 257.854 200.374 257.561 200.437C257.269 200.5 257 200.654 256.789 200.882C256.578 201.109 256.435 201.399 256.376 201.714C256.318 202.03 256.348 202.357 256.462 202.654C256.576 202.951 256.77 203.205 257.018 203.384C257.266 203.562 257.557 203.658 257.856 203.658C258.256 203.658 258.639 203.486 258.922 203.181C259.205 202.877 259.364 202.463 259.364 202.032Z" fill="#F9F9F9"/>
<path d="M282.501 202.032C282.501 201.71 282.412 201.396 282.247 201.128C282.081 200.861 281.845 200.652 281.57 200.529C281.294 200.406 280.991 200.374 280.698 200.437C280.406 200.5 280.137 200.654 279.926 200.882C279.715 201.109 279.571 201.399 279.513 201.714C279.455 202.03 279.485 202.357 279.599 202.654C279.713 202.951 279.907 203.205 280.155 203.384C280.403 203.562 280.694 203.658 280.993 203.658C281.393 203.658 281.776 203.486 282.059 203.181C282.342 202.877 282.501 202.463 282.501 202.032Z" fill="#F9F9F9"/>
<path d="M109.811 208.437V196.376H32.6367V208.437H109.811Z" fill="#E0E0E0"/>
<g style="mix-blend-mode:multiply" opacity="0.3">
<path d="M295.761 208.43V196.369H172.485V208.43H295.761Z" fill="#E0E0E0"/>
</g>
<g style="mix-blend-mode:multiply" opacity="0.3">
<path d="M109.811 208.437V196.376H32.6367V208.437H109.811Z" fill="#E0E0E0"/>
</g>
<path d="M54.1861 189.377H42.9983V249.986H54.1861V189.377Z" fill="#F0F0F0"/>
<path d="M77.3229 189.377H66.135V249.986H77.3229V189.377Z" fill="#F0F0F0"/>
<path d="M100.466 189.377H89.2777V249.986H100.466V189.377Z" fill="#F0F0F0"/>
<path d="M50.1009 202.032C50.1009 201.71 50.0124 201.396 49.8467 201.128C49.6809 200.861 49.4454 200.652 49.1698 200.529C48.8942 200.406 48.5909 200.374 48.2983 200.437C48.0057 200.5 47.737 200.654 47.526 200.882C47.3151 201.109 47.1714 201.399 47.1132 201.714C47.055 202.03 47.0849 202.357 47.199 202.654C47.3132 202.951 47.5065 203.205 47.7546 203.384C48.0026 203.562 48.2942 203.658 48.5926 203.658C48.9926 203.658 49.3762 203.486 49.6591 203.181C49.942 202.877 50.1009 202.463 50.1009 202.032Z" fill="#F9F9F9"/>
<path d="M73.237 202.032C73.237 201.71 73.1485 201.396 72.9828 201.128C72.8171 200.861 72.5815 200.652 72.3059 200.529C72.0303 200.406 71.727 200.374 71.4344 200.437C71.1418 200.5 70.8731 200.654 70.6621 200.882C70.4512 201.109 70.3075 201.399 70.2493 201.714C70.1911 202.03 70.221 202.357 70.3352 202.654C70.4493 202.951 70.6426 203.205 70.8907 203.384C71.1387 203.562 71.4304 203.658 71.7287 203.658C72.1287 203.658 72.5124 203.486 72.7952 203.181C73.0781 202.877 73.237 202.463 73.237 202.032Z" fill="#F9F9F9"/>
<path d="M96.3735 202.032C96.3735 201.71 96.285 201.396 96.1193 201.128C95.9535 200.861 95.718 200.652 95.4424 200.529C95.1667 200.406 94.8635 200.374 94.5709 200.437C94.2783 200.5 94.0095 200.654 93.7986 200.882C93.5877 201.109 93.444 201.399 93.3858 201.714C93.3276 202.03 93.3575 202.357 93.4716 202.654C93.5858 202.951 93.7791 203.205 94.0272 203.384C94.2752 203.562 94.5668 203.658 94.8651 203.658C95.0632 203.658 95.2594 203.616 95.4424 203.534C95.6253 203.452 95.7916 203.332 95.9317 203.181C96.0717 203.03 96.1829 202.851 96.2587 202.654C96.3345 202.457 96.3735 202.245 96.3735 202.032Z" fill="#F9F9F9"/>
<path d="M284.993 108.598C285.082 108.044 285.128 107.484 285.131 106.922C285.136 105.369 284.827 103.834 284.225 102.423C283.622 101.013 282.741 99.7611 281.643 98.7563C280.544 97.7515 279.256 97.0176 277.867 96.6061C276.478 96.1946 275.022 96.1154 273.602 96.374C272.465 94.3296 270.797 92.6891 268.805 91.6549C266.812 90.6208 264.583 90.2384 262.391 90.555C260.199 90.8716 258.142 91.8732 256.472 93.4363C254.803 94.9994 253.594 97.0554 252.997 99.3504C251.896 98.9847 250.731 98.9022 249.595 99.1097C248.459 99.3171 247.384 99.8086 246.456 100.545C245.529 101.281 244.774 102.241 244.253 103.349C243.731 104.456 243.458 105.68 243.455 106.922C243.458 107.485 243.515 108.047 243.625 108.598H284.993Z" fill="#F0F0F0"/>
<path d="M121.255 85.5269C123.86 70.9421 115.004 56.8419 101.476 54.0333C87.9466 51.2247 74.8672 60.7712 72.2619 75.3561C69.6567 89.9409 78.5121 104.041 92.041 106.85C105.57 109.658 118.649 100.112 121.255 85.5269Z" fill="#F0F0F0"/>
<path opacity="0.1" d="M121.255 85.5269C123.86 70.9421 115.004 56.8419 101.476 54.0333C87.9466 51.2247 74.8672 60.7712 72.2619 75.3561C69.6567 89.9409 78.5121 104.041 92.041 106.85C105.57 109.658 118.649 100.112 121.255 85.5269Z" fill="black"/>
<path d="M87.1529 78.8622C87.2389 78.2941 87.285 77.7199 87.2906 77.1443C87.2906 74.2298 86.2184 71.4342 84.3092 69.3707C82.4 67.3072 79.8096 66.1441 77.1061 66.1367C76.5522 66.1382 75.9993 66.1903 75.4535 66.2922C74.2872 64.1774 72.5703 62.4785 70.516 61.4067C68.4617 60.3349 66.1606 59.9374 63.8985 60.2635C61.6365 60.5896 59.5131 61.625 57.7922 63.241C56.0713 64.8571 54.8288 66.9825 54.2189 69.3534C52.9564 68.9298 51.6129 68.8703 50.3224 69.1806C49.0319 69.491 47.8393 70.1605 46.8635 71.1224C45.8876 72.0843 45.1626 73.305 44.7606 74.663C44.3586 76.0209 44.2936 77.4688 44.5722 78.8622H87.1529Z" fill="#F0F0F0"/>
<path d="M110.394 93.0229C110.258 92.1495 110.301 91.2546 110.521 90.401C110.74 89.5475 111.129 88.756 111.663 88.0822C112.196 87.4084 112.859 86.8687 113.607 86.5009C114.354 86.133 115.167 85.9461 115.988 85.9531C116.298 85.955 116.608 85.9858 116.913 86.045C117.559 84.8657 118.512 83.9174 119.654 83.3185C120.797 82.7197 122.077 82.4969 123.336 82.6779C124.596 82.8588 125.777 83.4356 126.734 84.3362C127.691 85.2368 128.381 86.4213 128.717 87.7418C129.347 87.53 130.013 87.4808 130.664 87.5981C131.314 87.7154 131.93 87.996 132.461 88.4172C132.992 88.8383 133.424 89.3883 133.721 90.0226C134.019 90.6569 134.174 91.3577 134.173 92.0685C134.173 92.3915 134.142 92.7137 134.082 93.03L110.394 93.0229Z" fill="#F0F0F0"/>
<path d="M66.1349 113.419C62.9084 112.111 56.757 110.712 53.8191 117.187C53.8191 117.187 57.1899 114.36 62.8625 115.024C62.6351 115.449 62.4994 115.924 62.4653 116.414C62.4312 116.903 62.4998 117.395 62.6658 117.852L66.1677 115.766H66.2202C73.8011 113.341 78.4573 117.244 78.4573 117.244C75.5127 110.712 69.3614 112.111 66.1349 113.419Z" fill="#F0F0F0"/>
<path d="M164.327 303.002C234.551 303.002 291.479 299.419 291.479 294.999C291.479 290.579 234.551 286.996 164.327 286.996C94.1029 286.996 37.175 290.579 37.175 294.999C37.175 299.419 94.1029 303.002 164.327 303.002Z" fill="#F5F5F5"/>
<path d="M243.054 84.9733C252.216 83.9595 259.447 81.0722 259.204 78.5242C258.962 75.9762 251.337 74.7325 242.175 75.7462C233.013 76.76 225.782 79.6473 226.025 82.1953C226.267 84.7433 233.891 85.987 243.054 84.9733Z" fill="#223C6A"/>
<path opacity="0.35" d="M250.236 76.4231C250.295 76.4231 251.79 76.5079 251.547 76.9675C251.305 77.427 250.052 77.3068 250.052 77.3068L250.236 76.4231Z" fill="black"/>
<path opacity="0.35" d="M233.926 78.2047C233.926 78.2047 232.667 78.438 232.936 79.2581C233.205 80.0782 235.854 79.6823 235.854 79.6823L235.199 78.5865L233.926 78.2047Z" fill="black"/>
<path d="M214.823 143.028L205.465 133.377C205.459 132.147 205.047 130.96 204.304 130.026C203.085 128.612 197.635 126.604 197.281 127.064C196.927 127.524 196.422 133.208 197.032 133.759C197.642 134.31 203.144 136.728 203.144 136.728L210.443 147.071L214.823 143.028Z" fill="#FFB573"/>
<path d="M232.47 103.585L228.863 105.798C224.83 113.44 215.852 130.323 213.124 135.491C213.024 135.681 212.886 135.846 212.721 135.973C212.556 136.101 212.367 136.188 212.167 136.229C211.968 136.27 211.762 136.264 211.565 136.211C211.368 136.158 211.184 136.059 211.026 135.922L208.783 134.006L203.773 141.486C203.773 141.486 211.216 149.843 213.76 149.016C218.639 147.411 231.362 124.208 231.362 124.208L232.47 103.585Z" fill="#223C6A"/>
<path opacity="0.4" d="M226.09 116.671C226.09 116.671 221.499 132.854 221.657 140.546C224.227 136.636 226.785 132.288 228.628 129.051L226.09 116.671Z" fill="black"/>
<path d="M229.29 285.667L223.814 286.289L220.804 256.052L229.29 255.119V285.667Z" fill="#FFB573"/>
<path opacity="0.2" d="M221.138 259.417C223.224 259.332 226.732 259.141 229.29 259V255.119L220.804 256.052L221.138 259.417Z" fill="#263238"/>
<path d="M256.59 285.236H251.291L247.232 252.333L255.482 251.209L256.59 285.236Z" fill="#FFB573"/>
<path opacity="0.2" d="M247.488 254.397L248.012 258.668L255.698 257.855L255.482 251.209L247.855 252.248L247.488 254.397Z" fill="#263238"/>
<path d="M258.847 106.067C257.291 112.231 256.166 118.513 255.482 124.858C255.266 126.802 255.082 128.718 254.931 130.571C254.735 132.925 254.604 135.194 254.492 137.351C254.361 140.072 254.322 143.296 254.328 146.471C254.328 153.752 254.61 160.759 254.61 160.759C249.213 162.172 233.625 161.246 225.099 160.575C224.096 151.793 223.833 142.931 224.312 134.098C224.594 128.257 225.187 122.439 226.09 116.671C226.548 113.597 227.183 110.555 227.991 107.566C228.303 106.505 228.891 105.563 229.685 104.852C230.479 104.142 231.446 103.692 232.471 103.557C233.5 103.423 234.694 103.281 235.953 103.204C236.438 103.204 236.923 103.154 237.415 103.14C241.439 103.194 245.457 103.496 249.449 104.045C250.203 104.137 250.97 104.264 251.718 104.391C254.12 104.815 256.499 105.374 258.847 106.067Z" fill="#223C6A"/>
<path d="M234.005 78.24C234.005 78.24 232.785 85.1896 236.661 88.2225C240.536 91.2555 240.543 76.5857 240.543 76.5857L234.005 78.24Z" fill="#F5F5F5"/>
<path d="M234.005 78.24C234.005 78.24 232.785 85.1896 236.661 88.2225C240.536 91.2555 240.543 76.5857 240.543 76.5857L234.005 78.24Z" fill="#263238"/>
<path d="M249.455 104.038C246.872 106.569 240.543 105.628 240.543 105.628C240.543 105.628 236.609 104.469 237.422 103.133C239.75 102.723 240.878 101.549 241.356 100.05C241.609 99.122 241.69 98.1489 241.593 97.187C241.553 96.6568 241.481 96.1195 241.396 95.5893L249.219 89.3396C248.183 93.4613 246.957 101.047 249.455 104.038Z" fill="#FFB573"/>
<path opacity="0.2" d="M247.396 93.3412C247.088 98.4031 243.232 99.7959 241.343 100.079C241.596 99.1504 241.676 98.1773 241.579 97.2154L247.396 93.3412Z" fill="black"/>
<path d="M247.921 94.4793C247.109 95.7779 245.925 96.7528 244.549 97.2537C243.173 97.7545 241.682 97.7534 240.307 97.2506C238.516 96.641 237.008 95.3188 236.09 93.5532C235.963 93.3075 235.847 93.055 235.743 92.7967C233.834 87.9822 233.224 79.5621 237.946 76.4019C238.987 75.7065 240.175 75.3082 241.398 75.2446C242.621 75.181 243.84 75.4542 244.938 76.0384C246.036 76.6226 246.978 77.4985 247.676 78.5838C248.373 79.669 248.803 80.9278 248.924 82.2415C249.508 87.8691 250.098 91.1494 247.921 94.4793Z" fill="#FFB573"/>
<path d="M242.367 78.5863C242.659 78.3845 243.003 78.2867 243.349 78.3067C243.696 78.3266 244.028 78.4633 244.299 78.6975C244.57 78.9318 244.766 79.2517 244.859 79.6122C244.952 79.9727 244.938 80.3558 244.819 80.7073C244.314 82.8918 245.475 90.209 247.764 87.0701C247.764 87.0701 247.705 86.1581 248.42 86.2783C249.134 86.3984 249.488 91.1281 248.361 93.553C248.361 93.553 250.216 91.2483 250.833 86.1581C251.449 81.0678 251.062 77.0098 249.77 75.617C248.479 74.2243 248.138 75.6736 247.18 73.7365C246.223 71.7994 238.445 71.6156 234.294 76.6916C233.526 77.6178 233.107 83.5635 242.367 78.5863Z" fill="#263238"/>
<path d="M241.317 85.2532C241.422 85.6986 241.225 86.1158 240.95 86.1652C240.674 86.2147 240.392 85.8825 240.294 85.4583C240.195 85.0341 240.386 84.5958 240.661 84.5463C240.936 84.4968 241.245 84.7937 241.317 85.2532Z" fill="#263238"/>
<path d="M236.549 86.1299C236.654 86.5753 236.458 86.9924 236.182 87.0419C235.907 87.0914 235.625 86.7591 235.526 86.3349C235.428 85.9108 235.625 85.4724 235.894 85.423C236.163 85.3735 236.464 85.6987 236.549 86.1299Z" fill="#263238"/>
<path d="M237.953 85.3876C237.669 86.8647 237.197 88.2923 236.549 89.6294C237.205 89.9759 238.084 90.3364 238.753 90.0324L237.953 85.3876Z" fill="#FFB573"/>
<path opacity="0.35" d="M249.764 75.617C248.813 74.5919 248.38 75.1009 247.836 74.6768L243.383 76.0907C243.429 76.0907 248.308 75.921 250.983 79.2297C250.787 77.5612 250.38 76.2816 249.764 75.617Z" fill="black"/>
<path d="M251.915 86.4057C251.54 87.7741 250.677 88.926 249.514 89.6083C247.973 90.499 246.819 89.1134 246.924 87.3247C247.029 85.734 247.947 83.3091 249.659 83.1677C251.37 83.0263 252.354 84.716 251.915 86.4057Z" fill="#FFB573"/>
<path d="M205.38 108.485L199.576 107.792L198.638 103.232L207.216 104.264L205.38 108.485Z" fill="black"/>
<path d="M192.303 205.885H192.237C191.941 205.849 191.67 205.689 191.483 205.438C191.297 205.188 191.209 204.868 191.241 204.549L202.074 99.6262L204.376 99.9019L193.542 204.817C193.508 205.135 193.358 205.426 193.126 205.626C192.894 205.826 192.598 205.919 192.303 205.885Z" fill="#263238"/>
<path d="M219.663 81.7253C217.846 84.812 216.517 88.2019 215.728 91.7573L214.233 98.5726C214.099 99.2105 213.758 99.7756 213.27 100.165C212.783 100.554 212.182 100.742 211.577 100.693L206.514 100.085C204.108 99.7956 204.475 97.6818 204.475 97.6818L208.534 79.357L207.878 80.4952C206.061 83.5838 204.731 86.9763 203.944 90.5343L202.363 97.8515C202.173 98.4453 201.556 99.5129 199.53 99.2654L196.33 98.8836H196.264C196.008 98.8417 195.763 98.7426 195.545 98.5928C195.326 98.443 195.139 98.2457 194.995 98.0135C194.851 97.7813 194.754 97.5193 194.71 97.2443C194.665 96.9693 194.674 96.6873 194.736 96.4163L198.815 78.0349L198.159 79.1661C196.342 82.2547 195.012 85.6472 194.225 89.2051L192.257 98.2262V98.3534C192.078 100.19 192.577 102.029 193.646 103.473C194.715 104.916 196.268 105.848 197.969 106.067L208.587 107.339C210.288 107.543 211.994 107.014 213.336 105.87C214.678 104.725 215.547 103.055 215.754 101.224L220.345 80.5871L219.663 81.7253Z" fill="#223C6A"/>
<path opacity="0.5" d="M219.663 81.7253C217.846 84.812 216.517 88.2019 215.728 91.7573L214.233 98.5726C214.099 99.2105 213.758 99.7756 213.27 100.165C212.783 100.554 212.182 100.742 211.577 100.693L206.514 100.085C204.108 99.7956 204.475 97.6818 204.475 97.6818L208.534 79.357L207.878 80.4952C206.061 83.5838 204.731 86.9763 203.944 90.5343L202.363 97.8515C202.173 98.4453 201.556 99.5129 199.53 99.2654L196.33 98.8836H196.264C196.008 98.8417 195.763 98.7426 195.545 98.5928C195.326 98.443 195.139 98.2457 194.995 98.0135C194.851 97.7813 194.754 97.5193 194.71 97.2443C194.665 96.9693 194.674 96.6873 194.736 96.4163L198.815 78.0349L198.159 79.1661C196.342 82.2547 195.012 85.6472 194.225 89.2051L192.257 98.2262V98.3534C192.078 100.19 192.577 102.029 193.646 103.473C194.715 104.916 196.268 105.848 197.969 106.067L208.587 107.339C210.288 107.543 211.994 107.014 213.336 105.87C214.678 104.725 215.547 103.055 215.754 101.224L220.345 80.5871L219.663 81.7253Z" fill="white"/>
<path d="M245.527 254.037L257.036 252.51C256.472 241.686 255.856 229.717 255.443 221.756C254.439 202.357 254.007 159.832 253.974 155.845H225.827C223.538 169.334 217.072 212.113 219.027 255.309L230.457 254.602C230.91 233.132 232.503 200.929 237.841 185.453C238.812 198.504 239.959 212.382 240.956 219.77C242.13 228.465 243.953 242.16 245.527 254.037Z" fill="#223C6A"/>
<path opacity="0.3" d="M245.528 254.037L257.037 252.51C256.473 241.686 255.856 229.717 255.443 221.756C254.61 205.644 254.171 173.576 254.027 160.893C254.223 160.85 254.42 160.808 254.597 160.758C254.597 160.758 254.328 153.752 254.315 146.47C254.315 143.296 254.315 140.072 254.479 137.35C254.591 135.194 254.722 132.925 254.918 130.57C255.069 128.718 255.253 126.802 255.469 124.858C256.158 118.512 257.287 112.23 258.847 106.067C256.557 105.407 254.236 104.876 251.895 104.476C247.639 109.623 245.37 123.168 245.37 123.168C241.344 123.232 230.031 121.896 230.031 121.896C231.008 108.52 233.723 104.221 234.412 103.38C233.723 103.451 233.068 103.528 232.445 103.606C231.42 103.741 230.453 104.191 229.659 104.902C228.865 105.612 228.277 106.554 227.965 107.615C227.157 110.605 226.522 113.646 226.064 116.721C225.158 122.478 224.56 128.288 224.273 134.119C223.795 142.914 224.054 151.738 225.047 160.483C222.358 177.45 217.23 216.235 218.994 255.331L230.431 254.624C230.884 233.153 232.477 200.95 237.815 185.474C238.786 198.525 239.934 212.403 240.93 219.791C242.131 228.465 243.954 242.16 245.528 254.037Z" fill="black"/>
<path opacity="0.35" d="M255.023 211.406C254.8 204.789 254.623 197.217 254.472 189.836L250.603 187.454C250.603 187.454 251.39 207.751 255.023 211.406Z" fill="black"/>
<path d="M218.817 257.522L231.598 256.518L231.474 252.715L218.194 253.514L218.817 257.522Z" fill="#223C6A"/>
<path d="M245.173 256.186L257.725 255.309L257.508 251.209L244.74 252.262L245.173 256.186Z" fill="#223C6A"/>
<path d="M233.474 289.435L231.703 283.263L231.598 264.733L219.873 265.511L222.089 284.076C220.587 285.78 216.915 287.76 211.957 289.386C210.855 289.753 211.433 292.652 214.18 292.411C216.928 292.171 222.922 291.415 224.916 291.238C228.142 290.955 230.031 290.955 232.608 290.778C232.679 290.772 232.75 290.758 232.818 290.736C232.94 290.697 233.054 290.632 233.154 290.546C233.253 290.46 233.335 290.353 233.396 290.232C233.457 290.111 233.495 289.979 233.508 289.842C233.522 289.705 233.51 289.567 233.474 289.435Z" fill="#263238"/>
<path d="M218.659 264.733L232.385 263.659V268.551L219.203 269.194L218.659 264.733Z" fill="#263238"/>
<path d="M260.794 289.973L259.024 283.801L258.919 265.271L247.193 266.048L249.41 284.607C247.914 286.317 244.235 288.29 239.278 289.923C238.176 290.291 238.753 293.189 241.507 292.949C244.262 292.709 250.243 291.952 252.236 291.775C255.469 291.493 257.351 291.493 259.929 291.316C260 291.309 260.07 291.295 260.138 291.273C260.261 291.234 260.375 291.17 260.474 291.083C260.573 290.997 260.656 290.89 260.716 290.77C260.777 290.649 260.816 290.516 260.829 290.379C260.842 290.243 260.83 290.104 260.794 289.973Z" fill="#263238"/>
<path d="M245.98 265.271L259.705 264.196V269.089L246.524 269.732L245.98 265.271Z" fill="#263238"/>
<path d="M229.677 128.633L231.756 129.227C234.943 130.124 238.237 130.501 241.527 130.344L244.275 130.21L242.426 138.906C242.255 139.823 241.775 140.639 241.079 141.198C240.382 141.757 239.519 142.018 238.655 141.931L232.871 141.352C231.998 141.262 231.187 140.825 230.596 140.126C230.006 139.426 229.678 138.515 229.677 137.569V128.633Z" fill="#223C6A"/>
<path opacity="0.2" d="M229.677 128.633L231.756 129.227C234.943 130.124 238.237 130.501 241.527 130.344L244.275 130.21L242.426 138.906C242.255 139.823 241.775 140.639 241.079 141.198C240.382 141.757 239.519 142.018 238.655 141.931L232.871 141.352C231.998 141.262 231.187 140.825 230.596 140.126C230.006 139.426 229.678 138.515 229.677 137.569V128.633Z" fill="black"/>
<path d="M267.497 193.442L266.29 193.145C266.595 191.702 266.746 190.227 266.742 188.748C266.742 181.996 263.732 176.51 260.034 176.51C256.335 176.51 253.331 181.996 253.331 188.783H252.092C252.092 181.303 255.659 175.209 260.034 175.209C264.408 175.209 267.975 181.303 267.975 188.783C267.978 190.35 267.818 191.913 267.497 193.442Z" fill="#263238"/>
<path d="M250.61 187.432L254.119 207.228C254.119 208.076 257.024 208.769 260.611 208.769C264.198 208.769 267.103 208.062 267.103 207.228L270.612 187.432H250.61Z" fill="#EBEBEB"/>
<path opacity="0.3" d="M250.61 187.432L254.119 207.228C254.119 208.076 257.024 208.769 260.611 208.769C264.198 208.769 267.103 208.062 267.103 207.228L270.612 187.432H250.61Z" fill="black"/>
<path d="M260.611 189.801C266.134 189.801 270.612 188.741 270.612 187.433C270.612 186.125 266.134 185.064 260.611 185.064C255.088 185.064 250.61 186.125 250.61 187.433C250.61 188.741 255.088 189.801 260.611 189.801Z" fill="#223C6A"/>
<path opacity="0.6" d="M260.611 189.801C266.134 189.801 270.612 188.741 270.612 187.433C270.612 186.125 266.134 185.064 260.611 185.064C255.088 185.064 250.61 186.125 250.61 187.433C250.61 188.741 255.088 189.801 260.611 189.801Z" fill="black"/>
<path opacity="0.35" d="M260.611 189.801C265.2 189.801 268.92 189.329 268.92 188.748C268.92 188.166 265.2 187.694 260.611 187.694C256.022 187.694 252.302 188.166 252.302 188.748C252.302 189.329 256.022 189.801 260.611 189.801Z" fill="black"/>
<path d="M266.867 194.644C267.732 194.644 268.434 193.887 268.434 192.954C268.434 192.021 267.732 191.264 266.867 191.264C266.001 191.264 265.299 192.021 265.299 192.954C265.299 193.887 266.001 194.644 266.867 194.644Z" fill="#F5F5F5"/>
<path opacity="0.4" d="M265.673 189.49C266.094 190.442 266.345 191.471 266.414 192.523L267.135 192.318L267.535 189.433V189.158C266.951 189.271 266.335 189.377 265.673 189.49Z" fill="black"/>
<path d="M260.61 175.223V176.559C264.04 177.097 266.742 182.357 266.742 188.748C266.743 190.01 266.633 191.269 266.414 192.509C266.383 192.678 266.414 192.854 266.501 192.999C266.587 193.144 266.723 193.247 266.88 193.286C267.041 193.317 267.207 193.282 267.345 193.188C267.483 193.094 267.584 192.947 267.627 192.777C267.86 191.449 267.976 190.1 267.975 188.748C267.975 181.6 264.722 175.732 260.61 175.223Z" fill="#263238"/>
<path d="M256.459 158.694L257.161 171.745C256.434 172.591 256.011 173.689 255.967 174.841C255.967 176.665 258.512 181.777 259.03 181.706C259.548 181.635 263.26 178.086 263.161 177.295C263.063 176.503 260.735 171.052 260.735 171.052L261.837 158.963L256.459 158.694Z" fill="#FFB573"/>
<path opacity="0.2" d="M237.842 185.432C236.457 189.704 235.404 194.093 234.694 198.553C233.907 186.945 237.055 174.636 237.055 174.636L237.842 185.432Z" fill="black"/>
<path d="M240.917 91.22C240.53 91.0318 240.099 90.9729 239.68 91.051C239.262 91.1292 238.875 91.3407 238.569 91.6583C238.544 91.6379 238.517 91.619 238.49 91.6018C238.081 91.4478 237.637 91.4331 237.22 91.5595C236.802 91.6859 236.431 91.9475 236.156 92.3088C234.923 93.7227 234.523 92.9663 234.523 92.9663C234.523 92.9663 235.356 95.37 237.605 93.8429C237.789 93.7156 237.953 93.5955 238.097 93.4823C238.3 93.323 238.534 93.2139 238.781 93.1626C239.028 93.1113 239.283 93.1191 239.526 93.1854C239.767 93.2454 240.014 93.2739 240.261 93.2702C242.333 93.2702 242.976 91.0079 242.976 91.0079C242.976 91.0079 242.615 91.927 240.917 91.22Z" fill="#263238"/>
<path d="M241.96 76.5645C245.045 76.1883 248.16 76.1883 251.246 76.5645C250.446 71.7712 247.2 68.9786 242.517 68.9786C237.271 68.9786 232.372 72.7256 232.372 78.3885C232.372 78.5228 232.372 78.6501 232.372 78.7773C235.472 77.6206 238.692 76.8775 241.96 76.5645Z" fill="#223C6A"/>
<path d="M245.96 79.76C245.842 79.859 237.225 82.5879 235.094 80.2408C232.962 77.8936 242.308 77.6603 242.308 77.6603L245.088 77.8794L245.96 79.76Z" fill="#263238"/>
<path d="M258.846 106.067C258.846 106.067 263.686 105.36 263.509 140.284C263.398 163.678 264.08 163.558 264.08 163.558L254.033 164.088C254.033 164.088 247.396 106.123 258.846 106.067Z" fill="#223C6A"/>
<path d="M252.59 160.744L265.017 160.603L265.103 164.067L252.774 164.428L252.59 160.744Z" fill="#223C6A"/>
<path opacity="0.5" d="M252.59 160.744L265.017 160.603L265.103 164.067L252.774 164.428L252.59 160.744Z" fill="#F9F9F9"/>
<path d="M208.265 132.175L210.383 133.95L203.923 143.077L201.963 141.168L208.265 132.175Z" fill="#223C6A"/>
<path opacity="0.5" d="M208.265 132.175L210.383 133.95L203.923 143.077L201.963 141.168L208.265 132.175Z" fill="#F9F9F9"/>
<path d="M239.743 83.3867C239.716 83.3786 239.691 83.3648 239.669 83.3461C239.648 83.3275 239.629 83.3043 239.616 83.278C239.603 83.2516 239.594 83.2227 239.591 83.1928C239.588 83.1629 239.591 83.1327 239.599 83.104C239.687 82.8485 239.841 82.6259 240.044 82.4629C240.246 82.2998 240.488 82.2033 240.74 82.1849C241.01 82.1215 241.292 82.1446 241.551 82.2513C241.809 82.3581 242.034 82.5438 242.196 82.7858C242.225 82.8376 242.235 82.8998 242.223 82.9593C242.211 83.0187 242.177 83.0706 242.13 83.104C242.081 83.1354 242.023 83.1448 241.968 83.1303C241.913 83.1157 241.865 83.0783 241.835 83.0262C241.714 82.862 241.553 82.7382 241.369 82.6694C241.186 82.6005 240.988 82.5894 240.799 82.6374C240.628 82.6469 240.462 82.7083 240.322 82.8146C240.182 82.9209 240.072 83.0678 240.005 83.2383C239.989 83.2954 239.952 83.3431 239.903 83.3709C239.854 83.3988 239.796 83.4044 239.743 83.3867Z" fill="#263238"/>
<path d="M234.189 84.1504H234.13C234.075 84.1324 234.029 84.0919 234.002 84.0375C233.975 83.9832 233.969 83.9196 233.985 83.8605C234.073 83.6051 234.228 83.3825 234.43 83.2195C234.633 83.0564 234.874 82.9599 235.126 82.9415C235.397 82.8799 235.678 82.9038 235.937 83.0104C236.195 83.117 236.419 83.3018 236.582 83.5424C236.598 83.5682 236.608 83.597 236.613 83.6273C236.617 83.6575 236.616 83.6884 236.609 83.7181C236.603 83.7479 236.59 83.7758 236.573 83.8003C236.556 83.8248 236.535 83.8453 236.51 83.8605C236.487 83.8769 236.46 83.8879 236.433 83.8929C236.405 83.8978 236.377 83.8966 236.35 83.8893C236.323 83.882 236.298 83.8688 236.276 83.8505C236.254 83.8321 236.235 83.8091 236.222 83.7828C236.1 83.6205 235.938 83.4986 235.755 83.4311C235.571 83.3635 235.374 83.3531 235.185 83.401C235.014 83.4082 234.849 83.468 234.708 83.5732C234.568 83.6784 234.458 83.8247 234.392 83.9949C234.378 84.0408 234.351 84.0807 234.314 84.1087C234.277 84.1367 234.234 84.1513 234.189 84.1504Z" fill="#263238"/>
<path d="M80.1489 208.705C80.1489 214.135 72.8368 223.821 67.8003 223.821C62.7638 223.821 61.8982 214.135 61.8982 208.705C61.8982 206.097 62.8593 203.596 64.57 201.752C66.2807 199.907 68.601 198.871 71.0203 198.871C73.4396 198.871 75.7598 199.907 77.4706 201.752C79.1813 203.596 80.1424 206.097 80.1424 208.705H80.1489Z" fill="#223C6A"/>
<path opacity="0.4" d="M80.1489 208.705C80.1489 214.135 72.8368 223.821 67.8003 223.821C62.7638 223.821 61.8982 214.135 61.8982 208.705C61.8982 206.097 62.8593 203.596 64.57 201.752C66.2807 199.907 68.601 198.871 71.0203 198.871C73.4396 198.871 75.7598 199.907 77.4706 201.752C79.1813 203.596 80.1424 206.097 80.1424 208.705H80.1489Z" fill="#F9F9F9"/>
<path d="M75.6172 197.175C74.9581 197.561 74.3912 198.107 73.9611 198.769C73.5309 199.432 73.2493 200.193 73.1383 200.992C73.8184 201.335 74.5634 201.501 75.3138 201.478C76.0641 201.455 76.7991 201.243 77.4599 200.859C78.1206 200.475 78.689 199.929 79.1194 199.266C79.5498 198.603 79.8305 197.841 79.9389 197.04C79.2579 196.701 78.5133 196.537 77.7634 196.56C77.0136 196.583 76.2789 196.794 75.6172 197.175Z" fill="#223C6A"/>
<path opacity="0.2" d="M75.6172 197.175C74.9581 197.561 74.3912 198.107 73.9611 198.769C73.5309 199.432 73.2493 200.193 73.1383 200.992C73.8184 201.335 74.5634 201.501 75.3138 201.478C76.0641 201.455 76.7991 201.243 77.4599 200.859C78.1206 200.475 78.689 199.929 79.1194 199.266C79.5498 198.603 79.8305 197.841 79.9389 197.04C79.2579 196.701 78.5133 196.537 77.7634 196.56C77.0136 196.583 76.2789 196.794 75.6172 197.175Z" fill="#F9F9F9"/>
<path d="M70.9349 199.621C71.1832 200.019 71.5138 200.349 71.9007 200.586C72.2877 200.823 72.7203 200.959 73.1646 200.985C73.3145 200.534 73.3644 200.051 73.3103 199.575C73.2562 199.099 73.0996 198.643 72.853 198.244C72.6064 197.845 72.2767 197.514 71.8901 197.276C71.5036 197.039 71.0709 196.903 70.6267 196.878C70.4771 197.329 70.427 197.812 70.4805 198.288C70.534 198.765 70.6896 199.221 70.9349 199.621Z" fill="#223C6A"/>
<path opacity="0.2" d="M70.9349 199.621C71.1832 200.019 71.5138 200.349 71.9007 200.586C72.2877 200.823 72.7203 200.959 73.1646 200.985C73.3145 200.534 73.3644 200.051 73.3103 199.575C73.2562 199.099 73.0996 198.643 72.853 198.244C72.6064 197.845 72.2767 197.514 71.8901 197.276C71.5036 197.039 71.0709 196.903 70.6267 196.878C70.4771 197.329 70.427 197.812 70.4805 198.288C70.534 198.765 70.6896 199.221 70.9349 199.621Z" fill="#F9F9F9"/>
<path d="M115.496 204.987C117.136 210.127 113.148 221.848 108.381 223.616C103.613 225.383 99.8554 216.546 98.2422 211.392C97.4543 208.925 97.6076 206.222 98.6683 203.878C99.7291 201.533 101.61 199.739 103.898 198.889C106.186 198.04 108.694 198.205 110.869 199.349C113.044 200.492 114.708 202.52 115.496 204.987Z" fill="#223C6A"/>
<path opacity="0.4" d="M115.496 204.987C117.136 210.127 113.148 221.848 108.381 223.616C103.613 225.383 99.8554 216.546 98.2422 211.392C97.4543 208.925 97.6076 206.222 98.6683 203.878C99.7291 201.533 101.61 199.739 103.898 198.889C106.186 198.04 108.694 198.205 110.869 199.349C113.044 200.492 114.708 202.52 115.496 204.987Z" fill="#F9F9F9"/>
<path d="M107.732 195.676C107.223 196.271 106.85 196.987 106.643 197.765C106.436 198.543 106.4 199.362 106.538 200.158C107.285 200.243 108.04 200.139 108.743 199.855C109.446 199.57 110.077 199.111 110.587 198.517C111.097 197.922 111.47 197.207 111.678 196.429C111.886 195.651 111.922 194.831 111.784 194.036C111.037 193.951 110.282 194.055 109.578 194.34C108.875 194.625 108.243 195.082 107.732 195.676Z" fill="#223C6A"/>
<path opacity="0.2" d="M107.732 195.676C107.223 196.271 106.85 196.987 106.643 197.765C106.436 198.543 106.4 199.362 106.538 200.158C107.285 200.243 108.04 200.139 108.743 199.855C109.446 199.57 110.077 199.111 110.587 198.517C111.097 197.922 111.47 197.207 111.678 196.429C111.886 195.651 111.922 194.831 111.784 194.036C111.037 193.951 110.282 194.055 109.578 194.34C108.875 194.625 108.243 195.082 107.732 195.676Z" fill="#F9F9F9"/>
<path d="M104.04 199.628C104.393 199.918 104.805 200.116 105.243 200.204C105.68 200.293 106.13 200.269 106.558 200.137C106.562 199.658 106.462 199.185 106.267 198.755C106.071 198.326 105.785 197.951 105.432 197.661C105.078 197.372 104.667 197.175 104.231 197.087C103.794 196.998 103.345 197.021 102.918 197.153C102.913 197.632 103.011 198.104 103.206 198.534C103.401 198.964 103.686 199.338 104.04 199.628Z" fill="#223C6A"/>
<path opacity="0.2" d="M104.04 199.628C104.393 199.918 104.805 200.116 105.243 200.204C105.68 200.293 106.13 200.269 106.558 200.137C106.562 199.658 106.462 199.185 106.267 198.755C106.071 198.326 105.785 197.951 105.432 197.661C105.078 197.372 104.667 197.175 104.231 197.087C103.794 196.998 103.345 197.021 102.918 197.153C102.913 197.632 103.011 198.104 103.206 198.534C103.401 198.964 103.686 199.338 104.04 199.628Z" fill="#F9F9F9"/>
<path d="M79.8142 206.577C79.2896 212.94 86.8902 225.079 92.7858 225.666C98.6814 226.252 100.616 215.012 101.147 208.663C101.401 205.613 100.521 202.58 98.7 200.23C97.7985 199.066 96.6931 198.105 95.4471 197.402C94.2011 196.699 92.8389 196.267 91.4381 196.132C90.0374 195.996 88.6256 196.159 87.2834 196.612C85.9411 197.065 84.6947 197.798 83.6154 198.77C81.4355 200.733 80.0681 203.549 79.8142 206.598V206.577Z" fill="#223C6A"/>
<path opacity="0.5" d="M79.8142 206.577C79.2896 212.94 86.8902 225.079 92.7858 225.666C98.6814 226.252 100.616 215.012 101.147 208.663C101.401 205.613 100.521 202.58 98.7 200.23C97.7985 199.066 96.6931 198.105 95.4471 197.402C94.2011 196.699 92.8389 196.267 91.4381 196.132C90.0374 195.996 88.6256 196.159 87.2834 196.612C85.9411 197.065 84.6947 197.798 83.6154 198.77C81.4355 200.733 80.0681 203.549 79.8142 206.598V206.577Z" fill="#F9F9F9"/>
<path d="M86.2345 193.619C86.9677 194.143 87.5779 194.844 88.0171 195.666C88.4564 196.488 88.7127 197.408 88.7659 198.355C87.938 198.678 87.0515 198.789 86.1771 198.677C85.3027 198.565 84.4646 198.235 83.7296 197.713C82.9945 197.19 82.3828 196.49 81.9433 195.667C81.5038 194.845 81.2486 193.923 81.198 192.975C82.0262 192.653 82.9125 192.544 83.7868 192.655C84.661 192.767 85.4991 193.097 86.2345 193.619Z" fill="#223C6A"/>
<path opacity="0.2" d="M86.2345 193.619C86.9677 194.143 87.5779 194.844 88.0171 195.666C88.4564 196.488 88.7127 197.408 88.7659 198.355C87.938 198.678 87.0515 198.789 86.1771 198.677C85.3027 198.565 84.4646 198.235 83.7296 197.713C82.9945 197.19 82.3828 196.49 81.9433 195.667C81.5038 194.845 81.2486 193.923 81.198 192.975C82.0262 192.653 82.9125 192.544 83.7868 192.655C84.661 192.767 85.4991 193.097 86.2345 193.619Z" fill="#F9F9F9"/>
<path d="M91.4683 197.005C91.1393 197.441 90.7213 197.789 90.2469 198.022C89.7726 198.255 89.2547 198.367 88.7337 198.348C88.6036 197.803 88.5934 197.234 88.7038 196.684C88.8141 196.134 89.0421 195.619 89.3695 195.181C89.6968 194.743 90.1146 194.394 90.5894 194.16C91.0642 193.927 91.583 193.817 92.1044 193.838C92.2319 194.383 92.2409 194.952 92.1305 195.502C92.0202 196.051 91.7935 196.566 91.4683 197.005Z" fill="#223C6A"/>
<path opacity="0.2" d="M91.4683 197.005C91.1393 197.441 90.7213 197.789 90.2469 198.022C89.7726 198.255 89.2547 198.367 88.7337 198.348C88.6036 197.803 88.5934 197.234 88.7038 196.684C88.8141 196.134 89.0421 195.619 89.3695 195.181C89.6968 194.743 90.1146 194.394 90.5894 194.16C91.0642 193.927 91.583 193.817 92.1044 193.838C92.2319 194.383 92.2409 194.952 92.1305 195.502C92.0202 196.051 91.7935 196.566 91.4683 197.005Z" fill="#F9F9F9"/>
<path d="M115.143 202.088C113.28 208.14 118.1 221.841 123.714 223.849C129.327 225.857 133.603 215.415 135.466 209.363C136.36 206.457 136.148 203.286 134.874 200.549C133.601 197.812 131.371 195.732 128.675 194.767C125.979 193.803 123.038 194.032 120.499 195.405C117.96 196.778 116.031 199.182 115.136 202.088H115.143Z" fill="#223C6A"/>
<path opacity="0.5" d="M115.143 202.088C113.28 208.14 118.1 221.841 123.714 223.849C129.327 225.857 133.603 215.415 135.466 209.363C136.36 206.457 136.148 203.286 134.874 200.549C133.601 197.812 131.371 195.732 128.675 194.767C125.979 193.803 123.038 194.032 120.499 195.405C117.96 196.778 116.031 199.182 115.136 202.088H115.143Z" fill="#F9F9F9"/>
<path d="M124.12 191.059C124.722 191.75 125.166 192.583 125.419 193.49C125.672 194.398 125.725 195.357 125.576 196.291C124.701 196.403 123.814 196.292 122.986 195.968C122.158 195.644 121.412 195.116 120.807 194.425C120.202 193.735 119.756 192.901 119.503 191.992C119.251 191.082 119.199 190.121 119.352 189.186C120.227 189.078 121.114 189.191 121.941 189.517C122.769 189.842 123.514 190.37 124.12 191.059Z" fill="#223C6A"/>
<path opacity="0.2" d="M124.12 191.059C124.722 191.75 125.166 192.583 125.419 193.49C125.672 194.398 125.725 195.357 125.576 196.291C124.701 196.403 123.814 196.292 122.986 195.968C122.158 195.644 121.412 195.116 120.807 194.425C120.202 193.735 119.756 192.901 119.503 191.992C119.251 191.082 119.199 190.121 119.352 189.186C120.227 189.078 121.114 189.191 121.941 189.517C122.769 189.842 123.514 190.37 124.12 191.059Z" fill="#F9F9F9"/>
<path d="M128.494 195.641C128.083 195.987 127.603 196.225 127.092 196.336C126.58 196.446 126.052 196.426 125.549 196.277C125.541 195.716 125.653 195.161 125.879 194.656C126.104 194.15 126.435 193.709 126.846 193.365C127.258 193.022 127.737 192.787 128.248 192.679C128.758 192.571 129.285 192.592 129.786 192.742C129.793 193.3 129.68 193.852 129.456 194.355C129.231 194.858 128.902 195.298 128.494 195.641Z" fill="#223C6A"/>
<path opacity="0.2" d="M128.494 195.641C128.083 195.987 127.603 196.225 127.092 196.336C126.58 196.446 126.052 196.426 125.549 196.277C125.541 195.716 125.653 195.161 125.879 194.656C126.104 194.15 126.435 193.709 126.846 193.365C127.258 193.022 127.737 192.787 128.248 192.679C128.758 192.571 129.285 192.592 129.786 192.742C129.793 193.3 129.68 193.852 129.456 194.355C129.231 194.858 128.902 195.298 128.494 195.641Z" fill="#F9F9F9"/>
<path d="M47.8052 211.307H150.05C150.05 211.307 151.237 236.27 144.436 243.121C138.659 248.961 94.1829 254.312 76.6667 256.497C73.3877 256.907 62.7573 255.875 60.1079 253.351C53.4319 246.988 48.579 234.305 47.8052 211.307Z" fill="#223C6A"/>
<g opacity="0.35">
<path opacity="0.35" d="M60.1075 253.365C62.7307 255.889 73.3939 256.9 76.6663 256.511C80.4371 256.045 85.4605 255.422 91.0938 254.687C107.836 251.93 123.037 248.614 126.467 245.143C132.776 238.78 133.163 218.985 133.065 211.307H47.8114C48.5787 234.305 53.4316 246.988 60.1075 253.365Z" fill="black"/>
</g>
<path d="M153.709 208.953H45.7985V213.421H153.709V208.953Z" fill="#223C6A"/>
<g opacity="0.4">
<path opacity="0.4" d="M153.709 208.953H45.7985V213.421H153.709V208.953Z" fill="#F9F9F9"/>
</g>
<path d="M76.4336 296.897C85.9183 295.237 92.359 285.603 90.8194 275.378C89.2799 265.153 80.343 258.209 70.8584 259.869C61.3737 261.529 54.933 271.163 56.4726 281.388C58.0121 291.613 66.949 298.556 76.4336 296.897Z" fill="#2E353A"/>
<g opacity="0.35">
<path opacity="0.35" d="M149.611 226.67L144.266 234.736C143.335 236.136 142.681 237.726 142.342 239.409C142.004 241.092 141.989 242.832 142.298 244.521C143.07 244.17 143.787 243.693 144.423 243.107C147.519 240.024 148.955 233.202 149.611 226.67Z" fill="black"/>
</g>
<path d="M81.7692 278.385C81.7692 276.651 81.2923 274.956 80.3987 273.515C79.5052 272.073 78.2352 270.949 76.7493 270.286C75.2634 269.622 73.6283 269.449 72.0509 269.787C70.4735 270.125 69.0245 270.96 67.8873 272.186C66.75 273.412 65.9755 274.974 65.6617 276.675C65.348 278.375 65.509 280.138 66.1245 281.74C66.74 283.342 67.7823 284.711 69.1195 285.674C70.4568 286.637 72.029 287.151 73.6373 287.151C75.794 287.151 77.8624 286.228 79.3874 284.584C80.9124 282.94 81.7692 280.71 81.7692 278.385Z" fill="#F0F0F0"/>
<path d="M77.3286 278.385C77.3286 277.598 77.112 276.828 76.7064 276.174C76.3007 275.519 75.724 275.009 75.0494 274.708C74.3747 274.407 73.6324 274.328 72.9162 274.481C72.2 274.635 71.5421 275.014 71.0257 275.571C70.5094 276.127 70.1577 276.836 70.0153 277.609C69.8728 278.381 69.9459 279.181 70.2254 279.908C70.5048 280.635 70.9781 281.257 71.5852 281.694C72.1924 282.132 72.9062 282.365 73.6365 282.365C74.6157 282.365 75.5548 281.946 76.2472 281.199C76.9396 280.453 77.3286 279.441 77.3286 278.385Z" fill="#263238"/>
<path d="M148.096 294.391C145.93 294.398 143.825 293.613 142.128 292.163C140.43 290.713 139.239 288.684 138.75 286.409L131.412 250.29L87.0805 257.734L75.709 279.651C75.5566 279.944 75.3521 280.202 75.1071 280.41C74.8621 280.618 74.5815 280.772 74.2813 280.864C73.9811 280.955 73.6671 280.982 73.3574 280.942C73.0476 280.903 72.7481 280.798 72.476 280.633C72.2038 280.469 71.9644 280.248 71.7713 279.984C71.5782 279.72 71.4352 279.418 71.3506 279.094C71.266 278.77 71.2413 278.432 71.278 278.098C71.3146 277.764 71.412 277.441 71.5644 277.148L83.4933 254.15C83.6707 253.811 83.9168 253.52 84.2132 253.299C84.5096 253.077 84.8486 252.931 85.2049 252.87L132.888 244.86C133.484 244.761 134.094 244.91 134.592 245.277C135.091 245.645 135.44 246.204 135.57 246.84L143.407 285.299C143.559 285.993 143.842 286.645 144.239 287.215C144.636 287.784 145.137 288.26 145.712 288.612C146.287 288.963 146.922 289.183 147.58 289.258C148.237 289.333 148.902 289.261 149.532 289.046C150.68 288.668 151.655 287.838 152.262 286.721C152.87 285.604 153.066 284.281 152.811 283.016L144.607 239.614C144.503 239.071 144.565 238.505 144.784 238.003L154.949 214.941C155.106 214.583 155.339 214.269 155.628 214.024C155.917 213.778 156.254 213.608 156.614 213.527L195.614 204.824C196.218 204.724 196.834 204.877 197.335 205.252C197.836 205.627 198.185 206.196 198.309 206.84C198.432 207.484 198.322 208.155 198 208.714C197.678 209.273 197.169 209.678 196.578 209.844L158.733 218.285L149.42 239.445L157.441 281.969C157.735 283.47 157.716 285.022 157.383 286.513C157.05 288.005 156.413 289.397 155.518 290.589C154.622 291.78 153.491 292.741 152.207 293.402C150.923 294.062 149.518 294.405 148.096 294.405V294.391Z" fill="#223C6A"/>
<g opacity="0.7">
<path opacity="0.7" d="M148.096 294.391C145.93 294.398 143.825 293.613 142.128 292.163C140.43 290.713 139.239 288.684 138.75 286.409L131.412 250.29L87.0805 257.734L75.709 279.651C75.5566 279.944 75.3521 280.202 75.1071 280.41C74.8621 280.618 74.5815 280.772 74.2813 280.864C73.9811 280.955 73.6671 280.982 73.3574 280.942C73.0476 280.903 72.7481 280.798 72.476 280.633C72.2038 280.469 71.9644 280.248 71.7713 279.984C71.5782 279.72 71.4352 279.418 71.3506 279.094C71.266 278.77 71.2413 278.432 71.278 278.098C71.3146 277.764 71.412 277.441 71.5644 277.148L83.4933 254.15C83.6707 253.811 83.9168 253.52 84.2132 253.299C84.5096 253.077 84.8486 252.931 85.2049 252.87L132.888 244.86C133.484 244.761 134.094 244.91 134.592 245.277C135.091 245.645 135.44 246.204 135.57 246.84L143.407 285.299C143.559 285.993 143.842 286.645 144.239 287.215C144.636 287.784 145.137 288.26 145.712 288.612C146.287 288.963 146.922 289.183 147.58 289.258C148.237 289.333 148.902 289.261 149.532 289.046C150.68 288.668 151.655 287.838 152.262 286.721C152.87 285.604 153.066 284.281 152.811 283.016L144.607 239.614C144.503 239.071 144.565 238.505 144.784 238.003L154.949 214.941C155.106 214.583 155.339 214.269 155.628 214.024C155.917 213.778 156.254 213.608 156.614 213.527L195.614 204.824C196.218 204.724 196.834 204.877 197.335 205.252C197.836 205.627 198.185 206.196 198.309 206.84C198.432 207.484 198.322 208.155 198 208.714C197.678 209.273 197.169 209.678 196.578 209.844L158.733 218.285L149.42 239.445L157.441 281.969C157.735 283.47 157.716 285.022 157.383 286.513C157.05 288.005 156.413 289.397 155.518 290.589C154.622 291.78 153.491 292.741 152.207 293.402C150.923 294.062 149.518 294.405 148.096 294.405V294.391Z" fill="white"/>
</g>
<path d="M183.456 205.567L201.274 201.657C202.338 201.463 203.43 201.723 204.319 202.382C205.209 203.04 205.826 204.046 206.041 205.185C206.255 206.325 206.05 207.511 205.469 208.491C204.888 209.471 203.977 210.169 202.927 210.438L185.115 214.347C184.84 214.404 183.456 205.567 183.456 205.567Z" fill="#223C6A"/>
<path d="M169.16 263.828C169.16 267.271 164.53 273.401 161.343 273.401C158.155 273.401 157.605 267.271 157.605 263.828C157.605 262.177 158.213 260.592 159.297 259.424C160.38 258.256 161.85 257.6 163.382 257.6C164.914 257.6 166.384 258.256 167.468 259.424C168.551 260.592 169.16 262.177 169.16 263.828Z" fill="#223C6A"/>
<path opacity="0.5" d="M169.16 263.828C169.16 267.271 164.53 273.401 161.343 273.401C158.155 273.401 157.605 267.271 157.605 263.828C157.605 262.177 158.213 260.592 159.297 259.424C160.38 258.256 161.85 257.6 163.382 257.6C164.914 257.6 166.384 258.256 167.468 259.424C168.551 260.592 169.16 262.177 169.16 263.828Z" fill="#F9F9F9"/>
<path d="M166.294 256.532C165.875 256.774 165.515 257.118 165.242 257.537C164.969 257.955 164.79 258.437 164.72 258.943C165.15 259.159 165.621 259.263 166.096 259.248C166.57 259.233 167.035 259.099 167.453 258.857C167.871 258.615 168.231 258.271 168.505 257.853C168.778 257.435 168.957 256.953 169.028 256.447C168.598 256.231 168.126 256.126 167.652 256.141C167.177 256.155 166.712 256.29 166.294 256.532Z" fill="#223C6A"/>
<path opacity="0.2" d="M166.294 256.532C165.875 256.774 165.515 257.118 165.242 257.537C164.969 257.955 164.79 258.437 164.72 258.943C165.15 259.159 165.621 259.263 166.096 259.248C166.57 259.233 167.035 259.099 167.453 258.857C167.871 258.615 168.231 258.271 168.505 257.853C168.778 257.435 168.957 256.953 169.028 256.447C168.598 256.231 168.126 256.126 167.652 256.141C167.177 256.155 166.712 256.29 166.294 256.532Z" fill="#F9F9F9"/>
<path d="M163.33 258.066C163.486 258.317 163.694 258.525 163.938 258.675C164.181 258.825 164.454 258.912 164.733 258.929C164.829 258.643 164.861 258.337 164.827 258.035C164.794 257.733 164.694 257.444 164.538 257.191C164.382 256.939 164.173 256.729 163.928 256.578C163.683 256.428 163.408 256.342 163.127 256.327C163.034 256.614 163.003 256.921 163.039 257.223C163.074 257.524 163.174 257.813 163.33 258.066Z" fill="#223C6A"/>
<path opacity="0.2" d="M163.33 258.066C163.486 258.317 163.694 258.525 163.938 258.675C164.181 258.825 164.454 258.912 164.733 258.929C164.829 258.643 164.861 258.337 164.827 258.035C164.794 257.733 164.694 257.444 164.538 257.191C164.382 256.939 164.173 256.729 163.928 256.578C163.683 256.428 163.408 256.342 163.127 256.327C163.034 256.614 163.003 256.921 163.039 257.223C163.074 257.524 163.174 257.813 163.33 258.066Z" fill="#F9F9F9"/>
<path d="M191.535 261.481C192.578 264.733 190.046 272.157 187.03 273.274C184.013 274.391 181.652 268.784 180.61 265.532C180.349 264.755 180.234 263.93 180.273 263.105C180.311 262.28 180.501 261.471 180.831 260.726C181.162 259.981 181.627 259.314 182.199 258.765C182.771 258.215 183.439 257.793 184.164 257.525C184.889 257.256 185.656 257.146 186.42 257.199C187.185 257.253 187.932 257.471 188.618 257.839C189.304 258.207 189.915 258.719 190.416 259.344C190.917 259.969 191.297 260.696 191.535 261.481Z" fill="#223C6A"/>
<path opacity="0.4" d="M191.535 261.481C192.578 264.733 190.046 272.157 187.03 273.274C184.013 274.391 181.652 268.784 180.61 265.532C180.349 264.755 180.234 263.93 180.273 263.105C180.311 262.28 180.501 261.471 180.831 260.726C181.162 259.981 181.627 259.314 182.199 258.765C182.771 258.215 183.439 257.793 184.164 257.525C184.889 257.256 185.656 257.146 186.42 257.199C187.185 257.253 187.932 257.471 188.618 257.839C189.304 258.207 189.915 258.719 190.416 259.344C190.917 259.969 191.297 260.696 191.535 261.481Z" fill="#F9F9F9"/>
<path d="M186.624 255.585C186.304 255.962 186.07 256.413 185.939 256.904C185.808 257.394 185.785 257.911 185.87 258.413C186.342 258.466 186.82 258.399 187.264 258.218C187.709 258.037 188.108 257.746 188.43 257.369C188.751 256.992 188.987 256.539 189.117 256.046C189.248 255.554 189.27 255.035 189.182 254.532C188.709 254.481 188.231 254.549 187.787 254.732C187.343 254.915 186.945 255.207 186.624 255.585Z" fill="#223C6A"/>
<path opacity="0.2" d="M186.624 255.585C186.304 255.962 186.07 256.413 185.939 256.904C185.808 257.394 185.785 257.911 185.87 258.413C186.342 258.466 186.82 258.399 187.264 258.218C187.709 258.037 188.108 257.746 188.43 257.369C188.751 256.992 188.987 256.539 189.117 256.046C189.248 255.554 189.27 255.035 189.182 254.532C188.709 254.481 188.231 254.549 187.787 254.732C187.343 254.915 186.945 255.207 186.624 255.585Z" fill="#F9F9F9"/>
<path d="M184.282 258.067C184.437 258.068 184.589 258.028 184.724 257.948C184.86 257.869 184.974 257.753 185.057 257.613C185.139 257.472 185.187 257.311 185.196 257.145C185.204 256.979 185.173 256.814 185.106 256.664C185.038 256.515 184.937 256.386 184.81 256.291C184.684 256.196 184.537 256.137 184.383 256.12C184.23 256.104 184.075 256.129 183.933 256.195C183.792 256.261 183.668 256.365 183.574 256.497C183.571 256.8 183.633 257.1 183.756 257.372C183.879 257.645 184.059 257.883 184.282 258.067Z" fill="#223C6A"/>
<path opacity="0.2" d="M184.282 258.067C184.437 258.068 184.589 258.028 184.724 257.948C184.86 257.869 184.974 257.753 185.057 257.613C185.139 257.472 185.187 257.311 185.196 257.145C185.204 256.979 185.173 256.814 185.106 256.664C185.038 256.515 184.937 256.386 184.81 256.291C184.684 256.196 184.537 256.137 184.383 256.12C184.23 256.104 184.075 256.129 183.933 256.195C183.792 256.261 183.668 256.365 183.574 256.497C183.571 256.8 183.633 257.1 183.756 257.372C183.879 257.645 184.059 257.883 184.282 258.067Z" fill="#F9F9F9"/>
<path d="M168.95 262.485C168.615 266.508 173.429 274.193 177.16 274.553C180.892 274.914 182.118 267.809 182.452 263.793C182.557 262.824 182.48 261.841 182.227 260.904C181.974 259.967 181.549 259.094 180.978 258.337C180.407 257.58 179.7 256.953 178.901 256.495C178.102 256.037 177.225 255.755 176.324 255.668C175.422 255.581 174.513 255.689 173.651 255.986C172.788 256.284 171.99 256.764 171.303 257.4C170.615 258.035 170.053 258.812 169.649 259.686C169.245 260.559 169.007 261.511 168.95 262.485Z" fill="#223C6A"/>
<path opacity="0.5" d="M168.95 262.485C168.615 266.508 173.429 274.193 177.16 274.553C180.892 274.914 182.118 267.809 182.452 263.793C182.557 262.824 182.48 261.841 182.227 260.904C181.974 259.967 181.549 259.094 180.978 258.337C180.407 257.58 179.7 256.953 178.901 256.495C178.102 256.037 177.225 255.755 176.324 255.668C175.422 255.581 174.513 255.689 173.651 255.986C172.788 256.284 171.99 256.764 171.303 257.4C170.615 258.035 170.053 258.812 169.649 259.686C169.245 260.559 169.007 261.511 168.95 262.485Z" fill="#F9F9F9"/>
<path d="M173.01 254.277C173.475 254.607 173.862 255.05 174.14 255.571C174.418 256.092 174.579 256.675 174.61 257.275C174.086 257.479 173.526 257.55 172.973 257.479C172.419 257.409 171.889 257.2 171.424 256.87C170.959 256.54 170.572 256.097 170.294 255.577C170.016 255.057 169.855 254.473 169.823 253.874C170.346 253.668 170.907 253.597 171.46 253.667C172.014 253.737 172.545 253.946 173.01 254.277Z" fill="#223C6A"/>
<path opacity="0.2" d="M173.01 254.277C173.475 254.607 173.862 255.05 174.14 255.571C174.418 256.092 174.579 256.675 174.61 257.275C174.086 257.479 173.526 257.55 172.973 257.479C172.419 257.409 171.889 257.2 171.424 256.87C170.959 256.54 170.572 256.097 170.294 255.577C170.016 255.057 169.855 254.473 169.823 253.874C170.346 253.668 170.907 253.597 171.46 253.667C172.014 253.737 172.545 253.946 173.01 254.277Z" fill="#F9F9F9"/>
<path d="M176.328 256.419C176.119 256.695 175.854 256.916 175.554 257.064C175.254 257.212 174.926 257.284 174.596 257.275C174.518 256.932 174.515 256.574 174.586 256.23C174.658 255.885 174.803 255.563 175.009 255.289C175.216 255.015 175.478 254.796 175.777 254.65C176.075 254.504 176.4 254.434 176.728 254.447C176.805 254.787 176.809 255.141 176.739 255.483C176.67 255.825 176.529 256.145 176.328 256.419Z" fill="#223C6A"/>
<path opacity="0.2" d="M176.328 256.419C176.119 256.695 175.854 256.916 175.554 257.064C175.254 257.212 174.926 257.284 174.596 257.275C174.518 256.932 174.515 256.574 174.586 256.23C174.658 255.885 174.803 255.563 175.009 255.289C175.216 255.015 175.478 254.796 175.777 254.65C176.075 254.504 176.4 254.434 176.728 254.447C176.805 254.787 176.809 255.141 176.739 255.483C176.67 255.825 176.529 256.145 176.328 256.419Z" fill="#F9F9F9"/>
<path d="M191.299 259.643C190.119 263.475 193.175 272.149 196.722 273.422C200.27 274.695 202.985 268.077 204.166 264.231C204.475 263.313 204.611 262.337 204.564 261.361C204.518 260.385 204.29 259.429 203.895 258.549C203.5 257.669 202.946 256.884 202.264 256.24C201.583 255.595 200.788 255.105 199.928 254.797C199.067 254.489 198.159 254.37 197.255 254.448C196.351 254.525 195.471 254.797 194.667 255.248C193.862 255.698 193.15 256.318 192.571 257.071C191.993 257.823 191.56 258.693 191.299 259.629V259.643Z" fill="#223C6A"/>
<path opacity="0.5" d="M191.299 259.643C190.119 263.475 193.175 272.149 196.722 273.422C200.27 274.695 202.985 268.077 204.166 264.231C204.475 263.313 204.611 262.337 204.564 261.361C204.518 260.385 204.29 259.429 203.895 258.549C203.5 257.669 202.946 256.884 202.264 256.24C201.583 255.595 200.788 255.105 199.928 254.797C199.067 254.489 198.159 254.37 197.255 254.448C196.351 254.525 195.471 254.797 194.667 255.248C193.862 255.698 193.15 256.318 192.571 257.071C191.993 257.823 191.56 258.693 191.299 259.629V259.643Z" fill="#F9F9F9"/>
<path d="M196.998 252.658C197.38 253.096 197.662 253.623 197.821 254.199C197.981 254.774 198.013 255.382 197.916 255.974C197.363 256.042 196.802 255.971 196.279 255.764C195.755 255.558 195.284 255.223 194.902 254.786C194.52 254.348 194.237 253.821 194.078 253.245C193.918 252.67 193.885 252.062 193.982 251.47C194.535 251.404 195.096 251.476 195.619 251.682C196.143 251.888 196.615 252.222 196.998 252.658Z" fill="#223C6A"/>
<path opacity="0.2" d="M196.998 252.658C197.38 253.096 197.662 253.623 197.821 254.199C197.981 254.774 198.013 255.382 197.916 255.974C197.363 256.042 196.802 255.971 196.279 255.764C195.755 255.558 195.284 255.223 194.902 254.786C194.52 254.348 194.237 253.821 194.078 253.245C193.918 252.67 193.885 252.062 193.982 251.47C194.535 251.404 195.096 251.476 195.619 251.682C196.143 251.888 196.615 252.222 196.998 252.658Z" fill="#F9F9F9"/>
<path d="M199.74 255.564C199.559 255.567 199.381 255.52 199.221 255.428C199.062 255.336 198.927 255.201 198.83 255.037C198.732 254.873 198.675 254.685 198.664 254.49C198.652 254.296 198.687 254.101 198.765 253.925C198.843 253.75 198.961 253.598 199.109 253.485C199.256 253.372 199.428 253.302 199.607 253.28C199.787 253.259 199.969 253.287 200.135 253.363C200.302 253.438 200.448 253.558 200.56 253.712C200.565 254.067 200.493 254.42 200.351 254.741C200.209 255.062 200 255.344 199.74 255.564Z" fill="#223C6A"/>
<path opacity="0.2" d="M199.74 255.564C199.559 255.567 199.381 255.52 199.221 255.428C199.062 255.336 198.927 255.201 198.83 255.037C198.732 254.873 198.675 254.685 198.664 254.49C198.652 254.296 198.687 254.101 198.765 253.925C198.843 253.75 198.961 253.598 199.109 253.485C199.256 253.372 199.428 253.302 199.607 253.28C199.787 253.259 199.969 253.287 200.135 253.363C200.302 253.438 200.448 253.558 200.56 253.712C200.565 254.067 200.493 254.42 200.351 254.741C200.209 255.062 200 255.344 199.74 255.564Z" fill="#F9F9F9"/>
<path d="M195.648 277.367H215.459L209.708 262.902H189.903L195.648 277.367Z" fill="#223C6A"/>
<path d="M209.688 262.902H173.862V294.843H209.688V262.902Z" fill="#223C6A"/>
<path opacity="0.3" d="M209.688 262.902H173.862V294.843H209.688V262.902Z" fill="#F9F9F9"/>
<path d="M182.696 262.902H154.929V294.843H182.696V262.902Z" fill="#223C6A"/>
<path opacity="0.1" d="M182.696 262.902H154.929V294.843H182.696V262.902Z" fill="#E0E0E0"/>
<path opacity="0.35" d="M154.929 278.873H177.889L182.689 262.902H154.929V278.873Z" fill="black"/>
<path d="M176.944 277.367H149.184L154.929 262.902H182.689L176.944 277.367Z" fill="#223C6A"/>
</g>
<defs>
<clipPath id="clip0_1_1960">
<rect width="327.897" height="353.488" fill="white" transform="translate(0.378357 0.727051)"/>
</clipPath>
</defs>
</svg>
