<svg width="338" height="338" viewBox="0 0 338 338" fill="none" xmlns="http://www.w3.org/2000/svg">
<g clip-path="url(#clip0_1_1677)">
<path d="M337.451 258.296H0.136719V258.465H337.451V258.296Z" fill="#EBEBEB"/>
<path d="M303.652 269.151H281.309V269.319H303.652V269.151Z" fill="#EBEBEB"/>
<path d="M223.587 270.985H217.724V271.154H223.587V270.985Z" fill="#EBEBEB"/>
<path d="M280.634 262.89H267.688V263.059H280.634V262.89Z" fill="#EBEBEB"/>
<path d="M64.6651 264.023H35.5278V264.192H64.6651V264.023Z" fill="#EBEBEB"/>
<path d="M74.9462 264.023H70.6758V264.192H74.9462V264.023Z" fill="#EBEBEB"/>
<path d="M152.03 266.87H88.8304V267.039H152.03V266.87Z" fill="#EBEBEB"/>
<path d="M160.024 228.207H29.7596C28.7391 228.206 27.761 227.799 27.0401 227.077C26.3191 226.354 25.9142 225.376 25.9142 224.355V41.2406C25.9231 40.226 26.3319 39.2559 27.0519 38.5409C27.7719 37.826 28.7449 37.424 29.7596 37.4222H160.024C161.045 37.4222 162.025 37.8281 162.748 38.5505C163.47 39.2729 163.876 40.2527 163.876 41.2744V224.355C163.876 225.377 163.47 226.357 162.748 227.079C162.025 227.801 161.045 228.207 160.024 228.207ZM29.7596 37.5572C28.7838 37.559 27.8486 37.9478 27.1593 38.6384C26.47 39.329 26.0828 40.2649 26.0828 41.2406V224.355C26.0828 225.331 26.47 226.267 27.1593 226.957C27.8486 227.648 28.7838 228.037 29.7596 228.039H160.024C161 228.037 161.936 227.648 162.626 226.958C163.317 226.267 163.705 225.332 163.707 224.355V41.2406C163.705 40.2643 163.317 39.3284 162.626 38.638C161.936 37.9476 161 37.559 160.024 37.5572H29.7596Z" fill="#EBEBEB"/>
<path d="M305.953 228.207H175.682C174.661 228.206 173.682 227.799 172.96 227.077C172.238 226.355 171.832 225.376 171.83 224.355V41.2406C171.841 40.2254 172.251 39.2553 172.972 38.5405C173.693 37.8257 174.667 37.424 175.682 37.4222H305.953C306.967 37.4258 307.938 37.8285 308.656 38.5433C309.375 39.258 309.783 40.2272 309.792 41.2406V224.355C309.792 225.374 309.388 226.352 308.668 227.074C307.949 227.796 306.972 228.204 305.953 228.207ZM175.682 37.5572C174.706 37.559 173.77 37.9476 173.08 38.638C172.389 39.3284 172.001 40.2643 171.999 41.2406V224.355C172.001 225.332 172.389 226.267 173.08 226.958C173.77 227.648 174.706 228.037 175.682 228.039H305.953C306.929 228.037 307.865 227.648 308.556 226.958C309.246 226.267 309.635 225.332 309.637 224.355V41.2406C309.635 40.2643 309.246 39.3284 308.556 38.638C307.865 37.9476 306.929 37.559 305.953 37.5572H175.682Z" fill="#EBEBEB"/>
<path d="M38.8807 254.363H294.828V163.011H303.396V160.144H298.215L285.667 141.268H278.502V141.241H238.483L227.068 118.162H168.834V109.581H175.79V106.147H168.362L157.494 85.8809H128.593L114.52 106.147H107.315V109.581H114.27V141.241H93.6471L84.5936 160.744H68.4429V153.904H55.625V160.744H52.4947V124.847H50.9431V160.744H43.9539L34.0436 183.783H30.0768V187.318H38.8807V254.363Z" fill="#F0F0F0"/>
<path d="M79.3786 89.9152C89.7328 89.9152 98.1265 81.5214 98.1265 71.1672C98.1265 60.813 89.7328 52.4193 79.3786 52.4193C69.0244 52.4193 60.6306 60.813 60.6306 71.1672C60.6306 81.5214 69.0244 89.9152 79.3786 89.9152Z" fill="#F9F9F9"/>
<path d="M69.6574 70.9581C69.6564 70.4502 69.537 69.9496 69.3086 69.496C69.0803 69.0423 68.7492 68.6482 68.3418 68.345C67.9344 68.0417 67.4619 67.8377 66.9619 67.7491C66.4618 67.6605 65.948 67.6897 65.4612 67.8346C65.6068 66.8541 65.5391 65.8537 65.2626 64.9017C64.9862 63.9498 64.5076 63.0687 63.8594 62.3187C63.2113 61.5688 62.4089 60.9675 61.507 60.556C60.6052 60.1446 59.6252 59.9326 58.6339 59.9346C58.2061 59.937 57.7794 59.9776 57.3589 60.0561C56.6809 58.9355 55.6563 58.0663 54.4401 57.5803C53.2239 57.0942 51.8824 57.0177 50.6189 57.3624C49.3553 57.7071 48.2385 58.4541 47.4376 59.4904C46.6367 60.5267 46.1953 61.7958 46.1803 63.1054H46.0791C44.6048 63.1054 43.1908 63.6911 42.1483 64.7336C41.1058 65.7761 40.5201 67.19 40.5201 68.6643C40.5201 70.1387 41.1058 71.5526 42.1483 72.5951C43.1908 73.6376 44.6048 74.2233 46.0791 74.2233H66.4866C67.3372 74.2021 68.1457 73.8484 68.7385 73.2379C69.3313 72.6275 69.6612 71.809 69.6574 70.9581Z" fill="#F5F5F5"/>
<path d="M236.931 86.0562C236.931 85.192 236.588 84.3632 235.977 83.7521C235.366 83.1411 234.537 82.7978 233.673 82.7978C233.356 82.7977 233.04 82.8431 232.735 82.9327C232.881 81.9522 232.813 80.9518 232.537 79.9999C232.26 79.0479 231.782 78.1669 231.133 77.4169C230.485 76.6669 229.683 76.0656 228.781 75.6542C227.879 75.2427 226.899 75.0308 225.908 75.0328C225.482 75.0321 225.058 75.0728 224.64 75.1542C223.96 74.0358 222.936 73.1686 221.72 72.6836C220.505 72.1986 219.165 72.122 217.902 72.4655C216.639 72.809 215.522 73.5539 214.72 74.5877C213.918 75.6216 213.474 76.8883 213.454 78.1968H213.319C211.845 78.1968 210.431 78.7825 209.389 79.825C208.346 80.8675 207.76 82.2814 207.76 83.7557C207.76 85.2301 208.346 86.644 209.389 87.6865C210.431 88.729 211.845 89.3147 213.319 89.3147H233.727C234.582 89.3023 235.398 88.9533 235.998 88.3433C236.598 87.7334 236.933 86.9117 236.931 86.0562Z" fill="#F5F5F5"/>
<path d="M144.993 64.974C144.993 64.4665 145.111 63.9659 145.339 63.5122C145.566 63.0585 145.897 62.6642 146.304 62.3608C146.711 62.0574 147.183 61.8533 147.683 61.7647C148.182 61.6761 148.696 61.7055 149.182 61.8505C149.045 60.8713 149.118 59.874 149.398 58.9254C149.677 57.9769 150.156 57.0991 150.803 56.351C151.45 55.6028 152.249 55.0015 153.147 54.5875C154.045 54.1736 155.021 53.9564 156.01 53.9506C156.438 53.9496 156.865 53.9903 157.285 54.072C157.964 52.9531 158.99 52.0857 160.206 51.6009C161.422 51.116 162.763 51.04 164.026 51.3844C165.289 51.7287 166.406 52.4747 167.207 53.5096C168.009 54.5446 168.452 55.8123 168.47 57.1214H168.571C170.046 57.1214 171.459 57.707 172.502 58.7495C173.544 59.7921 174.13 61.206 174.13 62.6803C174.13 64.1546 173.544 65.5686 172.502 66.6111C171.459 67.6536 170.046 68.2393 168.571 68.2393H148.157C147.308 68.2163 146.501 67.8618 145.909 67.2516C145.318 66.6413 144.989 65.8238 144.993 64.974Z" fill="#F5F5F5"/>
<path d="M295.935 128.538C295.935 127.673 295.591 126.845 294.98 126.234C294.369 125.622 293.54 125.279 292.676 125.279C292.358 125.278 292.042 125.326 291.739 125.421C291.787 125.088 291.812 124.752 291.813 124.416C291.813 122.585 291.086 120.83 289.791 119.536C288.497 118.241 286.742 117.514 284.911 117.514C284.486 117.517 284.061 117.558 283.643 117.636C282.963 116.517 281.938 115.649 280.722 115.164C279.506 114.68 278.165 114.604 276.902 114.948C275.639 115.292 274.522 116.038 273.72 117.073C272.919 118.108 272.475 119.376 272.458 120.685H272.356C270.882 120.685 269.468 121.271 268.426 122.313C267.383 123.356 266.797 124.77 266.797 126.244C266.797 127.718 267.383 129.132 268.426 130.175C269.468 131.217 270.882 131.803 272.356 131.803H292.771C293.62 131.78 294.427 131.425 295.018 130.815C295.61 130.205 295.939 129.387 295.935 128.538Z" fill="#F5F5F5"/>
<path d="M110.54 80.72C110.54 80.1832 110.326 79.6684 109.947 79.2889C109.567 78.9093 109.052 78.6961 108.516 78.6961C108.319 78.6939 108.123 78.7235 107.935 78.7838C107.965 78.5759 107.981 78.3663 107.983 78.1564C107.984 77.5918 107.875 77.0324 107.66 76.5103C107.445 75.9882 107.129 75.5136 106.731 75.1137C106.332 74.7139 105.859 74.3966 105.337 74.1801C104.816 73.9637 104.257 73.8523 103.692 73.8523C103.427 73.8529 103.163 73.8778 102.903 73.9265C102.482 73.2238 101.843 72.6782 101.083 72.3729C100.323 72.0676 99.4836 72.0196 98.6937 72.236C97.9037 72.4524 97.2063 72.9214 96.708 73.5714C96.2097 74.2214 95.9378 75.0166 95.9338 75.8357H95.8731C95.4062 75.815 94.94 75.8892 94.5026 76.0536C94.0651 76.2181 93.6655 76.4694 93.3278 76.7925C92.9901 77.1156 92.7214 77.5037 92.5378 77.9335C92.3542 78.3633 92.2595 78.8258 92.2595 79.2931C92.2595 79.7605 92.3542 80.223 92.5378 80.6528C92.7214 81.0825 92.9901 81.4707 93.3278 81.7938C93.6655 82.1169 94.0651 82.3682 94.5026 82.5327C94.94 82.6971 95.4062 82.7713 95.8731 82.7506H108.563C109.093 82.7383 109.596 82.5187 109.966 82.139C110.336 81.7593 110.541 81.2498 110.54 80.72Z" fill="#F5F5F5"/>
<path d="M118.783 116.138C118.783 115.601 118.997 115.086 119.376 114.707C119.756 114.327 120.271 114.114 120.807 114.114C121.006 114.116 121.204 114.145 121.394 114.202C121.362 113.997 121.346 113.789 121.347 113.581C121.347 113.018 121.458 112.46 121.674 111.939C121.889 111.419 122.205 110.946 122.604 110.547C123.002 110.149 123.475 109.833 123.996 109.617C124.516 109.402 125.074 109.291 125.638 109.291C125.903 109.291 126.167 109.316 126.427 109.365C126.85 108.669 127.487 108.13 128.244 107.829C129 107.528 129.833 107.481 130.618 107.695C131.403 107.909 132.098 108.372 132.596 109.016C133.095 109.659 133.371 110.447 133.382 111.26H133.443C134.334 111.3 135.175 111.681 135.791 112.325C136.407 112.969 136.751 113.826 136.751 114.718C136.751 115.609 136.407 116.466 135.791 117.11C135.175 117.755 134.334 118.136 133.443 118.175H120.753C120.224 118.161 119.721 117.94 119.352 117.559C118.984 117.178 118.78 116.668 118.783 116.138Z" fill="#F5F5F5"/>
<path d="M270.663 71.5112C270.662 71.1955 270.736 70.884 270.877 70.6017C271.018 70.3193 271.224 70.0739 271.477 69.8851C271.73 69.6963 272.023 69.5693 272.334 69.5143C272.645 69.4593 272.965 69.4778 273.267 69.5683C273.24 69.3625 273.226 69.1552 273.227 68.9477C273.226 68.3845 273.336 67.8267 273.551 67.3062C273.766 66.7857 274.081 66.3126 274.479 65.9141C274.877 65.5156 275.349 65.1995 275.87 64.9837C276.39 64.768 276.947 64.657 277.51 64.657C277.778 64.6577 278.044 64.6825 278.307 64.7312C278.728 64.0342 279.365 63.4934 280.121 63.191C280.877 62.8885 281.711 62.8409 282.497 63.0552C283.282 63.2696 283.977 63.7342 284.475 64.3788C284.972 65.0233 285.246 65.8126 285.255 66.6269H285.323C286.213 66.6663 287.054 67.0477 287.671 67.6918C288.287 68.3359 288.631 69.193 288.631 70.0844C288.631 70.9758 288.287 71.8329 287.671 72.477C287.054 73.1211 286.213 73.5025 285.323 73.5419H272.687C272.421 73.5419 272.157 73.4893 271.911 73.3872C271.665 73.285 271.441 73.1354 271.253 72.9467C271.065 72.7581 270.916 72.5341 270.815 72.2878C270.714 72.0415 270.662 71.7776 270.663 71.5112Z" fill="#F5F5F5"/>
<path d="M168.794 288.762C241.035 288.762 299.598 285.343 299.598 281.125C299.598 276.908 241.035 273.488 168.794 273.488C96.5531 273.488 37.9902 276.908 37.9902 281.125C37.9902 285.343 96.5531 288.762 168.794 288.762Z" fill="#F5F5F5"/>
<path d="M31.5406 228.504H306.047C306.931 228.504 307.779 228.855 308.404 229.48C309.029 230.105 309.38 230.953 309.38 231.837V258.093H28.2079V231.837C28.2079 230.953 28.559 230.105 29.184 229.48C29.809 228.855 30.6567 228.504 31.5406 228.504Z" fill="#E0E0E0"/>
<path d="M191.832 230.737L190.76 229.692H164.807L163.586 230.737H191.832Z" fill="#F0F0F0"/>
<path d="M162.959 231.27L160.159 233.672H194.862L192.386 231.27H162.959Z" fill="#F0F0F0"/>
<path d="M159.538 234.205L154.242 238.745H200.09L195.415 234.205H159.538Z" fill="#F0F0F0"/>
<path d="M201.466 240.081H152.684L143.644 247.819H209.44L201.466 240.081Z" fill="#F0F0F0"/>
<path d="M211.64 249.951H141.154L132.431 257.425H219.344L211.64 249.951Z" fill="#F0F0F0"/>
<path d="M184.56 258.275H183.784V253.216H184.56V258.275ZM184.56 250.052H183.784V244.992H184.56V250.052ZM184.56 241.828H183.784V236.768H184.56V241.828ZM184.56 233.611H183.784V228.545H184.56V233.611ZM184.56 225.387H183.784V220.321H184.56V225.387ZM184.56 217.164H183.784V212.104H184.56V217.164ZM184.56 208.94H183.784V203.88H184.56V208.94ZM184.56 200.716H183.784V195.656H184.56V200.716ZM184.56 192.492H183.784V187.433H184.56V192.492ZM184.56 184.269H183.784V179.209H184.56V184.269ZM184.56 176.045H183.784V170.999H184.56V176.045ZM184.56 167.821H183.784V162.761H184.56V167.821ZM184.56 159.597H183.784V154.538H184.56V159.597ZM184.56 151.374H183.784V146.314H184.56V151.374ZM184.56 143.15H183.784V138.09H184.56V143.15ZM184.56 134.926H183.784V129.846H184.56V134.926ZM184.56 126.703H183.784V121.643H184.56V126.703ZM184.56 118.479H183.784V113.419H184.56V118.479ZM184.56 110.255H183.784V105.195H184.56V110.255ZM184.56 102.031H183.784V96.9717H184.56V102.031ZM184.56 93.8144H183.784V88.7479H184.56V93.8144ZM184.56 85.5907H183.784V80.5242H184.56V85.5907ZM184.56 77.3669H183.784V72.3072H184.56V77.3669ZM184.56 69.1432H183.784V64.0835H184.56V69.1432Z" fill="#263238"/>
<g opacity="0.7">
<path opacity="0.7" d="M184.56 258.275H183.784V253.216H184.56V258.275ZM184.56 250.052H183.784V244.992H184.56V250.052ZM184.56 241.828H183.784V236.768H184.56V241.828ZM184.56 233.611H183.784V228.545H184.56V233.611ZM184.56 225.387H183.784V220.321H184.56V225.387ZM184.56 217.164H183.784V212.104H184.56V217.164ZM184.56 208.94H183.784V203.88H184.56V208.94ZM184.56 200.716H183.784V195.656H184.56V200.716ZM184.56 192.492H183.784V187.433H184.56V192.492ZM184.56 184.269H183.784V179.209H184.56V184.269ZM184.56 176.045H183.784V170.999H184.56V176.045ZM184.56 167.821H183.784V162.761H184.56V167.821ZM184.56 159.597H183.784V154.538H184.56V159.597ZM184.56 151.374H183.784V146.314H184.56V151.374ZM184.56 143.15H183.784V138.09H184.56V143.15ZM184.56 134.926H183.784V129.846H184.56V134.926ZM184.56 126.703H183.784V121.643H184.56V126.703ZM184.56 118.479H183.784V113.419H184.56V118.479ZM184.56 110.255H183.784V105.195H184.56V110.255ZM184.56 102.031H183.784V96.9717H184.56V102.031ZM184.56 93.8144H183.784V88.7479H184.56V93.8144ZM184.56 85.5907H183.784V80.5242H184.56V85.5907ZM184.56 77.3669H183.784V72.3072H184.56V77.3669ZM184.56 69.1432H183.784V64.0835H184.56V69.1432Z" fill="white"/>
</g>
<path d="M181.99 173.252H100.724V228.929H181.99V173.252Z" fill="#263238"/>
<path opacity="0.8" d="M181.99 173.252H100.724V228.929H181.99V173.252Z" fill="white"/>
<path opacity="0.05" d="M163.289 173.252H100.724V228.929H163.289V173.252Z" fill="black"/>
<path d="M181.989 187.736H169.124V228.929H181.989V187.736Z" fill="#263238"/>
<path opacity="0.1" d="M181.989 187.736H169.124V228.929H181.989V187.736Z" fill="white"/>
<path d="M142.186 200.392H135.015V212.198H142.186V200.392Z" fill="#263238"/>
<path d="M142.186 187.736H135.015V199.542H142.186V187.736Z" fill="#263238"/>
<path d="M150.403 200.392H143.036V212.198H150.403V200.392Z" fill="#263238"/>
<path d="M150.403 187.736H143.036V199.542H150.403V187.736Z" fill="#263238"/>
<path opacity="0.5" d="M142.186 200.392H135.015V212.198H142.186V200.392Z" fill="white"/>
<path opacity="0.5" d="M142.186 187.736H135.015V199.542H142.186V187.736Z" fill="white"/>
<path opacity="0.5" d="M150.403 200.392H143.036V212.198H150.403V200.392Z" fill="white"/>
<path opacity="0.5" d="M150.403 187.736H143.036V199.542H150.403V187.736Z" fill="white"/>
<path opacity="0.3" d="M135.022 187.736V193.579L136.58 187.736H135.022Z" fill="white"/>
<path opacity="0.3" d="M135.022 200.392V204.879L136.216 200.392H135.022Z" fill="white"/>
<path opacity="0.3" d="M139.609 187.736L136.452 199.542H135.211L138.368 187.736H139.609Z" fill="white"/>
<path opacity="0.3" d="M150.403 200.392H148.71L145.553 212.205H149.297L150.403 208.097V200.392Z" fill="white"/>
<path opacity="0.3" d="M150.404 194.098L148.94 199.542H150.404V194.098Z" fill="white"/>
<path d="M117.104 200.392H109.932V212.198H117.104V200.392Z" fill="#263238"/>
<path d="M117.104 187.736H109.932V199.542H117.104V187.736Z" fill="#263238"/>
<path d="M125.321 200.392H117.954V212.198H125.321V200.392Z" fill="#263238"/>
<path d="M125.321 187.736H117.954V199.542H125.321V187.736Z" fill="#263238"/>
<path opacity="0.5" d="M117.104 200.392H109.932V212.198H117.104V200.392Z" fill="white"/>
<path opacity="0.5" d="M117.104 187.736H109.932V199.542H117.104V187.736Z" fill="white"/>
<path opacity="0.5" d="M125.321 200.392H117.954V212.198H125.321V200.392Z" fill="white"/>
<path opacity="0.5" d="M125.321 187.736H117.954V199.542H125.321V187.736Z" fill="white"/>
<path opacity="0.3" d="M109.932 187.736V193.579L111.498 187.736H109.932Z" fill="white"/>
<path opacity="0.3" d="M109.932 200.392V204.879L111.133 200.392H109.932Z" fill="white"/>
<path opacity="0.3" d="M114.526 187.736L111.369 199.542H110.121L113.285 187.736H114.526Z" fill="white"/>
<path opacity="0.3" d="M125.314 200.392H123.628L120.464 212.205H124.214L125.314 208.097V200.392Z" fill="white"/>
<path opacity="0.3" d="M125.314 194.098L123.857 199.542H125.314V194.098Z" fill="white"/>
<path d="M125.988 183.81H107.632V186.124H125.988V183.81Z" fill="#263238"/>
<path opacity="0.4" d="M125.989 183.81H123.675V186.124H125.989V183.81Z" fill="white"/>
<path d="M151.071 183.81H132.714V186.124H151.071V183.81Z" fill="#263238"/>
<path opacity="0.4" d="M151.071 183.81H148.757V186.124H151.071V183.81Z" fill="white"/>
<path d="M181.99 133.537H108.462V171.424H181.99V133.537Z" fill="#263238"/>
<path opacity="0.8" d="M181.99 133.537H108.462V171.424H181.99V133.537Z" fill="white"/>
<path opacity="0.05" d="M162.452 133.537H108.462V171.424H162.452V133.537Z" fill="black"/>
<path d="M181.99 120.685V133.537H103.996L107.099 131.101L120.369 120.685H181.99Z" fill="#263238"/>
<path opacity="0.4" d="M181.99 120.685V132.471H163.161L163.08 131.101L162.452 120.685H181.99Z" fill="white"/>
<path d="M181.99 131.101H102.511V134.71H181.99V131.101Z" fill="#263238"/>
<path opacity="0.4" d="M181.99 131.101H102.511V134.71H181.99V131.101Z" fill="white"/>
<path opacity="0.4" d="M181.989 131.101H163.538V134.71H181.989V131.101Z" fill="white"/>
<path d="M146.727 156.319H139.555V168.125H146.727V156.319Z" fill="#263238"/>
<path d="M146.727 143.663H139.555V155.469H146.727V143.663Z" fill="#263238"/>
<path d="M154.937 156.319H147.57V168.125H154.937V156.319Z" fill="#263238"/>
<path d="M154.937 143.663H147.57V155.469H154.937V143.663Z" fill="#263238"/>
<path opacity="0.5" d="M146.727 156.319H139.555V168.125H146.727V156.319Z" fill="white"/>
<path opacity="0.5" d="M146.727 143.663H139.555V155.469H146.727V143.663Z" fill="white"/>
<path opacity="0.5" d="M154.937 156.319H147.57V168.125H154.937V156.319Z" fill="white"/>
<path opacity="0.5" d="M154.937 143.663H147.57V155.469H154.937V143.663Z" fill="white"/>
<path opacity="0.3" d="M139.555 143.663V149.505L141.121 143.663H139.555Z" fill="white"/>
<path opacity="0.3" d="M139.555 156.319V160.805L140.756 156.319H139.555Z" fill="white"/>
<path opacity="0.3" d="M144.149 143.663L140.985 155.469H139.744L142.908 143.663H144.149Z" fill="white"/>
<path opacity="0.3" d="M154.937 156.319H153.25L150.086 168.132H153.837L154.937 164.023V156.319Z" fill="white"/>
<path opacity="0.3" d="M154.937 150.025L153.48 155.469H154.937V150.025Z" fill="white"/>
<path d="M121.644 156.319H114.473V168.125H121.644V156.319Z" fill="#263238"/>
<path d="M121.644 143.663H114.473V155.469H121.644V143.663Z" fill="#263238"/>
<path d="M129.854 156.319H122.487V168.125H129.854V156.319Z" fill="#263238"/>
<path d="M129.854 143.663H122.487V155.469H129.854V143.663Z" fill="#263238"/>
<path opacity="0.5" d="M121.644 156.319H114.473V168.125H121.644V156.319Z" fill="white"/>
<path opacity="0.5" d="M121.644 143.663H114.473V155.469H121.644V143.663Z" fill="white"/>
<path opacity="0.5" d="M129.854 156.319H122.487V168.125H129.854V156.319Z" fill="white"/>
<path opacity="0.5" d="M129.854 143.663H122.487V155.469H129.854V143.663Z" fill="white"/>
<path opacity="0.3" d="M114.473 143.663V149.505L116.031 143.663H114.473Z" fill="white"/>
<path opacity="0.3" d="M114.473 156.319V160.805L115.673 156.319H114.473Z" fill="white"/>
<path opacity="0.3" d="M119.06 143.663L115.903 155.469H114.661L117.819 143.663H119.06Z" fill="white"/>
<path opacity="0.3" d="M129.854 156.319H128.161L125.004 168.132H128.755L129.854 164.023V156.319Z" fill="white"/>
<path opacity="0.3" d="M129.854 150.025L128.397 155.469H129.854V150.025Z" fill="white"/>
<path d="M130.522 139.737H112.165V142.051H130.522V139.737Z" fill="#263238"/>
<path opacity="0.4" d="M130.529 139.737H128.215V142.051H130.529V139.737Z" fill="white"/>
<path d="M155.612 139.737H137.255V142.051H155.612V139.737Z" fill="#263238"/>
<path opacity="0.4" d="M155.612 139.737H153.298V142.051H155.612V139.737Z" fill="white"/>
<path d="M176.201 156.319H169.03V168.125H176.201V156.319Z" fill="#263238"/>
<path d="M176.201 143.663H169.03V155.469H176.201V143.663Z" fill="#263238"/>
<path d="M181.99 156.319H177.045V168.132H181.99V156.319Z" fill="#263238"/>
<path d="M181.99 143.663H177.045V155.469H181.99V143.663Z" fill="#263238"/>
<path opacity="0.5" d="M176.201 156.319H169.03V168.125H176.201V156.319Z" fill="white"/>
<path opacity="0.5" d="M176.201 143.663H169.03V155.469H176.201V143.663Z" fill="white"/>
<path opacity="0.5" d="M181.99 156.319H177.045V168.132H181.99V156.319Z" fill="white"/>
<path opacity="0.5" d="M181.99 143.663H177.045V155.469H181.99V143.663Z" fill="white"/>
<path opacity="0.3" d="M169.03 143.663V149.505L170.595 143.663H169.03Z" fill="white"/>
<path opacity="0.3" d="M169.03 156.319V160.805L170.231 156.319H169.03Z" fill="white"/>
<path opacity="0.3" d="M173.624 143.663L170.46 155.469H169.219L172.383 143.663H173.624Z" fill="white"/>
<path opacity="0.3" d="M181.989 159.065V168.132H179.561L181.989 159.065Z" fill="white"/>
<path d="M181.99 139.737H167.984V142.051H181.99V139.737Z" fill="#263238"/>
<path opacity="0.4" d="M167.984 142.05H170.298V139.736H167.984V142.05Z" fill="white"/>
<path d="M181.99 171.478V178.75H92.0818L95.1783 176.436L101.823 171.478H181.99Z" fill="#263238"/>
<path opacity="0.4" d="M181.989 171.478V177.732H163.161L163.08 176.436L162.877 173.252L162.763 171.478H181.989Z" fill="white"/>
<path d="M181.99 176.436H90.5975V179.864H181.99V176.436Z" fill="#263238"/>
<path opacity="0.4" d="M181.99 176.436H90.5975V179.864H181.99V176.436Z" fill="white"/>
<path opacity="0.4" d="M181.989 176.436H163.538V179.864H181.989V176.436Z" fill="white"/>
<path d="M181.99 227.668V228.929H95.88L97.688 227.668H181.99Z" fill="#263238"/>
<path d="M158.169 83.9717H122.042C121.384 83.9717 120.752 84.2332 120.287 84.6988C119.821 85.1644 119.56 85.7959 119.56 86.4543V97.4575C119.56 98.1159 119.821 98.7474 120.287 99.213C120.752 99.6786 121.384 99.9401 122.042 99.9401H138.132L140.109 106.686L142.079 99.9401H158.169C158.827 99.9401 159.458 99.6786 159.924 99.213C160.39 98.7474 160.651 98.1159 160.651 97.4575V86.4206C160.642 85.768 160.377 85.1452 159.912 84.6869C159.448 84.2285 158.821 83.9716 158.169 83.9717Z" fill="#223C6A"/>
<path d="M129.733 92.7418C129.733 93.6121 129.058 94.0911 127.797 94.0911H125.388V89.0381H127.641C128.802 89.0381 129.449 89.5306 129.449 90.3401C129.459 90.5733 129.401 90.8043 129.281 91.0045C129.161 91.2047 128.985 91.3654 128.775 91.4668C129.06 91.5304 129.313 91.6938 129.489 91.9276C129.665 92.1613 129.751 92.45 129.733 92.7418ZM126.11 89.6385V91.2576H127.587C128.323 91.2576 128.741 90.981 128.741 90.4481C128.741 89.9151 128.323 89.6385 127.587 89.6385H126.11ZM129.004 92.6878C129.004 92.1009 128.566 91.8445 127.77 91.8445H126.11V93.5244H127.77C128.566 93.5041 128.991 93.2478 128.991 92.6676L129.004 92.6878Z" fill="white"/>
<path d="M134.516 93.4569V94.0911H130.846V89.0381H134.388V89.6655H131.541V91.2171H134.078V91.8311H131.541V93.4569H134.516Z" fill="white"/>
<path d="M136.412 89.6655V91.4263H138.942V92.0672H136.412V94.0911H135.69V89.0381H139.252V89.6655H136.412Z" fill="white"/>
<path d="M139.785 91.5613C139.762 91.0232 139.9 90.4907 140.183 90.0321C140.465 89.5735 140.878 89.2098 141.369 88.9879C141.859 88.766 142.405 88.6959 142.936 88.7867C143.467 88.8775 143.958 89.125 144.347 89.4975C144.736 89.8699 145.005 90.3502 145.118 90.8765C145.232 91.4028 145.186 91.9512 144.985 92.451C144.785 92.9508 144.44 93.3792 143.994 93.6811C143.548 93.983 143.022 94.1446 142.483 94.1451C142.134 94.1625 141.785 94.1085 141.457 93.9863C141.129 93.8641 140.83 93.6764 140.577 93.4345C140.325 93.1926 140.124 92.9017 139.988 92.5796C139.852 92.2575 139.782 91.911 139.785 91.5613ZM144.433 91.5613C144.437 91.1719 144.325 90.7901 144.111 90.4644C143.898 90.1388 143.592 89.884 143.234 89.7325C142.875 89.581 142.479 89.5396 142.097 89.6136C141.714 89.6876 141.363 89.8737 141.086 90.1481C140.81 90.4225 140.622 90.7729 140.545 91.1547C140.468 91.5365 140.507 91.9325 140.656 92.2922C140.805 92.652 141.058 92.9594 141.382 93.1752C141.706 93.391 142.087 93.5055 142.476 93.5042C142.735 93.5135 142.993 93.4697 143.234 93.3757C143.475 93.2816 143.694 93.1391 143.878 92.9571C144.062 92.7751 144.207 92.5573 144.303 92.3173C144.4 92.0772 144.446 91.8199 144.44 91.5613H144.433Z" fill="white"/>
<path d="M149.641 94.0911L148.555 92.5394H148.238H146.99V94.0911H146.261V89.0381H148.231C149.547 89.0381 150.343 89.7127 150.343 90.7989C150.359 91.1499 150.259 91.4964 150.057 91.7844C149.856 92.0724 149.565 92.2857 149.23 92.391L150.424 94.0911H149.641ZM149.641 90.7989C149.641 90.077 149.156 89.6655 148.231 89.6655H147.003V91.939H148.231C149.135 91.939 149.621 91.5207 149.621 90.7989H149.641Z" fill="white"/>
<path d="M155.173 93.4569V94.0911H151.51V89.0381H155.072V89.6655H152.231V91.2171H154.761V91.8311H152.231V93.4569H155.173Z" fill="white"/>
<path d="M281.909 124.281H280.006V175.175H281.909V124.281Z" fill="#223C6A"/>
<path d="M222.609 166.391H186.294V228.929H222.609V166.391Z" fill="#223C6A"/>
<path opacity="0.8" d="M222.609 166.391H186.294V228.929H222.609V166.391Z" fill="white"/>
<path d="M262.088 176.922H220.349V228.929H262.088V176.922Z" fill="#223C6A"/>
<path opacity="0.4" d="M262.095 176.915H220.356V228.922H262.095V176.915Z" fill="white"/>
<path opacity="0.1" d="M262.095 176.915V197.006L237.964 207.361V228.929H220.356V176.915H262.095Z" fill="black"/>
<path d="M279.21 179.283H276.04V228.929H279.21V179.283Z" fill="#223C6A"/>
<path d="M271.837 179.283H268.666V228.929H271.837V179.283Z" fill="#223C6A"/>
<path d="M264.456 179.283H261.286V228.929H264.456V179.283Z" fill="#223C6A"/>
<path d="M257.083 179.283H253.912V228.929H257.083V179.283Z" fill="#223C6A"/>
<path d="M249.702 179.283H246.532V228.929H249.702V179.283Z" fill="#223C6A"/>
<path d="M239.077 160.09V161.554H244.312V162.971H239.077V163.355H244.312V164.812H239.077V165.19H244.312V166.647H239.077V167.025H244.312V168.482H239.077V168.867H244.312V170.324H239.077V170.702H244.312V172.159H239.077V172.544H244.312V174.001H239.077V174.372H244.312V175.175H245.418V174.372H260.179V175.175H261.286V174.372H276.06V175.175H277.173V161.554H279.237V160.097L239.077 160.09ZM245.418 161.547H260.179V162.964H245.418V161.547ZM245.418 163.349H260.179V164.806H245.418V163.349ZM245.418 165.184H260.179V166.641H245.418V165.184ZM245.418 167.019H260.179V168.476H245.418V167.019ZM245.418 168.86H260.179V170.324H245.418V168.86ZM245.418 170.695H260.179V172.152H245.418V170.695ZM245.418 173.994V172.537H260.179V173.994H245.418ZM261.286 161.554H276.06V162.971H261.286V161.554ZM261.286 163.355H276.06V164.812H261.286V163.355ZM261.286 165.19H276.06V166.647H261.286V165.19ZM261.286 167.025H276.06V168.482H261.286V167.025ZM261.286 168.867H276.06V170.324H261.286V168.867ZM261.286 170.702H276.06V172.159H261.286V170.702ZM261.286 174.001V172.544H276.06V174.001H261.286Z" fill="#223C6A"/>
<g opacity="0.2">
<path opacity="0.2" d="M239.077 160.09V161.554H244.312V162.971H239.077V163.355H244.312V164.812H239.077V165.19H244.312V166.647H239.077V167.025H244.312V168.482H239.077V168.867H244.312V170.324H239.077V170.702H244.312V172.159H239.077V172.544H244.312V174.001H239.077V174.372H244.312V175.175H245.418V174.372H260.179V175.175H261.286V174.372H276.06V175.175H277.173V161.554H279.237V160.097L239.077 160.09ZM245.418 161.547H260.179V162.964H245.418V161.547ZM245.418 163.349H260.179V164.806H245.418V163.349ZM245.418 165.184H260.179V166.641H245.418V165.184ZM245.418 167.019H260.179V168.476H245.418V167.019ZM245.418 168.86H260.179V170.324H245.418V168.86ZM245.418 170.695H260.179V172.152H245.418V170.695ZM245.418 173.994V172.537H260.179V173.994H245.418ZM261.286 161.554H276.06V162.971H261.286V161.554ZM261.286 163.355H276.06V164.812H261.286V163.355ZM261.286 165.19H276.06V166.647H261.286V165.19ZM261.286 167.025H276.06V168.482H261.286V167.025ZM261.286 168.867H276.06V170.324H261.286V168.867ZM261.286 170.702H276.06V172.159H261.286V170.702ZM261.286 174.001V172.544H276.06V174.001H261.286Z" fill="black"/>
</g>
<path d="M240.662 124.281H186.294V174.783H240.662V124.281Z" fill="#223C6A"/>
<path opacity="0.8" d="M240.662 124.281H186.294V174.783H240.662V124.281Z" fill="white"/>
<path d="M235.832 131.466H186.294V174.783H235.832V131.466Z" fill="#223C6A"/>
<path opacity="0.1" d="M186.294 131.466V134.778H232.56V171.97H186.294V174.783H235.832V131.466H186.294Z" fill="white"/>
<path d="M229.079 134.778H186.294V171.464H229.079V134.778Z" fill="#223C6A"/>
<path opacity="0.5" d="M229.079 134.778H186.294V171.464H229.079V134.778Z" fill="white"/>
<path opacity="0.3" d="M229.079 134.778V155.017L224.673 171.464H216.227L226.049 134.778H229.079Z" fill="white"/>
<path opacity="0.3" d="M223.661 134.778L213.839 171.464H212.611L222.434 134.778H223.661Z" fill="white"/>
<path d="M223.662 207.989V187.736H227.966V184.208H196.17V211.578H227.966V207.989H223.662Z" fill="#223C6A"/>
<path d="M224.579 187.736H202.606V207.995H224.579V187.736Z" fill="black"/>
<path d="M224.579 187.736H202.606V207.995H224.579V187.736Z" fill="#223C6A"/>
<path opacity="0.5" d="M224.579 187.736H202.606V207.995H224.579V187.736Z" fill="white"/>
<path opacity="0.3" d="M217.543 187.736L212.125 207.989H203.679L209.096 187.736H217.543Z" fill="white"/>
<path opacity="0.3" d="M222.562 187.736L217.144 207.989H214.709L220.133 187.736H222.562Z" fill="white"/>
<path opacity="0.1" d="M199.173 184.208H196.17V211.578H199.173V184.208Z" fill="black"/>
<path d="M194.734 179.33H186.8V228.929H194.734V179.33Z" fill="#223C6A"/>
<path opacity="0.3" d="M194.734 179.33H186.8V228.929H194.734V179.33Z" fill="white"/>
<path opacity="0.2" d="M194.734 179.33H190.767V228.929H194.734V179.33Z" fill="white"/>
<path d="M254.553 179.33H246.619V228.929H254.553V179.33Z" fill="#223C6A"/>
<path opacity="0.3" d="M254.553 179.33H246.619V228.929H254.553V179.33Z" fill="white"/>
<path opacity="0.2" d="M254.553 179.33H250.586V228.929H254.553V179.33Z" fill="white"/>
<path d="M286.233 174.783H186.294V179.931H286.233V174.783Z" fill="#223C6A"/>
<path opacity="0.3" d="M286.233 174.783H186.294V179.931H286.233V174.783Z" fill="white"/>
<path opacity="0.2" d="M254.553 174.783H190.767V179.931H254.553V174.783Z" fill="white"/>
<path d="M283.825 120.638H186.294V125.785H283.825V120.638Z" fill="#223C6A"/>
<path opacity="0.3" d="M283.825 120.638H186.294V125.785H283.825V120.638Z" fill="white"/>
<path opacity="0.2" d="M283.825 120.638H190.767V125.785H283.825V120.638Z" fill="white"/>
<path d="M291.36 228.929H186.294V227.668H289.552L291.36 228.929Z" fill="#223C6A"/>
<path d="M253.122 83.9717H217.023C216.697 83.9717 216.374 84.0359 216.073 84.1607C215.772 84.2854 215.498 84.4683 215.268 84.6988C215.037 84.9294 214.854 85.203 214.729 85.5043C214.605 85.8055 214.54 86.1283 214.54 86.4543V97.4575C214.54 97.7835 214.605 98.1064 214.729 98.4076C214.854 98.7088 215.037 98.9825 215.268 99.213C215.498 99.4435 215.772 99.6264 216.073 99.7512C216.374 99.8759 216.697 99.9401 217.023 99.9401H233.113L235.09 106.686L237.06 99.9401H253.122C253.781 99.9401 254.412 99.6786 254.878 99.213C255.344 98.7474 255.605 98.1159 255.605 97.4575V86.4206C255.596 85.768 255.331 85.1452 254.866 84.6869C254.401 84.2285 253.775 83.9716 253.122 83.9717Z" fill="#223C6A"/>
<path d="M226.96 92.8228H224.262L223.702 94.0911H222.96L225.247 89.0381H225.962L228.255 94.0911H227.486L226.96 92.8228ZM226.704 92.2493L225.618 89.7734L224.525 92.2493H226.704Z" fill="white"/>
<path d="M229.74 89.6655V91.4263H232.276V92.0672H229.74V94.0911H229.018V89.0381H232.587V89.6655H229.74Z" fill="white"/>
<path d="M234.638 89.6655H232.884V89.0381H237.06V89.6655H235.326V94.0911H234.638V89.6655Z" fill="white"/>
<path d="M241.539 93.4569V94.0911H237.869V89.0381H241.438V89.6655H238.591V91.2171H241.127V91.8311H238.591V93.4569H241.539Z" fill="white"/>
<path d="M246.08 94.0911L245.027 92.5394H244.71H243.462V94.0911H242.74V89.0381H244.71C246.019 89.0381 246.815 89.7127 246.815 90.7989C246.831 91.1499 246.731 91.4964 246.529 91.7844C246.328 92.0724 246.037 92.2857 245.702 92.391L246.903 94.0911H246.08ZM246.08 90.7989C246.08 90.077 245.594 89.6655 244.676 89.6655H243.449V91.939H244.676C245.574 91.939 246.059 91.5207 246.059 90.7989H246.08Z" fill="white"/>
<path d="M59.5041 220.921C59.5041 220.921 56.0432 218.034 53.0816 220.921C50.12 223.809 49.5398 241.673 49.5398 241.673" stroke="#223C6A" stroke-miterlimit="10"/>
<path d="M49.2904 245.1C49.2904 245.1 51.3143 224.126 43.6572 215.315" stroke="#223C6A" stroke-miterlimit="10"/>
<path d="M50.0592 242.887C50.0592 242.887 48.4873 219.012 54.2486 213.716" stroke="#223C6A" stroke-miterlimit="10"/>
<path d="M49.2903 242.887C49.2903 242.887 49.1621 227.114 44.8782 224.672C40.5943 222.23 38.4153 230.218 38.4153 230.218" stroke="#223C6A" stroke-miterlimit="10"/>
<path d="M50.9834 242.887C50.9834 242.887 50.3088 230.778 53.601 226.447C56.8932 222.115 60.408 228.302 60.408 228.302" stroke="#223C6A" stroke-miterlimit="10"/>
<path d="M49.8301 244.533C49.8301 244.533 51.9754 216.199 48.4269 211.409" stroke="#223C6A" stroke-miterlimit="10"/>
<path d="M41.2149 226.993C41.2149 226.993 43.3467 227.776 42.7126 229.637C42.0784 231.499 35.3321 234.549 35.3321 234.549C35.3321 234.549 32.5054 231.958 35.1028 227.749C37.7001 223.539 41.1542 225.644 41.2149 226.993Z" fill="#223C6A"/>
<path opacity="0.2" d="M41.2149 226.993C41.2149 226.993 43.3467 227.776 42.7126 229.637C42.0784 231.499 35.3321 234.549 35.3321 234.549C35.3321 234.549 32.5054 231.958 35.1028 227.749C37.7001 223.539 41.1542 225.644 41.2149 226.993Z" fill="white"/>
<path d="M50.4907 223.424C50.4907 223.424 48.2172 223.33 48.0891 225.286C47.9609 227.243 53.0139 232.66 53.0139 232.66C53.0139 232.66 56.6164 231.358 55.8473 226.474C55.0782 221.589 51.0574 222.217 50.4907 223.424Z" fill="#223C6A"/>
<path opacity="0.2" d="M50.4907 223.424C50.4907 223.424 48.2172 223.33 48.0891 225.286C47.9609 227.243 53.0139 232.66 53.0139 232.66C53.0139 232.66 56.6164 231.358 55.8473 226.474C55.0782 221.589 51.0574 222.217 50.4907 223.424Z" fill="white"/>
<path d="M52.4136 214.047C52.4136 214.047 50.9025 213.885 51.0239 212.961C51.1453 212.036 56.9134 209.662 60.3135 213.507C60.3135 213.507 58.1345 217.245 54.984 217.299C51.8335 217.352 52.4136 214.047 52.4136 214.047Z" fill="#223C6A"/>
<path opacity="0.2" d="M52.4136 214.047C52.4136 214.047 50.9025 213.885 51.0239 212.961C51.1453 212.036 56.9134 209.662 60.3135 213.507C60.3135 213.507 58.1345 217.245 54.984 217.299C51.8335 217.352 52.4136 214.047 52.4136 214.047Z" fill="white"/>
<path d="M49.594 211.807C49.594 211.807 50.9433 212.482 51.348 211.625C51.7528 210.768 48.0963 205.708 43.1783 207.166C43.1783 207.166 43.0433 211.497 45.6946 213.204C48.3459 214.91 49.594 211.807 49.594 211.807Z" fill="#223C6A"/>
<path opacity="0.2" d="M49.594 211.807C49.594 211.807 50.9433 212.482 51.348 211.625C51.7528 210.768 48.0963 205.708 43.1783 207.166C43.1783 207.166 43.0433 211.497 45.6946 213.204C48.3459 214.91 49.594 211.807 49.594 211.807Z" fill="white"/>
<path d="M56.7653 226.21C56.7653 226.21 55.7197 225.367 56.8463 224.956C57.9729 224.544 63.5116 224.659 63.5926 230.144C63.5926 230.144 57.1431 231.216 56.3471 229.125C55.551 227.033 56.7653 226.21 56.7653 226.21Z" fill="#223C6A"/>
<path opacity="0.2" d="M56.7653 226.21C56.7653 226.21 55.7197 225.367 56.8463 224.956C57.9729 224.544 63.5116 224.659 63.5926 230.144C63.5926 230.144 57.1431 231.216 56.3471 229.125C55.551 227.033 56.7653 226.21 56.7653 226.21Z" fill="white"/>
<path d="M43.6165 213.912C43.6165 213.912 44.6622 213.069 43.5356 212.65C42.409 212.232 36.8703 212.36 36.7893 217.845C36.7893 217.845 43.2388 218.918 44.0348 216.826C44.8309 214.735 43.6165 213.912 43.6165 213.912Z" fill="#223C6A"/>
<path opacity="0.2" d="M43.6165 213.912C43.6165 213.912 44.6622 213.069 43.5356 212.65C42.409 212.232 36.8703 212.36 36.7893 217.845C36.7893 217.845 43.2388 218.918 44.0348 216.826C44.8309 214.735 43.6165 213.912 43.6165 213.912Z" fill="white"/>
<path d="M47.0236 218.331C47.0236 218.331 47.118 217.298 46.2883 217.703C45.4585 218.108 42.571 221.218 45.5664 224.173C45.5664 224.173 49.6142 221.191 48.8653 219.639C48.1165 218.088 47.0236 218.331 47.0236 218.331Z" fill="#223C6A"/>
<path opacity="0.2" d="M47.0236 218.331C47.0236 218.331 47.118 217.298 46.2883 217.703C45.4585 218.108 42.571 221.218 45.5664 224.173C45.5664 224.173 49.6142 221.191 48.8653 219.639C48.1165 218.088 47.0236 218.331 47.0236 218.331Z" fill="white"/>
<path d="M57.7029 219.788C57.7029 219.788 57.0755 218.972 57.993 218.87C58.9104 218.769 63.0122 219.862 62.0407 223.957C62.0407 223.957 57.0417 223.586 56.8258 221.879C56.61 220.172 57.7029 219.788 57.7029 219.788Z" fill="#223C6A"/>
<path opacity="0.2" d="M57.7029 219.788C57.7029 219.788 57.0755 218.972 57.993 218.87C58.9104 218.769 63.0122 219.862 62.0407 223.957C62.0407 223.957 57.0417 223.586 56.8258 221.879C56.61 220.172 57.7029 219.788 57.7029 219.788Z" fill="white"/>
<path d="M40.8169 258.093H57.9659L59.8144 239.318H38.9684L40.8169 258.093Z" fill="#223C6A"/>
<path opacity="0.5" d="M40.8169 258.093H57.9659L59.8144 239.318H38.9684L40.8169 258.093Z" fill="white"/>
<path d="M38.051 241.39H60.7321V237.247H38.051V241.39Z" fill="#223C6A"/>
<path opacity="0.2" d="M38.051 241.39H60.7321V237.247H38.051V241.39Z" fill="white"/>
<path d="M289.688 242.435C289.688 242.435 292.764 235.689 289.249 229.091C285.734 222.493 284.709 220.921 286.955 219.572C289.202 218.223 290.227 224.868 290.227 224.868C291.338 221.86 291.451 218.575 290.551 215.497C288.993 210.707 288.014 202.902 290.146 202.065C292.278 201.229 290.551 211.8 292.4 215.403C293.345 212.874 293.955 210.231 294.214 207.543C294.471 203.698 294.066 197.552 295.752 195.973C297.439 194.395 298.512 195.488 296.859 203.981C295.865 209.056 295.317 214.207 295.219 219.376C295.219 219.376 298.869 208.238 301.325 207.908C303.781 207.577 303.774 211.186 301.676 214.317C299.578 217.447 295.523 223.053 294.862 225.941C294.862 225.941 298.876 217.555 302.478 220.125C306.081 222.696 299.341 227.755 296.333 229.57C293.324 231.385 291.239 242.867 291.239 242.867L289.688 242.435Z" fill="#223C6A"/>
<path opacity="0.6" d="M289.688 242.435C289.688 242.435 292.764 235.689 289.249 229.091C285.734 222.493 284.709 220.921 286.955 219.572C289.202 218.223 290.227 224.868 290.227 224.868C291.338 221.86 291.451 218.575 290.551 215.497C288.993 210.707 288.014 202.902 290.146 202.065C292.278 201.229 290.551 211.8 292.4 215.403C293.345 212.874 293.955 210.231 294.214 207.543C294.471 203.698 294.066 197.552 295.752 195.973C297.439 194.395 298.512 195.488 296.859 203.981C295.865 209.056 295.317 214.207 295.219 219.376C295.219 219.376 298.869 208.238 301.325 207.908C303.781 207.577 303.774 211.186 301.676 214.317C299.578 217.447 295.523 223.053 294.862 225.941C294.862 225.941 298.876 217.555 302.478 220.125C306.081 222.696 299.341 227.755 296.333 229.57C293.324 231.385 291.239 242.867 291.239 242.867L289.688 242.435Z" fill="white"/>
<path d="M292.116 245.208C292.116 245.208 289.121 238.462 292.717 231.871C296.312 225.279 297.351 223.775 295.125 222.365C292.899 220.955 291.792 227.62 291.792 227.62C290.713 224.592 290.638 221.297 291.577 218.223C293.196 213.453 294.275 205.668 292.143 204.798C290.011 203.927 291.617 214.526 289.728 218.101C288.817 215.558 288.241 212.907 288.014 210.215C287.805 206.363 288.278 200.224 286.611 198.625C284.945 197.026 283.852 198.092 285.41 206.612C286.339 211.701 286.822 216.862 286.854 222.034C286.854 222.034 283.333 210.836 280.884 210.478C278.435 210.121 278.394 213.723 280.459 216.88C282.523 220.038 286.497 225.711 287.131 228.605C287.131 228.605 283.218 220.159 279.582 222.675C275.945 225.192 282.624 230.359 285.613 232.235C288.601 234.11 290.551 245.606 290.551 245.606L292.116 245.208Z" fill="#223C6A"/>
<path opacity="0.7" d="M292.116 245.208C292.116 245.208 289.121 238.462 292.717 231.871C296.312 225.279 297.351 223.775 295.125 222.365C292.899 220.955 291.792 227.62 291.792 227.62C290.713 224.592 290.638 221.297 291.577 218.223C293.196 213.453 294.275 205.668 292.143 204.798C290.011 203.927 291.617 214.526 289.728 218.101C288.817 215.558 288.241 212.907 288.014 210.215C287.805 206.363 288.278 200.224 286.611 198.625C284.945 197.026 283.852 198.092 285.41 206.612C286.339 211.701 286.822 216.862 286.854 222.034C286.854 222.034 283.333 210.836 280.884 210.478C278.435 210.121 278.394 213.723 280.459 216.88C282.523 220.038 286.497 225.711 287.131 228.605C287.131 228.605 283.218 220.159 279.582 222.675C275.945 225.192 282.624 230.359 285.613 232.235C288.601 234.11 290.551 245.606 290.551 245.606L292.116 245.208Z" fill="white"/>
<path d="M278.286 240.364H303.059L301.055 258.093H280.29L278.286 240.364Z" fill="#223C6A"/>
<path d="M71.2559 79.3504C71.2559 75.1812 67.0732 71.7946 61.9055 71.7946C56.7379 71.7946 52.5552 75.1677 52.5552 79.3504C52.5552 83.0136 55.7732 86.0629 60.0503 86.7713C61.0236 88.8126 62.6465 90.4734 64.6648 91.4937C64.6648 91.4937 62.9917 90.2052 63.1469 86.832C67.7208 86.3463 71.2559 83.1823 71.2559 79.3504Z" fill="#223C6A"/>
<path opacity="0.8" d="M71.2559 79.3504C71.2559 75.1812 67.0732 71.7946 61.9055 71.7946C56.7379 71.7946 52.5552 75.1677 52.5552 79.3504C52.5552 83.0136 55.7732 86.0629 60.0503 86.7713C61.0236 88.8126 62.6465 90.4734 64.6648 91.4937C64.6648 91.4937 62.9917 90.2052 63.1469 86.832C67.7208 86.3463 71.2559 83.1823 71.2559 79.3504Z" fill="white"/>
<path d="M58.1545 76.1055C59.3621 74.6146 61.1836 75.4849 62.0067 76.8746C63.1535 75.7412 65.1369 75.3634 65.9263 77.1175C67.2755 80.0656 63.4639 82.1434 61.6963 82.9193L61.1971 83.1419C61.0757 83.0474 60.934 82.9395 60.7653 82.7978C59.2474 81.597 56.1306 78.6219 58.1545 76.1055Z" fill="#223C6A"/>
<path d="M109.629 137.942C108.199 141.545 103.328 142.3 99.3883 140.681C95.4484 139.062 90.0244 129.489 90.0244 129.489L95.5091 119.585L109.629 137.942Z" fill="#223C6A"/>
<path opacity="0.2" d="M109.629 137.942C108.199 141.545 103.328 142.3 99.3883 140.681C95.4484 139.062 90.0244 129.489 90.0244 129.489L95.5091 119.585L109.629 137.942Z" fill="black"/>
<path d="M72.5447 92.7756C73.4655 91.3333 74.7492 90.1584 76.2671 89.3687C77.7851 88.5789 79.4839 88.202 81.1934 88.2758C87.1167 88.5456 89.208 89.0786 90.0243 94.2867C90.8406 99.4949 91.2454 100.203 93.1141 101.316C94.9829 102.43 90.4966 104.878 91.2724 107.125C92.0482 109.371 94.4499 109.23 94.315 111.301C94.1801 113.372 91.549 113.325 91.2724 114.937C90.9958 116.549 92.3653 119.369 91.2724 121.636C90.1795 123.903 68.2743 131.405 65.3599 125.853C62.4455 120.3 67.0937 117.575 67.6266 114.937C68.1596 112.299 66.6417 112.421 66.5337 109.29C66.4258 106.16 68.5576 105.917 68.7803 104.157C69.0029 102.396 66.8306 100.783 67.4985 98.8C68.1663 96.8166 70.622 92.7756 72.5447 92.7756Z" fill="#263238"/>
<path d="M58.6202 268.051L55.8542 264.421L60.5497 259.895L64.8201 255.779L68.8341 259.53L63.4303 264.037L58.6202 268.051Z" fill="#FFB573"/>
<path d="M55.6925 263.315C56.0972 263.018 59.5379 268.172 59.5379 268.172C59.5379 268.172 58.7688 273.569 60.3204 277.003C61.8721 280.437 58.8295 280.167 56.3536 276.915L50.1538 268.82C48.3727 266.445 51.4693 266.385 55.6925 263.315Z" fill="#263238"/>
<path d="M60.705 272.058C59.9225 271.876 59.4165 269.65 59.3558 269.205C59.349 269.183 59.349 269.159 59.3558 269.137C59.3529 269.121 59.3529 269.105 59.3558 269.09C59.3558 269.09 59.3558 269.09 59.3558 269.049C59.3734 269.044 59.3921 269.044 59.4098 269.049C59.484 269.049 60.9344 268.564 61.717 269.049C61.8418 269.118 61.9493 269.215 62.0311 269.332C62.113 269.449 62.167 269.583 62.1892 269.724C62.2499 270.028 62.1892 270.243 62.0206 270.358C61.8519 270.473 61.2245 270.392 60.6713 270.156C61.02 270.478 61.2703 270.892 61.3932 271.35C61.4054 271.445 61.3987 271.541 61.3733 271.633C61.348 271.726 61.3045 271.812 61.2455 271.887C61.1865 271.963 61.1131 272.026 61.0296 272.072C60.9461 272.119 60.8541 272.149 60.759 272.159L60.705 272.058ZM60.7792 271.741C60.7792 271.741 60.9074 271.775 61.0626 271.572C61.1175 271.494 61.1393 271.397 61.1233 271.303C61.0558 270.79 60.2868 270.048 59.7741 269.589C59.9899 270.547 60.4082 271.653 60.7792 271.741ZM59.8752 269.232C60.7118 269.751 61.6293 270.163 61.8587 270.001C61.9329 269.953 61.9059 269.791 61.8587 269.704C61.8431 269.613 61.807 269.527 61.7533 269.452C61.6995 269.377 61.6294 269.316 61.5483 269.272C61.3197 269.153 61.0636 269.097 60.8062 269.11C60.4927 269.12 60.1809 269.161 59.8752 269.232Z" fill="#223C6A"/>
<path opacity="0.2" d="M63.4306 264.037L60.5499 259.895L64.8203 255.779L68.8344 259.53L63.4306 264.037Z" fill="black"/>
<path d="M86.3677 273.792H81.8072L81.0583 267.437L80.377 261.608L85.7942 260.724L86.0978 267.639L86.3677 273.792Z" fill="#FFB573"/>
<path d="M80.829 273.495C80.829 272.996 87.022 273.387 87.022 273.387C87.022 273.387 90.8202 277.253 94.5172 278.11C98.2141 278.966 96.1498 281.199 92.0211 281.199H81.8072C78.8725 281.213 80.7075 278.71 80.829 273.495Z" fill="#263238"/>
<path d="M87.7103 274.217L87.6563 274.183V274.136C87.6563 274.136 87.6563 274.102 87.6563 274.082C87.6531 274.06 87.6531 274.037 87.6563 274.015C87.6563 273.947 88.2027 272.51 89.0055 272.166C89.1317 272.109 89.2686 272.08 89.407 272.08C89.5453 272.08 89.6822 272.109 89.8084 272.166C90.085 272.301 90.2266 272.476 90.2131 272.686C90.2131 273.009 89.7544 273.36 89.2484 273.603C89.7171 273.525 90.1981 273.579 90.6382 273.758C90.7188 273.802 90.7897 273.861 90.8465 273.933C90.9034 274.005 90.9449 274.088 90.9687 274.176C91.0155 274.291 91.0263 274.416 90.9998 274.537C90.9733 274.657 90.9107 274.767 90.8203 274.851C90.6592 274.959 90.4673 275.011 90.2739 275C89.3803 274.89 88.5127 274.625 87.7103 274.217ZM88.2769 274.116C89.1877 274.5 90.3008 274.844 90.6112 274.601C90.6112 274.601 90.7124 274.521 90.6516 274.278C90.6403 274.231 90.6187 274.187 90.5883 274.15C90.558 274.113 90.5197 274.082 90.4762 274.062C90.2483 273.957 89.9979 273.911 89.7476 273.927C89.2534 273.929 88.7607 273.981 88.2769 274.082V274.116ZM89.1337 272.47C88.6409 272.79 88.2684 273.264 88.0746 273.819C88.9853 273.475 89.8691 272.996 89.8893 272.713C89.8893 272.632 89.7544 272.551 89.6667 272.51C89.5789 272.466 89.4818 272.442 89.3833 272.443C89.3017 272.422 89.2164 272.419 89.1337 272.436V272.47Z" fill="#223C6A"/>
<path opacity="0.2" d="M86.0978 267.781L81.0583 267.558L80.377 261.669L85.7942 260.758L86.0978 267.781Z" fill="black"/>
<path d="M97.7625 164.003C97.7625 164.003 108.557 195.872 110.668 209.878C112.78 223.883 67.5998 261.345 67.5998 261.345L62.702 256.13C62.702 256.13 95.6442 219.498 95.6442 213.197C95.6442 206.896 84.4386 178.116 84.4386 178.116C84.4386 178.116 83.1163 166.513 97.7625 164.003Z" fill="#263238"/>
<path opacity="0.2" d="M97.7625 164.003C97.7625 164.003 108.557 195.872 110.668 209.878C112.78 223.883 67.5998 261.345 67.5998 261.345L62.702 256.13C62.702 256.13 95.6442 219.498 95.6442 213.197C95.6442 206.896 84.4386 178.116 84.4386 178.116C84.4386 178.116 83.1163 166.513 97.7625 164.003Z" fill="white"/>
<path opacity="0.2" d="M88.5805 224.828L88.0004 243.906C83.1026 248.406 80.2219 250.942 76.5317 254.025C75.9515 251.516 74.5078 246.274 74.8181 241.747C79.6754 236.512 83.9323 230.413 88.5805 224.828Z" fill="black"/>
<path opacity="0.2" d="M90.139 193.484C87.346 185.841 84.6678 179.223 84.6678 179.223C84.6588 177.894 84.8731 176.574 85.3019 175.316C85.6806 175.089 86.0863 174.91 86.5095 174.783C86.5095 174.783 90.4493 181.28 90.139 193.484Z" fill="black"/>
<path d="M86.5298 173.535L87.4068 218.418V264.347H79.6351C61.4201 177.32 73.9008 155.503 73.9008 155.503H73.9412C73.9412 155.469 73.9412 155.428 73.9817 155.401C76.9163 148.878 96.15 153.688 96.15 153.688C97.4993 159.085 98.4168 170.061 98.4168 170.061L86.5298 173.535Z" fill="#263238"/>
<path opacity="0.2" d="M86.5298 173.535L87.4068 218.418V264.347H79.6351C61.4201 177.32 73.9008 155.503 73.9008 155.503H73.9412C73.9412 155.469 73.9412 155.428 73.9817 155.401C76.9163 148.878 96.15 153.688 96.15 153.688C97.4993 159.085 98.4168 170.061 98.4168 170.061L86.5298 173.535Z" fill="white"/>
<path d="M78.6567 263.241L88.2095 261.844L87.4067 265.663L79.527 266.722L78.6567 263.241Z" fill="#223C6A"/>
<path d="M62.6883 254.376L69.0973 261.338L65.8928 263.173L60.9478 257.932L62.6883 254.376Z" fill="#223C6A"/>
<path d="M98.862 161.554C95.2342 163.067 91.4583 164.198 87.5957 164.927C75.5198 167.295 69.7113 166.276 69.7113 166.276C71.4114 162.229 72.2277 156.481 72.2007 150.085C72.1741 146.767 71.9488 143.453 71.526 140.161C71.526 140.02 71.526 139.878 71.4721 139.736C71.155 137.308 70.7367 134.859 70.224 132.437C69.8597 130.714 69.4414 129.017 68.9692 127.344C68.6386 126.149 68.2946 124.982 67.9033 123.829C67.4783 122.533 67.0128 121.171 66.5135 119.72C69.5344 118.756 72.621 118.012 75.7492 117.494C79.0528 116.906 82.3938 116.552 85.7472 116.435C90.0851 116.401 95.0571 116.894 95.0571 116.894C95.0571 116.894 95.7655 117.062 96.2107 121.616C96.3389 122.965 96.096 126.338 95.8329 130.669C95.2595 139.966 95.9948 153.654 98.862 161.554Z" fill="#223C6A"/>
<path opacity="0.3" d="M79.1764 132.208C80.0871 130.676 80.8764 129.185 81.5173 127.877H80.3705C79.9522 128.733 79.4665 129.678 78.9268 130.663C79.0145 131.149 79.1022 131.668 79.1764 132.208Z" fill="white"/>
<path opacity="0.3" d="M83.2377 127.823L82.273 127.87C81.4972 129.469 80.4987 131.364 79.3181 133.267C79.3586 133.651 79.3923 134.049 79.4193 134.441C80.8395 132.323 82.1152 130.112 83.2377 127.823Z" fill="white"/>
<path opacity="0.3" d="M92.9051 147.643C92.8511 147.191 92.7972 146.699 92.7432 146.172C92.0078 147.461 91.178 148.804 90.274 150.106L91.4614 149.842C91.9674 149.114 92.4531 148.379 92.9051 147.643Z" fill="white"/>
<path opacity="0.3" d="M92.6148 145.019C92.5608 144.533 92.5136 144.041 92.4596 143.555C91.2647 145.954 89.896 148.263 88.3646 150.463L89.3091 150.294C90.5178 148.605 91.6218 146.843 92.6148 145.019Z" fill="white"/>
<path opacity="0.3" d="M87.4203 150.625C89.3028 147.994 90.9486 145.201 92.3383 142.28C92.2708 141.524 92.2101 140.809 92.1696 140.182C90.5365 143.923 88.5222 147.486 86.1587 150.814L87.4203 150.625Z" fill="white"/>
<path opacity="0.3" d="M79.4934 136.876C81.6881 134 83.5804 130.905 85.1401 127.64L84.0202 127.755C82.718 130.473 81.202 133.083 79.4867 135.561C79.4934 135.999 79.5002 136.438 79.4934 136.876Z" fill="white"/>
<path opacity="0.3" d="M92.4531 149.593L93.1277 149.404C93.1277 149.215 93.0738 148.972 93.0468 148.729C92.8444 149.006 92.6488 149.296 92.4531 149.593Z" fill="white"/>
<path opacity="0.3" d="M85.2143 150.956C87.9979 147.133 90.3127 142.991 92.109 138.617V138.367C92.109 138.279 92.4463 130.103 91.5356 126.224C89.7192 126.868 87.8402 127.321 85.9294 127.573C84.1847 131.313 82.0016 134.832 79.426 138.057C79.3665 138.83 79.2424 139.597 79.0549 140.35C79.4391 144.106 79.6035 147.882 79.5474 151.657C80.6605 151.515 82.8261 151.286 85.2143 150.956Z" fill="white"/>
<path opacity="0.3" d="M79.6282 127.863C79.1829 127.863 78.7377 127.823 78.2789 127.796C78.4004 128.268 78.5488 128.895 78.7039 129.624C79.0682 129.017 79.3516 128.423 79.6282 127.863Z" fill="white"/>
<path d="M84.0674 115.868C83.8058 115.04 83.6916 114.172 83.7301 113.305C83.7518 112.373 83.8397 111.444 83.9932 110.525L77.3818 109.291C77.3818 109.291 79.3585 113.19 78.0564 116.401C74.9991 116.939 72.0418 117.94 69.2863 119.369C73.3012 122.099 78.0908 123.457 82.9408 123.242C90.9688 122.837 93.836 117.305 93.836 117.305C90.6733 116.326 87.3782 115.841 84.0674 115.868Z" fill="#FFB573"/>
<path opacity="0.2" d="M83.9932 110.525C83.8397 111.444 83.7518 112.373 83.7301 113.305C80.5458 112.569 77.3818 109.291 77.3818 109.291L83.9932 110.525Z" fill="black"/>
<path opacity="0.1" d="M84.0674 115.868C83.8058 115.04 83.6916 114.172 83.7301 113.305C83.7518 112.373 83.8397 111.444 83.9932 110.525L77.3818 109.291C77.3818 109.291 79.3585 113.19 78.0564 116.401C74.9991 116.939 72.0418 117.94 69.2863 119.369C73.3012 122.099 78.0908 123.457 82.9408 123.242C90.9688 122.837 93.836 117.305 93.836 117.305C90.6733 116.326 87.3782 115.841 84.0674 115.868Z" fill="black"/>
<path d="M83.6761 111.962C83.0363 111.966 82.3975 111.914 81.7669 111.807C80.6421 111.615 79.5721 111.182 78.6301 110.538C77.6881 109.894 76.8964 109.054 76.3091 108.076C72.8145 102.598 74.2852 93.1668 80.991 92.8025C86.4285 92.5057 88.3377 95.3189 89.0461 100.898C89.8624 107.165 88.8774 111.888 83.6761 111.962Z" fill="#FFB573"/>
<path d="M85.511 100.783C85.9908 101.571 86.5638 102.298 87.2178 102.949C87.0688 103.18 86.8589 103.365 86.6112 103.484C86.3636 103.603 86.0879 103.651 85.8146 103.624L85.511 100.783Z" fill="#FFB573"/>
<path d="M82.1581 100.52C82.1581 100.966 81.9827 101.35 81.6859 101.37C81.3891 101.391 81.1192 101.053 81.0787 100.608C81.0383 100.163 81.2609 99.7782 81.5577 99.7579C81.8546 99.7377 82.1244 100.075 82.1581 100.52Z" fill="#263238"/>
<path d="M81.4362 99.7849L82.3739 99.3329C82.3739 99.3329 81.9556 100.163 81.4362 99.7849Z" fill="#263238"/>
<path d="M87.6971 99.994C87.7308 100.439 87.5217 100.824 87.2248 100.844C86.928 100.864 86.6582 100.527 86.6177 100.075C86.5772 99.623 86.7998 99.2519 87.0967 99.2317C87.3935 99.2115 87.6633 99.5488 87.6971 99.994Z" fill="#263238"/>
<path d="M86.9752 99.2588L87.9129 98.8C87.9129 98.8 87.4947 99.6568 86.9752 99.2588Z" fill="#263238"/>
<path d="M81.902 96.7896C81.4692 96.7605 81.0355 96.8311 80.6343 96.996C80.2331 97.1609 79.8752 97.4157 79.588 97.7408" stroke="#263238" stroke-width="0.686238" stroke-linecap="round" stroke-linejoin="round"/>
<path d="M85.8147 96.3241C86.1797 96.2087 86.5662 96.1779 86.9449 96.234C87.3236 96.2901 87.6846 96.4317 88.0005 96.6479" stroke="#263238" stroke-width="0.686238" stroke-linecap="round" stroke-linejoin="round"/>
<path d="M85.1399 105.83C84.9176 106.457 84.7418 107.099 84.6136 107.752H84.2561C82.6707 107.678 81.9556 107.118 81.6453 106.518C81.4992 106.222 81.4274 105.896 81.4361 105.566C81.4349 105.382 81.4576 105.198 81.5036 105.02C82.4684 105.499 83.5238 105.768 84.6001 105.809L85.1399 105.83Z" fill="#263238"/>
<path d="M84.6001 105.796L84.4314 106.356C82.927 106.282 81.8813 106.032 81.4361 105.553C81.4349 105.369 81.4575 105.185 81.5035 105.006C82.4684 105.485 83.5237 105.754 84.6001 105.796Z" fill="white"/>
<path d="M84.256 107.739C82.6706 107.665 81.9555 107.105 81.6451 106.504C82.2484 106.544 82.8399 106.691 83.3924 106.936C83.7567 107.107 84.0586 107.388 84.256 107.739Z" fill="#FFB573"/>
<path d="M75.5467 102.288C75.5467 102.288 77.8472 97.6801 77.2737 94.2529C77.2737 94.2529 87.8047 89.2607 88.9381 100.169C88.9381 100.169 89.4575 90.3941 80.1004 90.7246C70.7433 91.0552 71.5326 104.696 76.5789 108.508C76.5789 108.474 74.13 105.168 75.5467 102.288Z" fill="#263238"/>
<path d="M76.498 103.388C76.4078 102.762 76.0731 102.197 75.5672 101.818C75.0613 101.438 74.4256 101.275 73.7995 101.364C72.1264 101.64 71.5125 105.148 75.7492 105.749C76.3699 105.816 76.6802 105.209 76.498 103.388Z" fill="#FFB573"/>
<path opacity="0.1" d="M83.676 111.962C83.0363 111.966 82.3975 111.914 81.7668 111.807C80.6421 111.615 79.5721 111.182 78.6301 110.538C77.6881 109.894 76.8964 109.054 76.3091 108.076C77.052 107.097 78.083 106.375 79.2572 106.012C80.0735 105.917 82.2728 109.952 83.676 111.962Z" fill="black"/>
<path d="M92.5206 105.007C92.5206 105.007 89.7343 111.631 90.2268 112.697C90.7193 113.763 93.1142 119.774 93.1142 119.774L96.1635 118.169L93.7821 113.305C93.7821 113.305 96.5413 108.913 96.1635 108.474C95.7858 108.036 93.5595 104.541 92.5206 105.007Z" fill="#FFB573"/>
<path d="M91.6505 118.438L96.2043 115.74C96.2043 115.74 110.527 133.004 109.629 137.942C109.157 140.519 104.907 142.098 101.534 138.873C98.4103 135.918 96.3055 128.78 91.6505 118.438Z" fill="#223C6A"/>
<path opacity="0.1" d="M91.6505 118.438L96.2043 115.74C96.2043 115.74 110.527 133.004 109.629 137.942C109.157 140.519 104.907 142.098 101.534 138.873C98.4103 135.918 96.3055 128.78 91.6505 118.438Z" fill="black"/>
<path d="M75.8911 108.474C75.8911 108.474 78.5491 106.329 79.3587 106.376C80.1682 106.423 82.7318 113.561 83.2918 114.168C83.8517 114.775 82.0235 120.536 82.0235 120.536L78.3063 120.584L79.6555 115.767C79.6555 115.767 74.6363 109.412 75.8911 108.474Z" fill="#FFB573"/>
<path opacity="0.2" d="M72.2004 150.085C72.1738 146.767 71.9485 143.453 71.5258 140.162C73.2811 137.99 75.6225 136.367 78.272 135.486C78.272 135.486 78.4474 146.591 72.2004 150.085Z" fill="black"/>
<path d="M78.3058 118.749L83.0282 119.774C83.0282 119.774 78.4339 140.188 75.2564 143.035C72.0789 145.882 68.9217 145.538 66.547 141.686C64.1723 137.834 63.3492 120.591 66.547 119.66C67.7772 121.613 68.8402 123.666 69.7245 125.799C70.5808 127.709 71.3022 129.677 71.8833 131.688L78.3058 118.749Z" fill="#223C6A"/>
<path opacity="0.1" d="M83.0151 119.767C83.0151 119.767 78.4209 140.188 75.2434 143.035C72.0659 145.882 68.9086 145.538 66.5339 141.686C64.1592 137.834 63.3362 120.59 66.5339 119.659C67.7641 121.613 68.8271 123.666 69.7114 125.799C70.3861 127.296 70.8178 128.497 71.1484 129.448C71.6813 130.926 71.8702 131.688 71.8702 131.688L78.3062 118.729L83.0151 119.767Z" fill="black"/>
<path opacity="0.2" d="M71.87 131.708C71.87 131.708 69.4818 134.94 68.7802 136.984C68.7802 136.984 68.0313 132.329 71.1481 129.469C71.6811 130.946 71.87 131.708 71.87 131.708Z" fill="black"/>
</g>
<defs>
<clipPath id="clip0_1_1677">
<rect width="337.314" height="337.314" fill="white" transform="translate(0.136719 0.317627)"/>
</clipPath>
</defs>
</svg>
