<svg width="337" height="337" viewBox="0 0 337 337" fill="none" xmlns="http://www.w3.org/2000/svg">
<g clip-path="url(#clip0_1_2619)">
<path d="M337 268.495H0.43042V268.664H337V268.495Z" fill="#EBEBEB"/>
<path d="M293.697 279.326H280.981V279.494H293.697V279.326Z" fill="#EBEBEB"/>
<path d="M217.531 278.155H197.694V278.323H217.531V278.155Z" fill="#EBEBEB"/>
<path d="M280.308 273.079H248.597V273.247H280.308V273.079Z" fill="#EBEBEB"/>
<path d="M43.1277 274.21H35.7434V274.378H43.1277V274.21Z" fill="#EBEBEB"/>
<path d="M75.0746 274.21H49.1184V274.378H75.0746V274.21Z" fill="#EBEBEB"/>
<path d="M151.988 277.051H115.537V277.219H151.988V277.051Z" fill="#EBEBEB"/>
<path d="M159.964 225.966H29.988C28.9698 225.965 27.9939 225.559 27.2745 224.838C26.5552 224.118 26.1511 223.141 26.1511 222.123V39.4125C26.16 38.4001 26.5679 37.4321 27.2863 36.7188C28.0047 36.0054 28.9756 35.6043 29.988 35.6025H159.964C160.469 35.6025 160.969 35.702 161.435 35.8951C161.902 36.0883 162.325 36.3714 162.682 36.7283C163.039 37.0852 163.322 37.5089 163.516 37.9753C163.709 38.4416 163.808 38.9414 163.808 39.4462V222.136C163.805 223.153 163.398 224.127 162.678 224.845C161.957 225.563 160.982 225.966 159.964 225.966ZM29.988 35.7372C29.0144 35.739 28.0813 36.127 27.3935 36.816C26.7057 37.5051 26.3194 38.4389 26.3194 39.4125V222.136C26.3185 222.618 26.4128 223.096 26.5967 223.542C26.7807 223.988 27.0508 224.393 27.3915 224.735C27.7323 225.076 28.137 225.347 28.5825 225.532C29.0281 225.716 29.5057 225.811 29.988 225.811H159.964C160.939 225.81 161.872 225.422 162.561 224.733C163.25 224.044 163.638 223.11 163.64 222.136V39.4125C163.636 38.4388 163.248 37.5061 162.559 36.8176C161.871 36.1291 160.938 35.7407 159.964 35.7372H29.988Z" fill="#EBEBEB"/>
<path d="M305.571 225.966H175.588C174.571 225.966 173.595 225.563 172.875 224.845C172.154 224.127 171.748 223.153 171.744 222.136V39.4125C171.755 38.3995 172.164 37.4315 172.884 36.7183C173.603 36.0051 174.575 35.6043 175.588 35.6025H305.571C306.582 35.6078 307.55 36.0102 308.267 36.723C308.983 37.4358 309.391 38.4018 309.401 39.4125V222.136C309.4 223.151 308.995 224.125 308.278 224.842C307.56 225.56 306.586 225.965 305.571 225.966ZM175.588 35.7372C174.614 35.7407 173.682 36.1291 172.993 36.8176C172.305 37.5061 171.916 38.4388 171.913 39.4125V222.136C171.914 223.11 172.302 224.044 172.991 224.733C173.68 225.422 174.614 225.81 175.588 225.811H305.571C306.545 225.81 307.479 225.422 308.168 224.733C308.857 224.044 309.245 223.11 309.247 222.136V39.4125C309.243 38.4388 308.855 37.5061 308.166 36.8176C307.478 36.1291 306.545 35.7407 305.571 35.7372H175.588Z" fill="#EBEBEB"/>
<path d="M293.697 279.326H280.981V279.494H293.697V279.326Z" fill="#EBEBEB"/>
<path d="M217.531 278.155H197.694V278.323H217.531V278.155Z" fill="#EBEBEB"/>
<path d="M280.308 273.079H248.597V273.247H280.308V273.079Z" fill="#EBEBEB"/>
<path d="M43.1277 274.21H35.7434V274.378H43.1277V274.21Z" fill="#EBEBEB"/>
<path d="M75.0746 274.21H49.1184V274.378H75.0746V274.21Z" fill="#EBEBEB"/>
<path d="M151.988 277.051H115.537V277.219H151.988V277.051Z" fill="#EBEBEB"/>
<path d="M283.155 269.444C285.657 269.444 287.686 267.416 287.686 264.914C287.686 262.412 285.657 260.384 283.155 260.384C280.653 260.384 278.625 262.412 278.625 264.914C278.625 267.416 280.653 269.444 283.155 269.444Z" fill="#E0E0E0"/>
<path d="M278.625 269.444C281.127 269.444 283.156 267.416 283.156 264.914C283.156 262.412 281.127 260.384 278.625 260.384C276.123 260.384 274.095 262.412 274.095 264.914C274.095 267.416 276.123 269.444 278.625 269.444Z" fill="#EBEBEB"/>
<path d="M222.364 269.444C224.866 269.444 226.895 267.416 226.895 264.914C226.895 262.412 224.866 260.384 222.364 260.384C219.862 260.384 217.834 262.412 217.834 264.914C217.834 267.416 219.862 269.444 222.364 269.444Z" fill="#E0E0E0"/>
<path d="M282.718 160.753H206.33V261.299H282.718V160.753Z" fill="#EBEBEB"/>
<path d="M287.686 160.753H221.139V261.299H287.686V160.753Z" fill="#F5F5F5"/>
<path d="M282.2 165.956H227.157V256.211H282.2V165.956Z" stroke="#E0E0E0" stroke-width="2" stroke-miterlimit="10"/>
<path d="M227.157 194.699H282.718" stroke="#E0E0E0" stroke-width="2" stroke-miterlimit="10"/>
<path d="M227.157 226.094H282.718" stroke="#E0E0E0" stroke-width="2" stroke-miterlimit="10"/>
<path d="M266.462 169.732H246.019V172.169H266.462V169.732Z" fill="#F9F9F9"/>
<path d="M266.462 198.637H246.019V201.074H266.462V198.637Z" fill="#F9F9F9"/>
<path d="M266.462 231.035H246.019V233.472H266.462V231.035Z" fill="#F9F9F9"/>
<path d="M217.834 269.444C220.336 269.444 222.364 267.416 222.364 264.914C222.364 262.412 220.336 260.384 217.834 260.384C215.332 260.384 213.304 262.412 213.304 264.914C213.304 267.416 215.332 269.444 217.834 269.444Z" fill="#EBEBEB"/>
<path d="M205.112 62.8445H66.2974V158.619H205.112V62.8445Z" fill="#EBEBEB"/>
<path d="M207.811 62.8445H205.112V158.619H207.811V62.8445Z" fill="#E0E0E0"/>
<path d="M202.292 72.4973H70.1411V153.873H202.292V72.4973Z" fill="#F5F5F5"/>
<path d="M134.177 153.873H122.215L87.7839 72.3694H99.7456L134.177 153.873Z" fill="#F9F9F9"/>
<path d="M160.914 153.873H139.239L104.808 72.3694H126.496L160.914 153.873Z" fill="#F9F9F9"/>
<path d="M193.083 153.9H181.114L146.697 72.4031H158.652L193.083 153.9Z" fill="#F9F9F9"/>
<path opacity="0.3" d="M207.818 57.9441H66.2974V97.9487H207.818V57.9441Z" fill="#E0E0E0" stroke="#F0F0F0" stroke-miterlimit="10"/>
<path d="M207.414 89.6018H66.2974V90.8404H207.414V89.6018Z" fill="#F9F9F9"/>
<path d="M207.414 83.8734H66.2974V85.112H207.414V83.8734Z" fill="#F9F9F9"/>
<path d="M207.414 78.1382H66.2974V79.3768H207.414V78.1382Z" fill="#F9F9F9"/>
<path d="M207.414 72.4098H66.2974V73.6484H207.414V72.4098Z" fill="#F9F9F9"/>
<path d="M207.414 66.6747H66.2974V67.9133H207.414V66.6747Z" fill="#F9F9F9"/>
<path d="M210.429 56.2275H64.6206V57.9104H210.429V56.2275Z" fill="#E0E0E0"/>
<path d="M65.5768 57.069C65.5768 58.5701 64.695 59.7616 63.6179 59.7616C62.5409 59.7616 61.686 58.5634 61.686 57.069C61.686 55.5747 62.5678 54.3765 63.6516 54.3765C64.7354 54.3765 65.5768 55.5612 65.5768 57.069Z" fill="#E0E0E0"/>
<path d="M212.389 57.069C212.389 58.5701 211.507 59.7616 210.43 59.7616C209.353 59.7616 208.464 58.5432 208.464 57.069C208.464 55.5948 209.346 54.3765 210.43 54.3765C211.513 54.3765 212.389 55.5612 212.389 57.069Z" fill="#E0E0E0"/>
<path d="M165.585 304.508C224.856 304.508 272.904 300.753 272.904 296.121C272.904 291.489 224.856 287.734 165.585 287.734C106.315 287.734 58.2666 291.489 58.2666 296.121C58.2666 300.753 106.315 304.508 165.585 304.508Z" fill="#F5F5F5"/>
<path d="M267.606 108.773L253.262 153.523C253.098 154.036 252.804 154.498 252.408 154.863C252.012 155.228 251.529 155.485 251.004 155.607C250.48 155.729 249.932 155.713 249.416 155.56C248.9 155.407 248.432 155.123 248.058 154.735L240.6 147.014C240.036 146.433 239.27 146.094 238.461 146.068C237.652 146.042 236.865 146.33 236.265 146.872L173.979 203.416C173.423 203.92 172.703 204.207 171.953 204.223C171.202 204.239 170.471 203.984 169.893 203.504L130.346 170.621C129.775 170.151 129.055 169.899 128.315 169.912C127.575 169.924 126.863 170.199 126.308 170.688L48.6206 239.537L51.569 211.938C51.6447 211.159 52.0126 210.437 52.5989 209.919L125.91 144.947C126.467 144.461 127.179 144.187 127.919 144.176C128.658 144.165 129.378 144.417 129.949 144.887L169.335 177.709C169.912 178.189 170.643 178.444 171.394 178.428C172.145 178.412 172.864 178.126 173.421 177.621L222.56 132.986C222.869 132.705 223.118 132.365 223.293 131.987C223.468 131.608 223.565 131.198 223.578 130.781C223.592 130.364 223.521 129.948 223.37 129.559C223.219 129.17 222.992 128.815 222.701 128.516L215.364 120.883C214.98 120.486 214.709 119.995 214.577 119.459C214.445 118.924 214.458 118.362 214.614 117.833C214.77 117.304 215.064 116.826 215.465 116.448C215.867 116.069 216.361 115.804 216.899 115.679L263.938 104.788C264.474 104.662 265.034 104.681 265.561 104.843C266.088 105.005 266.562 105.304 266.935 105.709C267.308 106.115 267.567 106.612 267.685 107.15C267.803 107.688 267.776 108.248 267.606 108.773Z" fill="#223C6A"/>
<path opacity="0.1" d="M267.586 108.847L253.289 153.476C253.12 153.995 252.821 154.463 252.418 154.832C252.016 155.201 251.525 155.46 250.993 155.584C250.461 155.707 249.906 155.69 249.383 155.536C248.859 155.381 248.384 155.094 248.004 154.701L240.6 147.068C240.028 146.477 239.25 146.132 238.429 146.104C237.607 146.077 236.807 146.369 236.198 146.92L173.979 203.416C173.365 203.977 172.555 204.272 171.724 204.237C171.028 204.215 170.359 203.959 169.826 203.51L130.367 170.668C129.784 170.189 129.05 169.933 128.296 169.944C127.542 169.955 126.816 170.233 126.247 170.728L48.6206 239.537L51.6969 210.773L125.884 145.028C126.451 144.53 127.177 144.251 127.932 144.239C128.687 144.228 129.421 144.486 130.003 144.967L146.771 158.922L169.301 177.709C169.888 178.193 170.63 178.451 171.391 178.435C172.152 178.419 172.881 178.13 173.448 177.621L222.566 133.012C222.881 132.729 223.136 132.384 223.314 132C223.493 131.616 223.592 131.199 223.606 130.775C223.619 130.352 223.548 129.93 223.395 129.535C223.241 129.139 223.01 128.779 222.715 128.475L215.438 120.943C215.05 120.54 214.775 120.042 214.642 119.498C214.51 118.955 214.523 118.386 214.682 117.85C214.841 117.313 215.139 116.828 215.546 116.445C215.953 116.061 216.455 115.792 217 115.666L263.877 104.801C264.42 104.679 264.986 104.702 265.518 104.869C266.049 105.036 266.527 105.339 266.903 105.75C267.279 106.16 267.541 106.663 267.661 107.207C267.781 107.75 267.755 108.316 267.586 108.847Z" fill="black"/>
<path d="M186.426 276.687H129V289.719H186.426V276.687Z" fill="#223C6A"/>
<path opacity="0.2" d="M136.27 276.687H134.715V289.719H136.27V276.687Z" fill="black"/>
<path opacity="0.2" d="M144.261 276.687H142.706V289.719H144.261V276.687Z" fill="black"/>
<path opacity="0.2" d="M152.244 289.719H150.689V276.687L152.244 276.916V289.719Z" fill="black"/>
<path opacity="0.2" d="M160.234 276.687H158.679V289.719H160.234V276.687Z" fill="black"/>
<path opacity="0.2" d="M168.224 276.687H166.669V289.719H168.224V276.687Z" fill="black"/>
<path opacity="0.2" d="M176.207 276.687H174.652V289.719H176.207V276.687Z" fill="black"/>
<path opacity="0.2" d="M184.198 276.687H182.643V289.719H184.198V276.687Z" fill="black"/>
<path opacity="0.09" d="M186.426 276.687H129V279.373H186.426V276.687Z" fill="black"/>
<path d="M195.378 263.649H137.953V276.681H195.378V263.649Z" fill="#223C6A"/>
<path opacity="0.2" d="M145.223 263.649H143.668V276.681H145.223V263.649Z" fill="black"/>
<path opacity="0.2" d="M153.213 263.649H151.658V276.681H153.213V263.649Z" fill="black"/>
<path opacity="0.2" d="M161.203 263.649H159.648V276.681H161.203V263.649Z" fill="black"/>
<path opacity="0.2" d="M169.187 263.649H167.632V276.681H169.187V263.649Z" fill="black"/>
<path opacity="0.2" d="M177.177 263.649H175.622V276.681H177.177V263.649Z" fill="black"/>
<path opacity="0.2" d="M185.16 263.649H183.605V276.681H185.16V263.649Z" fill="black"/>
<path opacity="0.2" d="M193.15 263.649H191.595V276.681H193.15V263.649Z" fill="black"/>
<path opacity="0.09" d="M195.378 263.649H137.953V266.335H195.378V263.649Z" fill="black"/>
<path d="M187.395 250.617H129.97V263.649H187.395V250.617Z" fill="#223C6A"/>
<path opacity="0.2" d="M137.24 250.617H135.685V263.649H137.24V250.617Z" fill="black"/>
<path opacity="0.2" d="M145.223 263.655H143.668V250.63L145.223 250.617V263.655Z" fill="black"/>
<path opacity="0.2" d="M153.213 250.617H151.658V263.649H153.213V250.617Z" fill="black"/>
<path opacity="0.2" d="M161.203 250.617H159.648V263.649H161.203V250.617Z" fill="black"/>
<path opacity="0.2" d="M169.187 263.655H167.632V250.617L169.187 250.63V263.655Z" fill="black"/>
<path opacity="0.2" d="M177.177 250.617H175.622V263.649H177.177V250.617Z" fill="black"/>
<path opacity="0.2" d="M185.16 250.617H183.605V263.649H185.16V250.617Z" fill="black"/>
<path opacity="0.09" d="M187.395 250.617H129.97V253.827H187.395V250.617Z" fill="black"/>
<path d="M195.378 237.591H137.953V250.623H195.378V237.591Z" fill="#223C6A"/>
<path opacity="0.2" d="M145.223 237.591H143.668V250.623H145.223V237.591Z" fill="black"/>
<path opacity="0.2" d="M153.213 237.591H151.658V250.623H153.213V237.591Z" fill="black"/>
<path opacity="0.2" d="M161.203 237.591H159.648V250.623H161.203V237.591Z" fill="black"/>
<path opacity="0.2" d="M169.187 237.591H167.632V250.623H169.187V237.591Z" fill="black"/>
<path opacity="0.2" d="M177.177 237.591H175.622V250.623H177.177V237.591Z" fill="black"/>
<path opacity="0.2" d="M185.16 250.617L183.605 250.63V237.591L185.16 237.827V250.617Z" fill="black"/>
<path opacity="0.2" d="M193.15 237.591H191.595V250.623H193.15V237.591Z" fill="black"/>
<path opacity="0.09" d="M195.378 237.591H137.953V240.277H195.378V237.591Z" fill="black"/>
<path d="M197.903 224.559H140.477V237.591H197.903V224.559Z" fill="#223C6A"/>
<path opacity="0.2" d="M147.747 224.559H146.192V237.591H147.747V224.559Z" fill="black"/>
<path opacity="0.2" d="M155.731 224.559H154.176V237.591H155.731V224.559Z" fill="black"/>
<path opacity="0.2" d="M163.721 224.559H162.166V237.591H163.721V224.559Z" fill="black"/>
<path opacity="0.2" d="M171.711 224.559H170.156V237.591H171.711V224.559Z" fill="black"/>
<path opacity="0.2" d="M179.694 224.559H178.139V237.591H179.694V224.559Z" fill="black"/>
<path opacity="0.2" d="M187.684 224.559H186.129V237.591H187.684V224.559Z" fill="black"/>
<path opacity="0.2" d="M195.668 224.559H194.113V237.591H195.668V224.559Z" fill="black"/>
<path opacity="0.09" d="M197.903 224.559H140.477V227.245H197.903V224.559Z" fill="black"/>
<path d="M191.071 211.527H133.645V224.559H191.071V211.527Z" fill="#223C6A"/>
<path opacity="0.2" d="M140.915 211.527H139.36V224.559H140.915V211.527Z" fill="black"/>
<path opacity="0.2" d="M148.905 211.527H147.35V224.559H148.905V211.527Z" fill="black"/>
<path opacity="0.2" d="M156.888 211.527H155.333V224.559H156.888V211.527Z" fill="black"/>
<path opacity="0.2" d="M164.878 211.527H163.323V224.559H164.878V211.527Z" fill="black"/>
<path opacity="0.2" d="M172.862 211.527H171.307V224.559H172.862V211.527Z" fill="black"/>
<path opacity="0.2" d="M180.852 211.527H179.297V224.559H180.852V211.527Z" fill="black"/>
<path opacity="0.2" d="M188.842 211.527H187.287V224.559H188.842V211.527Z" fill="black"/>
<path opacity="0.09" d="M191.071 211.527H133.645V214.213H191.071V211.527Z" fill="black"/>
<path d="M114.622 276.882H57.1963V289.914H114.622V276.882Z" fill="#223C6A"/>
<path opacity="0.2" d="M64.4661 276.882H62.9111V289.914H64.4661V276.882Z" fill="black"/>
<path opacity="0.2" d="M72.4568 276.882H70.9019V289.914H72.4568V276.882Z" fill="black"/>
<path opacity="0.2" d="M80.4468 276.882H78.8918V289.914H80.4468V276.882Z" fill="black"/>
<path opacity="0.2" d="M88.4299 276.882H86.875V289.914H88.4299V276.882Z" fill="black"/>
<path opacity="0.2" d="M96.4202 276.882H94.8652V289.914H96.4202V276.882Z" fill="black"/>
<path opacity="0.2" d="M104.404 276.882H102.849V289.914H104.404V276.882Z" fill="black"/>
<path opacity="0.2" d="M112.394 276.882H110.839V289.914H112.394V276.882Z" fill="black"/>
<path opacity="0.09" d="M114.622 276.882H57.1963V279.568H114.622V276.882Z" fill="black"/>
<path d="M117.335 263.851H59.9094V276.883H117.335V263.851Z" fill="#223C6A"/>
<path opacity="0.2" d="M67.1792 263.851H65.6243V276.883H67.1792V263.851Z" fill="black"/>
<path opacity="0.2" d="M75.1692 263.851H73.6143V276.883H75.1692V263.851Z" fill="black"/>
<path opacity="0.2" d="M83.1524 263.851H81.5974V276.883H83.1524V263.851Z" fill="black"/>
<path opacity="0.2" d="M91.1426 263.851H89.5876V276.883H91.1426V263.851Z" fill="black"/>
<path opacity="0.2" d="M99.1265 263.851H97.5715V276.883H99.1265V263.851Z" fill="black"/>
<path opacity="0.2" d="M107.116 263.851H105.562V276.883H107.116V263.851Z" fill="black"/>
<path opacity="0.2" d="M115.106 263.851H113.552V276.883H115.106V263.851Z" fill="black"/>
<path opacity="0.09" d="M117.335 263.851H59.9094V266.307H117.335V263.851Z" fill="black"/>
<path d="M113.814 250.812H56.3887V263.844H113.814V250.812Z" fill="#223C6A"/>
<path opacity="0.2" d="M63.6585 250.812H62.1035V263.844H63.6585V250.812Z" fill="black"/>
<path opacity="0.2" d="M71.6485 250.812H70.0935V263.844H71.6485V250.812Z" fill="black"/>
<path opacity="0.2" d="M79.6323 250.812H78.0774V263.844H79.6323V250.812Z" fill="black"/>
<path opacity="0.2" d="M87.6223 250.812H86.0674V263.844H87.6223V250.812Z" fill="black"/>
<path opacity="0.2" d="M95.6126 250.812H94.0576V263.844H95.6126V250.812Z" fill="black"/>
<path opacity="0.2" d="M103.596 250.812H102.041V263.844H103.596V250.812Z" fill="black"/>
<path opacity="0.2" d="M111.586 250.812H110.031V263.844H111.586V250.812Z" fill="black"/>
<path opacity="0.09" d="M113.814 250.812H56.3887V253.269H113.814V250.812Z" fill="black"/>
<path d="M239.961 244.276H227.38V290.265H239.961V244.276Z" fill="#223C6A"/>
<g opacity="0.4">
<path opacity="0.4" d="M239.961 256.513V265.863L227.38 278.444V268.388L239.961 256.513Z" fill="white"/>
<path opacity="0.4" d="M239.961 249.674V251.263L227.38 263.851V262.262L239.961 249.674Z" fill="white"/>
</g>
<path d="M255.449 259.091H242.868V290.264H255.449V259.091Z" fill="#223C6A"/>
<g opacity="0.4">
<path opacity="0.4" d="M255.449 268.28V277.535L242.868 290.11V280.161L255.449 268.28Z" fill="white"/>
<path opacity="0.4" d="M255.449 263.918V265.695L242.868 278.283V276.492L255.449 263.918Z" fill="white"/>
</g>
<path d="M224.465 222.176H211.884V290.264H224.465V222.176Z" fill="#223C6A"/>
<g opacity="0.4">
<path opacity="0.4" d="M224.471 234.959V244.262L211.884 256.843V246.84L224.471 234.959Z" fill="white"/>
<path opacity="0.4" d="M224.471 229.844V231.58L211.884 244.175V242.424L224.471 229.844Z" fill="white"/>
</g>
<path d="M219.705 227.871C219.516 228.174 219.242 228.414 218.916 228.561C218.591 228.707 218.229 228.754 217.877 228.695C217.525 228.636 217.199 228.474 216.939 228.23C216.679 227.985 216.497 227.669 216.417 227.321C216.337 226.973 216.362 226.609 216.489 226.276C216.615 225.942 216.838 225.653 217.129 225.446C217.42 225.239 217.765 225.123 218.122 225.113C218.479 225.102 218.831 225.198 219.133 225.387C219.537 225.642 219.823 226.046 219.93 226.512C220.038 226.977 219.957 227.465 219.705 227.871Z" fill="#263238"/>
<path d="M235.195 249.735C235.006 250.035 234.732 250.273 234.408 250.418C234.084 250.563 233.724 250.609 233.374 250.549C233.024 250.49 232.699 250.329 232.441 250.085C232.182 249.841 232.002 249.527 231.922 249.181C231.843 248.835 231.867 248.473 231.993 248.141C232.119 247.809 232.34 247.522 232.629 247.315C232.918 247.109 233.261 246.992 233.616 246.981C233.971 246.97 234.321 247.064 234.623 247.251C234.824 247.376 234.998 247.54 235.136 247.732C235.274 247.925 235.372 248.143 235.425 248.374C235.478 248.605 235.485 248.844 235.446 249.077C235.406 249.311 235.321 249.534 235.195 249.735Z" fill="#263238"/>
<path d="M250.683 264.544C250.495 264.845 250.221 265.084 249.897 265.23C249.573 265.376 249.213 265.423 248.863 265.364C248.512 265.305 248.187 265.144 247.928 264.9C247.669 264.657 247.488 264.342 247.408 263.996C247.328 263.649 247.353 263.287 247.479 262.955C247.604 262.622 247.826 262.335 248.115 262.128C248.405 261.922 248.749 261.806 249.104 261.795C249.459 261.784 249.81 261.878 250.111 262.067C250.312 262.191 250.486 262.354 250.624 262.546C250.762 262.738 250.86 262.956 250.913 263.186C250.966 263.416 250.973 263.655 250.934 263.888C250.895 264.121 250.809 264.344 250.683 264.544Z" fill="#263238"/>
<path d="M249.162 263.574L233.195 278.444L233.667 248.779L218.178 258.358V226.915" stroke="#263238" stroke-miterlimit="10"/>
<path d="M105.05 144.241C105.05 144.241 100.762 150.568 99.7587 151.221C98.7557 151.874 85.2189 149.303 78.575 145.836L75.1487 141.541L69.979 139.724L67.0105 145.62L71.1099 148.313C71.1099 148.313 73.7352 151.335 76.6768 150.494C76.6768 150.494 87.2585 157.4 94.8515 159.164C102.445 160.928 104.201 158.888 106.416 157.084C108.631 155.28 114.494 146.724 114.494 146.724L105.05 144.241Z" fill="#FFB573"/>
<path d="M145.741 117.625C145.741 117.625 162.677 112.455 168.412 108.167C168.412 108.167 177.116 97.5179 178.563 86.1485L176.604 80.2316L177.641 73.5002L184.09 74.9408C184.09 74.9408 187.455 82.0222 183.356 87.5689C183.356 87.5689 182.259 104.047 175.278 112.637C168.298 121.226 146.461 126.968 146.461 126.968L145.741 117.625Z" fill="#FFB573"/>
<path d="M151.813 179.856L150.426 130.044L161.311 124.841L154.317 112.361C154.317 112.361 145.829 114.851 138.478 114.851C128.711 114.851 118.883 122.256 113.572 124.356C108.261 126.456 102.364 144.516 102.364 144.516L114.642 151.093L116.944 144.321C116.944 144.321 120.249 169.349 120.263 180.327L151.813 179.856Z" fill="#223C6A"/>
<path opacity="0.1" d="M151.813 179.856L150.426 130.044L161.311 124.841L154.317 112.361C154.317 112.361 145.829 114.851 138.478 114.851C128.711 114.851 118.883 122.256 113.572 124.356C108.261 126.456 102.364 144.516 102.364 144.516L114.642 151.093L116.944 144.321C116.944 144.321 120.249 169.349 120.263 180.327L151.813 179.856Z" fill="white"/>
<path d="M126.981 110.308C126.981 110.308 118.479 111.196 116.937 104.431C116.937 104.431 111.862 102.412 115.47 97.4035C115.47 97.4035 110.798 90.4499 116.762 88.3834C117.578 86.421 118.849 84.6814 120.472 83.3093C122.095 81.9372 124.021 80.9721 126.092 80.4942C130.918 79.3095 129.552 81.9011 129.552 81.9011C129.552 81.9011 139.562 78.0305 140.995 82.3453C142.429 86.6602 134.634 88.5719 134.634 88.5719L126.981 110.308Z" fill="#263238"/>
<path d="M132.272 109.049C132.297 109.453 132.346 109.855 132.42 110.254C132.763 112.273 134.15 115.491 137.515 116.554C137.515 116.554 137.98 120.149 132.42 119.529C126.86 118.91 124.214 117.921 124.214 117.921C125.066 113.572 125.011 109.094 124.053 104.767C124.053 104.767 120.916 105.292 119.145 103.502C117.375 101.711 118.015 97.1812 123.554 99.7458C123.554 99.7458 124.753 93.1423 120.862 91.1566C120.862 91.1566 128.482 92.2605 134.574 88.5515C134.574 88.5515 139.831 95.2829 139.097 101.711C138.364 108.14 132.272 109.049 132.272 109.049Z" fill="#FFB573"/>
<path d="M133.624 101.287C133.624 101.287 131.645 102.573 129.39 100.715" stroke="#263238" stroke-width="0.722314" stroke-linecap="round" stroke-linejoin="round"/>
<path d="M129 95.734C129.121 96.2254 129.464 96.562 129.767 96.488C130.07 96.4139 130.218 95.9562 130.097 95.4648C129.976 94.9734 129.633 94.6301 129.33 94.7041C129.027 94.7782 128.845 95.2427 129 95.734Z" fill="#263238"/>
<path d="M134.284 93.7616C134.405 94.2598 134.748 94.5963 135.051 94.5223C135.354 94.4482 135.502 93.9838 135.381 93.4924C135.26 93.001 134.917 92.6644 134.614 92.7385C134.311 92.8125 134.163 93.2702 134.284 93.7616Z" fill="#263238"/>
<path d="M128.65 92.1597C128.195 92.2851 127.789 92.5451 127.485 92.9055C127.181 93.2659 126.994 93.7099 126.947 94.1791" stroke="#263238" stroke-width="0.963085" stroke-linecap="round" stroke-linejoin="round"/>
<path d="M135.832 90.4499C135.832 90.4499 134.634 89.5546 133.577 90.322" stroke="#263238" stroke-width="0.963085" stroke-linecap="round" stroke-linejoin="round"/>
<path d="M134.439 98.7833L133.187 94.657L136.714 97.5919C136.524 98.0172 136.196 98.3662 135.783 98.5823C135.371 98.7985 134.897 98.8693 134.439 98.7833Z" fill="#A02724"/>
<path opacity="0.19" d="M132.419 110.274C131.912 110.366 131.39 110.349 130.89 110.224C130.39 110.098 129.922 109.868 129.518 109.547C130.548 109.439 132.271 109.069 132.271 109.069C132.296 109.473 132.346 109.875 132.419 110.274Z" fill="black"/>
<path d="M135.408 119.624L135.374 126.072L132.21 126.362C132.21 126.362 129.794 123.992 129.639 122.754C129.484 121.515 133.119 118.264 135.408 119.624Z" fill="#263238"/>
<path d="M134.917 125.413C134.917 125.413 139.669 142.914 141.951 151.665L139.353 156.841L134.977 152.473L132.615 125.702L134.917 125.413Z" fill="#263238"/>
<path d="M156.652 284.065L147.013 285.579C147.013 285.579 144.044 248.752 143.284 234.939C143.156 232.55 142.913 230.005 142.611 227.42C141.116 215.021 138.06 201.767 138.06 201.767C138.06 201.767 137.064 223.879 134.304 240.809C131.544 257.738 119.865 282.544 119.865 282.544L110.697 278.323C117.859 257.833 119.502 232.314 120.121 222.769C120.74 213.224 120.04 173.966 120.04 173.966L151.61 172.586C154.66 187.449 158.625 221.423 159.062 233.169C159.5 244.915 156.652 284.065 156.652 284.065Z" fill="#263238"/>
<path d="M154.943 286.865L155.454 294.606L149.753 295.892L149.154 287.235L154.943 286.865Z" fill="#FFB573"/>
<path d="M158.187 282.799L145.983 285.162L146.582 288.952L157.958 286.885L158.187 282.799Z" fill="#223C6A"/>
<path d="M117.893 283.6L114.527 290.776L109.109 288.683L112.723 281.204L117.893 283.6Z" fill="#FFB573"/>
<path d="M109.479 288.777L115.833 291.281C116.109 291.387 116.337 291.591 116.473 291.853C116.958 292.789 118.284 295.084 119.872 295.959C121.892 297.077 122.962 297.858 122.235 299.015C121.508 300.173 120.404 299.776 119.273 299.48C118.351 299.237 109.661 295.596 106.483 294.25C106.338 294.188 106.208 294.096 106.102 293.979C105.996 293.862 105.917 293.723 105.87 293.573C105.824 293.422 105.81 293.263 105.831 293.107C105.852 292.95 105.907 292.801 105.992 292.668L108.193 289.208C108.327 289.001 108.528 288.846 108.761 288.768C108.994 288.69 109.247 288.693 109.479 288.777Z" fill="#263238"/>
<path d="M149.631 295.596L156.363 294.25C156.651 294.194 156.95 294.244 157.204 294.391C158.12 294.909 160.469 296.134 162.28 296.02C164.575 295.872 165.901 295.953 165.915 297.319C165.928 298.686 164.784 298.948 163.666 299.305C162.764 299.594 153.482 301.21 150.056 301.802C149.9 301.83 149.741 301.823 149.589 301.782C149.436 301.741 149.295 301.668 149.174 301.566C149.053 301.465 148.956 301.338 148.89 301.195C148.824 301.052 148.79 300.896 148.79 300.739V296.632C148.796 296.391 148.881 296.158 149.034 295.97C149.186 295.783 149.396 295.651 149.631 295.596Z" fill="#263238"/>
<path d="M123.285 280.975L110.206 278.168L109.055 281.958L120.922 285.445L123.285 280.975Z" fill="#223C6A"/>
<path opacity="0.61" d="M142.604 227.521C141.109 215.129 138.053 201.868 138.053 201.868L136.761 185.369C136.761 185.369 144.058 213.87 142.604 227.521Z" fill="black"/>
<path d="M124.55 115.955C126.946 117.599 129.609 118.815 132.419 119.55L130.346 125.655C130.346 125.655 125.277 123.326 122.706 121.219L124.55 115.955Z" fill="white"/>
<path d="M132.419 119.55L135.832 124.841C137.396 122.677 138.527 120.231 139.164 117.638L135.327 114.851C135.327 114.851 133.712 118.378 132.419 119.55Z" fill="white"/>
</g>
<defs>
<clipPath id="clip0_1_2619">
<rect width="336.57" height="336.57" fill="white" transform="translate(0.43042 0.00012207)"/>
</clipPath>
</defs>
</svg>
