<svg width="338" height="338" viewBox="0 0 338 338" fill="none" xmlns="http://www.w3.org/2000/svg">
<g clip-path="url(#clip0_1_2140)">
<path d="M337.993 258.632H0.678711V258.801H337.993V258.632Z" fill="#EBEBEB"/>
<path d="M117.538 262.936H101.9V263.105H117.538V262.936Z" fill="#EBEBEB"/>
<path d="M310.178 266.552H271.947V266.721H310.178V266.552Z" fill="#EBEBEB"/>
<path d="M67.7302 266.552H29.499V266.721H67.7302V266.552Z" fill="#EBEBEB"/>
<path d="M160.566 228.544H30.3017C29.2812 228.542 28.3031 228.135 27.5822 227.413C26.8612 226.691 26.4563 225.712 26.4563 224.691V41.5769C26.4652 40.5623 26.874 39.5922 27.594 38.8772C28.314 38.1623 29.287 37.7603 30.3017 37.7585H160.566C161.587 37.7585 162.567 38.1644 163.29 38.8868C164.012 39.6092 164.418 40.589 164.418 41.6107V224.691C164.418 225.713 164.012 226.693 163.29 227.415C162.567 228.138 161.587 228.544 160.566 228.544ZM30.3017 37.8935C29.3259 37.8953 28.3908 38.2841 27.7014 38.9747C27.0121 39.6653 26.625 40.6012 26.625 41.5769V224.691C26.625 225.667 27.0121 226.603 27.7014 227.294C28.3908 227.984 29.3259 228.373 30.3017 228.375H160.566C161.542 228.371 162.476 227.982 163.166 227.292C163.856 226.602 164.246 225.667 164.249 224.691V41.5769C164.246 40.6011 163.856 39.6663 163.166 38.9763C162.476 38.2862 161.542 37.897 160.566 37.8935H30.3017Z" fill="#EBEBEB"/>
<path d="M306.495 228.544H176.224C175.203 228.54 174.226 228.133 173.504 227.411C172.782 226.69 172.375 225.712 172.372 224.691V41.5769C172.382 40.5617 172.793 39.5916 173.514 38.8768C174.235 38.162 175.209 37.7603 176.224 37.7585H306.495C307.508 37.7621 308.479 38.1648 309.198 38.8796C309.917 39.5943 310.324 40.5635 310.333 41.5769V224.691C310.334 225.196 310.236 225.697 310.043 226.164C309.851 226.63 309.568 227.055 309.212 227.413C308.855 227.77 308.432 228.054 307.966 228.248C307.5 228.442 307 228.543 306.495 228.544ZM176.224 37.8935C175.248 37.897 174.313 38.2862 173.623 38.9763C172.933 39.6663 172.544 40.6011 172.54 41.5769V224.691C172.544 225.667 172.933 226.602 173.623 227.292C174.313 227.982 175.248 228.371 176.224 228.375H306.495C307.47 228.371 308.405 227.982 309.095 227.292C309.785 226.602 310.175 225.667 310.178 224.691V41.5769C310.175 40.6011 309.785 39.6663 309.095 38.9763C308.405 38.2862 307.47 37.897 306.495 37.8935H176.224Z" fill="#EBEBEB"/>
<path d="M213.234 205.087H197.657V258.996H213.234V205.087Z" fill="#E6E6E6"/>
<path d="M202.204 205.087H186.627V258.996H202.204V205.087Z" fill="#E6E6E6"/>
<path d="M199.249 258.996H202.204V250.577H196.139L199.249 258.996Z" fill="#F0F0F0"/>
<path d="M123.9 205.087H108.323V258.996H123.9V205.087Z" fill="#E6E6E6"/>
<path d="M202.211 205.087H121.323V254.854H202.211V205.087Z" fill="#F0F0F0"/>
<path d="M197.171 243.655H165.463C164.647 243.652 163.865 243.326 163.287 242.748C162.71 242.171 162.384 241.389 162.38 240.572V210.275C162.382 209.458 162.708 208.676 163.286 208.099C163.864 207.522 164.647 207.198 165.463 207.198H197.137C197.954 207.198 198.737 207.522 199.315 208.099C199.893 208.676 200.218 209.458 200.22 210.275V240.572C200.217 241.383 199.895 242.16 199.325 242.737C198.755 243.313 197.982 243.643 197.171 243.655ZM165.463 207.9C164.829 207.9 164.22 208.151 163.77 208.599C163.32 209.046 163.065 209.654 163.062 210.288V240.586C163.058 240.901 163.117 241.214 163.234 241.507C163.351 241.8 163.525 242.067 163.746 242.292C163.966 242.518 164.229 242.697 164.519 242.821C164.809 242.945 165.121 243.011 165.436 243.015H197.144C197.78 243.018 198.391 242.769 198.844 242.323C199.296 241.877 199.554 241.269 199.559 240.633V210.275C199.559 209.961 199.497 209.649 199.377 209.359C199.256 209.069 199.08 208.806 198.857 208.584C198.635 208.362 198.371 208.186 198.08 208.066C197.79 207.947 197.478 207.886 197.164 207.887L165.463 207.9Z" fill="#E0E0E0"/>
<path d="M158.029 243.655H126.322C125.505 243.652 124.723 243.326 124.145 242.748C123.568 242.171 123.242 241.389 123.239 240.572V210.275C123.24 209.458 123.566 208.676 124.144 208.099C124.722 207.522 125.505 207.198 126.322 207.198H158.029C158.846 207.198 159.629 207.522 160.207 208.099C160.785 208.676 161.11 209.458 161.112 210.275V240.572C161.11 241.389 160.785 242.173 160.207 242.75C159.629 243.328 158.846 243.654 158.029 243.655ZM126.322 207.9C126.007 207.899 125.696 207.96 125.406 208.08C125.115 208.2 124.851 208.375 124.629 208.597C124.406 208.819 124.23 209.083 124.109 209.373C123.989 209.663 123.927 209.974 123.927 210.288V240.586C123.927 240.9 123.989 241.212 124.109 241.502C124.229 241.793 124.406 242.057 124.628 242.279C124.85 242.502 125.115 242.678 125.405 242.798C125.696 242.919 126.007 242.981 126.322 242.981H158.029C158.664 242.979 159.273 242.726 159.723 242.278C160.173 241.829 160.427 241.221 160.431 240.586V210.275C160.427 209.64 160.173 209.033 159.723 208.585C159.273 208.138 158.664 207.887 158.029 207.887L126.322 207.9Z" fill="#E0E0E0"/>
<path d="M155.088 216.771C154.5 216.771 153.925 216.597 153.436 216.27C152.947 215.944 152.565 215.48 152.34 214.936C152.115 214.393 152.055 213.795 152.17 213.218C152.284 212.641 152.567 212.111 152.982 211.695C153.397 211.278 153.927 210.995 154.503 210.879C155.08 210.763 155.678 210.821 156.222 211.046C156.766 211.27 157.231 211.65 157.558 212.138C157.886 212.627 158.062 213.201 158.063 213.789C158.063 214.579 157.75 215.337 157.192 215.896C156.634 216.455 155.878 216.77 155.088 216.771Z" fill="#F9F9F9"/>
<path d="M168.432 216.771C167.844 216.775 167.267 216.605 166.776 216.281C166.284 215.958 165.9 215.496 165.671 214.953C165.442 214.411 165.379 213.814 165.49 213.236C165.601 212.658 165.881 212.126 166.294 211.707C166.707 211.288 167.235 211.001 167.812 210.882C168.388 210.764 168.987 210.818 169.532 211.04C170.077 211.261 170.544 211.64 170.874 212.127C171.205 212.614 171.383 213.188 171.387 213.776V213.837C171.378 214.616 171.063 215.36 170.511 215.909C169.958 216.458 169.211 216.768 168.432 216.771Z" fill="#F9F9F9"/>
<path d="M124.277 258.996H121.316V250.577H127.381L124.277 258.996Z" fill="#F0F0F0"/>
<path d="M118.941 205.087H103.364V258.996H118.941V205.087Z" fill="#E6E6E6"/>
<path d="M115.98 258.996H118.941V250.577H112.876L115.98 258.996Z" fill="#F0F0F0"/>
<path d="M118.941 205.087H38.0529V254.854H118.941V205.087Z" fill="#F0F0F0"/>
<path d="M113.902 243.655H82.1943C81.3766 243.655 80.5924 243.331 80.0142 242.752C79.436 242.174 79.1112 241.39 79.1112 240.572V210.275C79.113 209.458 79.4386 208.676 80.0166 208.099C80.5946 207.522 81.3778 207.198 82.1943 207.198H113.868C114.685 207.198 115.468 207.522 116.046 208.099C116.624 208.676 116.949 209.458 116.951 210.275V240.572C116.951 241.384 116.631 242.163 116.06 242.741C115.489 243.318 114.714 243.647 113.902 243.655ZM82.1943 207.9C81.8801 207.899 81.5688 207.96 81.2783 208.08C80.9877 208.2 80.7237 208.375 80.5012 208.597C80.2787 208.819 80.1022 209.083 79.9818 209.373C79.8613 209.663 79.7993 209.974 79.7993 210.288V240.586C79.7958 240.901 79.8544 241.214 79.9718 241.507C80.0892 241.8 80.2631 242.067 80.4836 242.292C80.7042 242.518 80.9669 242.697 81.257 242.821C81.547 242.945 81.8586 243.011 82.174 243.015H113.882C114.518 243.018 115.13 242.77 115.584 242.323C116.038 241.877 116.296 241.269 116.304 240.633V210.275C116.3 209.641 116.046 209.035 115.598 208.588C115.149 208.14 114.542 207.888 113.909 207.887L82.1943 207.9Z" fill="#E0E0E0"/>
<path d="M74.7598 243.655H43.0927C42.275 243.655 41.4908 243.331 40.9127 242.752C40.3345 242.174 40.0096 241.39 40.0096 240.572V210.275C40.0096 209.87 40.0894 209.47 40.2445 209.096C40.3995 208.722 40.6267 208.383 40.9131 208.097C41.1994 207.811 41.5394 207.585 41.9134 207.431C42.2874 207.277 42.6881 207.198 43.0927 207.198H74.7598C75.1643 207.198 75.5651 207.277 75.9391 207.431C76.3131 207.585 76.653 207.811 76.9394 208.097C77.2258 208.383 77.453 208.722 77.608 209.096C77.763 209.47 77.8428 209.87 77.8428 210.275V240.572C77.8411 241.39 77.5157 242.173 76.9379 242.75C76.3601 243.328 75.5769 243.654 74.7598 243.655ZM43.0927 207.9C42.7779 207.898 42.4659 207.959 42.1746 208.078C41.8833 208.197 41.6185 208.373 41.3953 208.595C41.1721 208.817 40.995 209.081 40.8741 209.371C40.7532 209.662 40.691 209.974 40.691 210.288V240.586C40.6875 240.901 40.7461 241.214 40.8635 241.507C40.9809 241.8 41.1548 242.067 41.3753 242.292C41.5958 242.518 41.8586 242.697 42.1487 242.821C42.4387 242.945 42.7503 243.011 43.0657 243.015H74.7733C75.0884 243.015 75.4005 242.954 75.6918 242.834C75.9832 242.714 76.248 242.538 76.4711 242.315C76.6942 242.093 76.8712 241.829 76.992 241.538C77.1128 241.247 77.175 240.935 77.175 240.62V210.261C77.175 209.947 77.1127 209.635 76.9919 209.344C76.871 209.054 76.6939 208.79 76.4707 208.568C76.2475 208.346 75.9826 208.17 75.6913 208.051C75.4 207.932 75.088 207.871 74.7733 207.873L43.0927 207.9Z" fill="#E0E0E0"/>
<path d="M71.8251 216.771C71.2367 216.773 70.6611 216.599 70.1711 216.274C69.6811 215.948 69.2987 215.484 69.0723 214.941C68.8459 214.398 68.7856 213.8 68.8991 213.222C69.0126 212.645 69.2948 212.114 69.7099 211.697C70.125 211.28 70.6545 210.996 71.2313 210.88C71.8082 210.763 72.4065 210.821 72.9507 211.045C73.4948 211.269 73.9603 211.649 74.2883 212.138C74.6164 212.626 74.7921 213.201 74.7935 213.789C74.7953 214.18 74.7198 214.568 74.5714 214.93C74.423 215.291 74.2047 215.62 73.9288 215.897C73.653 216.174 73.3252 216.394 72.9642 216.544C72.6032 216.694 72.2161 216.771 71.8251 216.771Z" fill="#F9F9F9"/>
<path d="M85.1695 216.771C84.5811 216.775 84.0047 216.605 83.5132 216.281C83.0218 215.958 82.6373 215.496 82.4085 214.953C82.1796 214.411 82.1166 213.814 82.2275 213.236C82.3384 212.658 82.6181 212.126 83.0313 211.707C83.4446 211.288 83.9727 211.001 84.549 210.882C85.1254 210.764 85.7239 210.818 86.2691 211.04C86.8142 211.261 87.2815 211.64 87.6117 212.127C87.9419 212.614 88.1203 213.188 88.1243 213.776V213.837C88.1155 214.616 87.8007 215.36 87.2479 215.909C86.6951 216.458 85.9486 216.768 85.1695 216.771Z" fill="#F9F9F9"/>
<path d="M41.0077 258.996H38.0529V250.577H44.111L41.0077 258.996Z" fill="#F0F0F0"/>
<path d="M180.993 55.6497H152.011V84.6317H180.993V55.6497Z" fill="#EBEBEB"/>
<path d="M182.282 55.6565H181V84.6386H182.282V55.6565Z" fill="#E0E0E0"/>
<path d="M177.074 59.5828H155.944V80.7121H177.074V59.5828Z" fill="white"/>
<path d="M170.044 73.6759C169.58 74.1411 169.028 74.5103 168.421 74.7621C167.814 75.014 167.163 75.1436 166.506 75.1436C165.848 75.1436 165.198 75.014 164.59 74.7621C163.983 74.5103 163.432 74.1411 162.967 73.6759C162.031 72.7375 161.506 71.4662 161.506 70.1408C161.506 68.8154 162.031 67.5441 162.967 66.6058C163.907 65.6694 165.179 65.1436 166.506 65.1436C167.832 65.1436 169.105 65.6694 170.044 66.6058C170.98 67.5441 171.506 68.8154 171.506 70.1408C171.506 71.4662 170.98 72.7375 170.044 73.6759Z" fill="#F5F5F5"/>
<path d="M152.605 92.9163H118.624V126.897H152.605V92.9163Z" fill="#EBEBEB"/>
<path d="M154.109 92.923H152.605V126.904H154.109V92.923Z" fill="#E0E0E0"/>
<path d="M148.004 97.5239H123.232V122.296H148.004V97.5239Z" fill="white"/>
<path d="M140.894 104.621H130.329V115.186H140.894V104.621Z" fill="#F5F5F5"/>
<path d="M304.599 81.9872H286.202V86.2846H304.599V81.9872Z" fill="#E6E6E6"/>
<path d="M286.202 81.9872H210.05V86.2846H286.202V81.9872Z" fill="#F5F5F5"/>
<path d="M253.32 59.1713H231.881V81.994H253.32V59.1713Z" fill="#E0E0E0"/>
<path d="M231.881 59.1713H226.389V81.994H231.881V59.1713Z" fill="#F0F0F0"/>
<path d="M258.94 55.6497H242.837V81.9872H258.94V55.6497Z" fill="#E6E6E6"/>
<path d="M242.844 55.6497H238.189V81.9872H242.844V55.6497Z" fill="#F0F0F0"/>
<path d="M261.166 59.1713H247.586V81.994H261.166V59.1713Z" fill="#F0F0F0"/>
<path d="M247.586 59.1713H244.483V81.994H247.586V59.1713Z" fill="#F9F9F9"/>
<path d="M276.508 63.0302H258.697V81.9872H276.508V63.0302Z" fill="#E6E6E6"/>
<path d="M258.697 63.0302H254.137V81.9872H258.697V63.0302Z" fill="#F9F9F9"/>
<path d="M281.176 60.1091H267.798V81.9941H281.176V60.1091Z" fill="#E6E6E6"/>
<path d="M267.798 60.1091H263.933V81.9941H267.798V60.1091Z" fill="#F0F0F0"/>
<path d="M284.731 63.0302H271.738V81.9872H284.731V63.0302Z" fill="#F0F0F0"/>
<path d="M271.738 63.0302H269.161V81.9872H271.738V63.0302Z" fill="#F9F9F9"/>
<path d="M275.313 209.398C281.075 201.869 294.79 199.069 299.532 194.32C305.739 188.093 305.712 178.749 300.423 175.376C295.835 172.448 280.616 192.242 278.909 194.468C273.006 202.085 271.299 207.731 270.193 213.202C270.321 208.554 270.442 204.277 270.544 200.985C270.861 190.238 271.259 186.777 271.448 185.718C272.122 185.192 272.837 184.591 273.269 184.268C276.953 181.522 285.116 178.25 289.197 174.263C295.161 168.434 294.196 161.445 290.013 158.861C285.649 156.163 277.917 162.565 273.822 168.927C269.727 175.288 271.475 181.387 270.328 186.629C270.085 187.668 269.835 191.601 269.606 197.059C268.635 191.68 265.66 186.871 261.281 183.6C255.634 179.093 250.757 173.602 246.102 174.31C241.447 175.018 243.977 182.284 247.633 187.384C250.912 191.925 267.096 196.458 269.478 200.108C269.194 207.529 268.945 216.872 268.769 225.602C267.494 221.096 268.371 220.718 263.143 213.796C260.04 209.694 247.289 204.621 245.778 207.455C244.267 210.288 246.567 215.604 251.377 219.335C255.257 222.344 263.831 222.337 265.862 224.206C266.327 224.637 267.886 226.311 268.736 227.275C268.526 237.921 268.439 247.318 268.54 250.53L269.377 250.563C269.336 249.734 269.43 244.316 269.599 237.145C271.69 233.333 285.79 231.073 290.115 227.134C294.662 222.985 297.927 218.141 295.977 214.896C294.351 212.197 281.554 215.867 276.312 220.347C272.844 223.329 270.726 226.52 269.754 230.797C269.869 225.913 270.011 220.677 270.139 215.719C271.205 214.511 273.586 211.658 275.313 209.398Z" fill="#E6E6E6"/>
<path d="M276.542 258.855H261.929C261.126 258.855 260.438 257.816 260.283 256.372L259.244 246.927H279.22L278.188 256.372C278.019 257.816 277.338 258.855 276.542 258.855Z" fill="#F0F0F0"/>
<path d="M279.638 250.577H258.825C258.326 250.577 257.908 249.902 257.854 248.971L257.429 241.982C257.361 240.91 257.813 239.958 258.4 239.958H280.069C280.65 239.958 281.102 240.896 281.034 241.982L280.609 248.971C280.562 249.889 280.137 250.577 279.638 250.577Z" fill="#F0F0F0"/>
<path d="M169.336 289.098C241.577 289.098 300.14 285.679 300.14 281.461C300.14 277.244 241.577 273.825 169.336 273.825C97.0948 273.825 38.532 277.244 38.532 281.461C38.532 285.679 97.0948 289.098 169.336 289.098Z" fill="#F5F5F5"/>
<path d="M145.38 105.68C143.889 109.303 135.112 109.053 125.917 105.262C116.722 101.471 110.468 95.4596 111.959 91.8368C112.31 91.0003 113.308 87.8633 114.307 87.4315C117.734 85.981 124.257 89.2395 131.321 92.1539C137.898 94.8524 145.42 96.6132 146.588 100.182C147.289 102.354 145.805 104.648 145.38 105.68Z" fill="#223C6A"/>
<path opacity="0.2" d="M146.588 100.182C147.148 103.022 145.913 104.385 145.38 105.68C144.847 106.975 143.289 107.825 141.11 108.122C140.837 108.169 140.562 108.2 140.287 108.217C138.616 108.315 136.939 108.227 135.288 107.954C135.051 107.954 134.815 107.879 134.572 107.839C132.634 107.491 130.724 106.999 128.858 106.368L128.184 106.139C127.435 105.876 126.666 105.586 125.897 105.269C125.128 104.951 124.399 104.594 123.677 104.277L123.057 103.98C121.356 103.139 119.717 102.179 118.152 101.106L117.599 100.715C116.233 99.7492 114.981 98.6311 113.868 97.3821C113.699 97.1932 113.544 97.0111 113.396 96.8222C111.945 94.9872 111.372 93.2332 111.945 91.8367C112.323 90.9394 113.133 87.8698 114.293 87.4246C115.72 87.0225 117.231 87.0225 118.658 87.4246L119.333 87.5865C122.706 88.45 126.956 90.3727 131.294 92.1605C136.407 94.2721 142.459 96.4646 145.427 98.9945C145.604 99.1431 145.773 99.3008 145.933 99.4667C146.17 99.6873 146.389 99.9264 146.588 100.182Z" fill="black"/>
<g opacity="0.2">
<path opacity="0.2" d="M119.67 87.0063L119.36 87.573L113.882 97.3754C113.713 97.1865 113.558 97.0043 113.41 96.8154L118.672 87.4111L119.083 86.6825L119.67 87.0063Z" fill="black"/>
</g>
<g opacity="0.2">
<path opacity="0.2" d="M123.812 91.007L118.165 101.126L117.612 100.735L123.225 90.6967L123.812 91.007Z" fill="black"/>
</g>
<g opacity="0.2">
<path opacity="0.2" d="M134.195 96.8087L128.858 106.368L128.184 106.139L133.581 96.4512L134.195 96.8087Z" fill="black"/>
</g>
<g opacity="0.2">
<path opacity="0.2" d="M129.364 94.1102L123.691 104.277L123.07 103.98L128.777 93.7527L129.364 94.1102Z" fill="black"/>
</g>
<g opacity="0.2">
<path opacity="0.2" d="M140.489 98.6573L135.288 107.954C135.051 107.954 134.815 107.879 134.573 107.839L139.895 98.3199L140.489 98.6573Z" fill="black"/>
</g>
<path d="M146.547 102.523C145.056 106.146 136.387 106.004 127.186 102.206C117.984 98.4076 111.737 92.4034 113.234 88.7806C114.732 85.1579 123.394 85.3063 132.596 89.0977C141.798 92.8891 148.038 98.8798 146.547 102.523Z" fill="#223C6A"/>
<path opacity="0.2" d="M143.417 101.207C142.364 103.764 135.605 103.407 128.325 100.405C121.046 97.4024 116 92.8892 117.052 90.3323C118.105 87.7755 124.865 88.133 132.151 91.1351C139.437 94.1372 144.476 98.6505 143.417 101.207Z" fill="white"/>
<path d="M191.875 72.9336C194.277 76.0302 189.703 83.5253 181.83 89.6172C173.957 95.7091 165.639 98.1378 163.244 95.0142C162.691 94.2991 160.451 91.9042 160.586 90.7843C161.038 87.0941 167.103 83.0598 173.148 78.3779C178.774 74.0198 184.029 68.3664 187.706 69.1287C189.939 69.6212 191.194 72.0566 191.875 72.9336Z" fill="#223C6A"/>
<path opacity="0.2" d="M187.706 69.1556C190.452 70.0866 191.019 71.8542 191.876 72.9336C192.732 74.013 192.699 75.8142 191.876 77.8584C191.781 78.108 191.666 78.3576 191.545 78.6139C190.806 80.1137 189.901 81.5258 188.846 82.8236C188.705 83.0125 188.55 83.1947 188.394 83.3836C187.126 84.8967 185.746 86.3129 184.266 87.6202L183.746 88.0722C183.146 88.5917 182.512 89.1112 181.857 89.6171C181.203 90.1231 180.549 90.6021 179.887 91.0541C179.705 91.189 179.51 91.3172 179.327 91.4454C177.751 92.5028 176.101 93.4452 174.389 94.2653C174.18 94.3733 173.978 94.461 173.782 94.5554C172.261 95.259 170.666 95.7885 169.026 96.1341C168.783 96.188 168.547 96.2285 168.311 96.2622C165.997 96.6063 164.189 96.2622 163.264 95.0412C162.671 94.2721 160.411 92.0391 160.606 90.818C160.959 89.3745 161.71 88.0587 162.772 87.0198C162.92 86.8512 163.082 86.6825 163.251 86.5071C165.686 83.984 169.458 81.2787 173.168 78.4116C177.546 75.0384 182.458 70.8624 186.121 69.5537C186.342 69.4725 186.567 69.4027 186.796 69.3445C187.094 69.2594 187.399 69.1963 187.706 69.1556Z" fill="black"/>
<g opacity="0.2">
<path opacity="0.2" d="M162.893 85.954L163.231 86.5072L169.006 96.1341C168.763 96.1881 168.527 96.2286 168.291 96.2623L162.752 87.0064L162.32 86.3318L162.893 85.954Z" fill="black"/>
</g>
<g opacity="0.2">
<path opacity="0.2" d="M168.419 84.3483L174.369 94.2653C174.16 94.3732 173.958 94.461 173.762 94.5554L167.839 84.6923L168.419 84.3483Z" fill="black"/>
</g>
<g opacity="0.2">
<path opacity="0.2" d="M178.612 78.2362L184.246 87.627L183.726 88.079L178.032 78.5803L178.612 78.2362Z" fill="black"/>
</g>
<g opacity="0.2">
<path opacity="0.2" d="M173.877 81.0764L179.867 91.0542C179.685 91.1891 179.49 91.3173 179.307 91.4455L173.29 81.4205L173.877 81.0764Z" fill="black"/>
</g>
<g opacity="0.2">
<path opacity="0.2" d="M183.348 73.6825L188.826 82.8237C188.684 83.0126 188.529 83.1948 188.374 83.3837L182.768 74.0333L183.348 73.6825Z" fill="black"/>
</g>
<path d="M179.788 86.9698C187.656 80.8757 192.09 73.4259 189.692 70.33C187.294 67.2342 178.972 69.6647 171.104 75.7587C163.237 81.8528 158.802 89.3026 161.2 92.3985C163.598 95.4943 171.92 93.0638 179.788 86.9698Z" fill="#223C6A"/>
<path opacity="0.2" d="M178.812 85.0919C185.039 80.2687 188.713 74.5845 187.018 72.3959C185.322 70.2073 178.9 72.3431 172.673 77.1663C166.446 81.9895 162.772 87.6737 164.468 89.8623C166.163 92.0509 172.585 89.9151 178.812 85.0919Z" fill="white"/>
<path d="M159.311 58.4291C158.542 62.8681 148.585 64.7436 137.305 62.7197C126.025 60.6958 117.518 55.4809 118.307 51.0419C118.49 50.0097 118.807 46.252 119.866 45.5032C123.367 43.034 131.503 45.0984 140.165 46.6366C148.261 48.0735 157.119 48.1882 159.311 51.9189C160.64 54.2126 159.534 57.1608 159.311 58.4291Z" fill="#223C6A"/>
<path opacity="0.2" d="M159.311 51.9258C160.66 54.9886 159.588 56.8168 159.311 58.4089C159.035 60.0011 157.49 61.3301 155.115 62.2071C154.825 62.3218 154.521 62.4162 154.211 62.5107C152.353 63.0328 150.444 63.3473 148.517 63.4484C148.24 63.4484 147.971 63.4484 147.687 63.4956C145.417 63.5791 143.145 63.4957 140.887 63.246L140.098 63.1448C139.187 63.0301 138.249 62.8952 137.312 62.7266C136.374 62.5579 135.463 62.369 134.566 62.1599C134.309 62.1059 134.053 62.0384 133.797 61.9777C131.677 61.4543 129.598 60.7779 127.577 59.9538C127.327 59.8594 127.091 59.7515 126.855 59.657C125.08 58.9017 123.397 57.949 121.836 56.8168C121.599 56.6482 121.384 56.4795 121.161 56.3041C119.07 54.5973 117.997 52.7623 118.3 51.0555C118.503 49.9491 118.665 46.3331 119.852 45.5168C121.039 44.7005 122.74 44.4441 124.763 44.4374H125.573C129.621 44.5723 134.836 45.6989 140.158 46.6434C146.432 47.7633 153.779 48.7415 157.733 50.8598C157.964 50.9827 158.19 51.1179 158.407 51.2646C158.725 51.4611 159.027 51.6822 159.311 51.9258Z" fill="black"/>
<g opacity="0.2">
<path opacity="0.2" d="M125.795 43.7491L125.579 44.4575L121.829 56.8302C121.592 56.6615 121.377 56.4929 121.154 56.3175L124.756 44.4507L125.04 43.5265L125.795 43.7491Z" fill="black"/>
</g>
<g opacity="0.2">
<path opacity="0.2" d="M131.436 47.2034L127.57 59.9471C127.32 59.8527 127.084 59.7448 126.848 59.6503L130.694 46.9673L131.436 47.2034Z" fill="black"/>
</g>
<g opacity="0.2">
<path opacity="0.2" d="M144.544 51.197L140.881 63.2661L140.091 63.1649L143.795 50.9677L144.544 51.197Z" fill="black"/>
</g>
<g opacity="0.2">
<path opacity="0.2" d="M138.452 49.3486L134.559 62.1665C134.303 62.1126 134.046 62.0451 133.79 61.9844L137.703 49.1057L138.452 49.3486Z" fill="black"/>
</g>
<g opacity="0.2">
<path opacity="0.2" d="M152.079 51.7234L148.511 63.4687C148.234 63.4687 147.964 63.4687 147.681 63.5159L151.331 51.5007L152.079 51.7234Z" fill="black"/>
</g>
<path d="M159.836 54.5535C160.626 50.1149 152.119 44.889 140.836 42.8811C129.552 40.8733 119.765 42.8437 118.975 47.2823C118.185 51.7209 126.692 56.9468 137.976 58.9547C149.259 60.9625 159.046 58.9921 159.836 54.5535Z" fill="#223C6A"/>
<path opacity="0.2" d="M155.996 53.8749C156.554 50.7385 149.769 46.908 140.84 45.3192C131.912 43.7304 124.221 44.985 123.663 48.1213C123.105 51.2577 129.891 55.0881 138.819 56.677C147.748 58.2658 155.438 57.0112 155.996 53.8749Z" fill="white"/>
<path d="M218.206 171.76L148.78 175.808C146.328 175.952 143.921 176.537 141.676 177.535L66.2662 211.266C64.9431 211.848 63.8595 212.866 63.1965 214.15C62.5335 215.435 62.3311 216.908 62.6232 218.323L75.0836 277.252C75.2943 278.201 75.7191 279.089 76.3257 279.849C76.9323 280.608 77.7045 281.219 78.5833 281.634C79.4622 282.05 80.4243 282.258 81.3963 282.245C82.3682 282.231 83.3242 281.996 84.1911 281.556L158.623 244.397L227.354 242.097C228.2 242.074 229.031 241.872 229.792 241.503C230.554 241.134 231.228 240.607 231.77 239.957C232.312 239.308 232.709 238.55 232.935 237.735C233.161 236.919 233.211 236.065 233.082 235.229L223.886 178.803C223.408 175.889 221.195 171.672 218.206 171.76Z" fill="#223C6A"/>
<path opacity="0.1" d="M218.206 171.76L148.78 175.808C146.328 175.952 143.921 176.537 141.676 177.535L66.2662 211.266C64.9431 211.848 63.8595 212.866 63.1965 214.15C62.5335 215.435 62.3311 216.908 62.6232 218.323L75.0836 277.252C75.2943 278.201 75.7191 279.089 76.3257 279.849C76.9323 280.608 77.7045 281.219 78.5833 281.634C79.4622 282.05 80.4243 282.258 81.3963 282.245C82.3682 282.231 83.3242 281.996 84.1911 281.556L158.623 244.397L227.354 242.097C228.2 242.074 229.031 241.872 229.792 241.503C230.554 241.134 231.228 240.607 231.77 239.957C232.312 239.308 232.709 238.55 232.935 237.735C233.161 236.919 233.211 236.065 233.082 235.229L223.886 178.803C223.408 175.889 221.195 171.672 218.206 171.76Z" fill="black"/>
<path d="M78.8542 133.39L42.4205 166.975L107.802 237.903L144.236 204.318L78.8542 133.39Z" fill="#223C6A"/>
<path opacity="0.5" d="M144.226 204.324L107.79 237.907L42.418 166.984L66.3268 144.944L78.8547 133.394L80.9393 135.661L144.226 204.324Z" fill="#F9F9F9"/>
<path d="M79.0878 137.726L46.9398 167.36L108.097 233.705L140.245 204.071L79.0878 137.726Z" stroke="#223C6A" stroke-miterlimit="10"/>
<path d="M100.826 193.57C104.513 190.171 104.047 183.667 99.7842 179.043C95.5215 174.418 89.0767 173.425 85.3893 176.824C81.7019 180.223 82.1682 186.727 86.431 191.352C90.6937 195.976 97.1385 196.969 100.826 193.57Z" fill="#223C6A"/>
<path opacity="0.1" d="M107.405 209.121L94.4586 213.594L66.3265 144.944L78.8544 133.394L80.939 135.661L107.405 209.121Z" fill="black"/>
<path d="M109.927 105.603L63.3436 122.493L96.2259 213.181L142.81 196.29L109.927 105.603Z" fill="#223C6A"/>
<path opacity="0.5" d="M109.927 105.603L63.3436 122.493L96.2259 213.181L142.81 196.29L109.927 105.603Z" fill="#F9F9F9"/>
<path d="M108.463 109.692L67.3591 124.596L98.1166 209.424L139.221 194.52L108.463 109.692Z" stroke="#223C6A" stroke-miterlimit="10"/>
<path d="M106.933 169.593C111.648 167.883 113.732 161.704 111.588 155.792C109.444 149.879 103.884 146.472 99.1697 148.181C94.4551 149.891 92.371 156.07 94.5148 161.982C96.6587 167.895 102.219 171.302 106.933 169.593Z" fill="#223C6A"/>
<path d="M218.658 174.155L150.183 178.014C147.756 178.147 145.375 178.73 143.161 179.734L68.8569 213.277C67.5481 213.868 66.4804 214.889 65.8303 216.169C65.1801 217.45 64.9865 218.914 65.2814 220.32L77.7418 279.276C77.9425 280.219 78.3567 281.103 78.9527 281.861C79.5486 282.619 80.3104 283.231 81.1795 283.648C82.0485 284.066 83.0018 284.279 83.966 284.27C84.9302 284.262 85.8796 284.033 86.7413 283.6L160.073 246.651L227.86 244.505C228.699 244.479 229.523 244.273 230.277 243.903C231.03 243.533 231.696 243.006 232.23 242.358C232.764 241.71 233.153 240.956 233.372 240.145C233.591 239.334 233.635 238.487 233.5 237.658L224.278 181.239C223.799 178.297 221.613 174.074 218.658 174.155Z" fill="#223C6A"/>
<path opacity="0.2" d="M152.969 188.336L211.723 184.72" stroke="black" stroke-width="2" stroke-linecap="round" stroke-linejoin="round"/>
<path opacity="0.2" d="M145.933 189.854L156.666 239.156" stroke="black" stroke-width="2" stroke-linecap="round" stroke-linejoin="round"/>
<path opacity="0.2" d="M74.3682 234.366L81.9375 272.287C81.9375 272.287 87.7393 257.242 74.3682 234.366Z" fill="#F9F9F9"/>
<path opacity="0.2" d="M75.3601 234.811C75.6232 235.486 142.594 206.746 142.594 206.746C142.775 213.262 141.146 219.7 137.887 225.346C134.629 230.991 129.869 235.622 124.136 238.724C103.978 250.024 75.3601 234.811 75.3601 234.811Z" fill="#F9F9F9"/>
<path d="M119.845 235.931C121.447 235.931 122.746 234.632 122.746 233.03C122.746 231.428 121.447 230.129 119.845 230.129C118.243 230.129 116.944 231.428 116.944 233.03C116.944 234.632 118.243 235.931 119.845 235.931Z" fill="#223C6A"/>
<path opacity="0.2" d="M142.627 206.746C142.627 206.746 150.932 219.247 148.922 240.538L142.627 206.746Z" fill="black"/>
<g opacity="0.2">
<path opacity="0.2" d="M71.1637 219.47L72.7086 218.788" stroke="#F9F9F9" stroke-linecap="round" stroke-linejoin="round"/>
<path opacity="0.2" d="M75.913 217.372L138.451 189.725" stroke="#F9F9F9" stroke-linecap="round" stroke-linejoin="round" stroke-dasharray="5.2 5.2"/>
<path opacity="0.2" d="M140.057 189.017L141.595 188.336" stroke="#F9F9F9" stroke-linecap="round" stroke-linejoin="round"/>
</g>
<path opacity="0.2" d="M154.939 199.42L213.693 195.797" stroke="black" stroke-width="2" stroke-linecap="round" stroke-linejoin="round"/>
<path opacity="0.2" d="M157.584 213.243L216.337 209.62" stroke="black" stroke-width="2" stroke-linecap="round" stroke-linejoin="round"/>
<path d="M203.458 115.044C203.458 115.044 201.981 130.783 196.132 132.139C192.51 132.922 188.733 132.544 185.338 131.06L180.582 127.403L178.261 135.499C178.261 135.499 180.798 138.946 186.093 136.558C186.093 136.558 195.538 140.714 200.76 136.558C205.981 132.402 207.655 121.001 207.655 121.001L203.458 115.044Z" fill="#FFB573"/>
<path d="M208.16 107.421C208.16 107.421 204.079 100.465 205.934 87.8565C207.789 75.2477 218.361 73.6893 222.442 74.6001C226.524 75.5108 229.863 79.4304 232.643 86.8918C235.422 94.3532 236.447 96.2961 241.082 94.9873C245.717 93.6786 258.049 89.5903 261.483 93.2266C262.471 94.2198 263.198 95.4411 263.602 96.7825C264.006 98.1238 264.073 99.544 263.797 100.917C263.797 100.917 280.953 96.7481 279.469 112.049C277.984 127.349 253.225 141.631 229.674 126.513C206.123 111.394 208.16 107.421 208.16 107.421Z" fill="#263238"/>
<path d="M207.972 144.451C207.972 144.451 203.31 184.544 203.465 203.346C203.62 222.148 210.299 266.458 210.299 266.458H218.536C218.536 266.458 217.45 231.026 217.605 218.903C217.76 206.78 219.933 186.723 219.933 186.723C219.933 186.723 222.571 204.749 225.681 211.118C228.791 217.486 246.041 240.026 258.009 247.022L263.602 241.888C263.602 241.888 251.168 226.506 246.506 218.89C241.845 211.273 237.655 209.114 235.942 194.947C234.228 180.78 237.19 158.119 232.218 144.444L207.972 144.451Z" fill="#263238"/>
<path opacity="0.2" d="M219.933 186.723L216.35 161.31C216.35 161.31 213.524 176.584 219.089 195.237L219.933 186.723Z" fill="black"/>
<path d="M211.992 268.704L212.269 276.577L217.794 277.036L218.071 276.301V268.151L211.992 268.704Z" fill="#FFB573"/>
<path d="M209.368 265.709L209.874 268.657L219.359 268.887L219.96 265.345L209.368 265.709Z" fill="#223C6A"/>
<path d="M255.411 247.568L264.202 239.378L266.138 242.461L258.589 249.369L255.411 247.568Z" fill="#223C6A"/>
<path d="M259.648 247.568L265.45 252.453L269.174 248.074L264.411 243.149L259.648 247.568Z" fill="#FFB573"/>
<path d="M270.3 247.737L273.808 249.896C273.968 249.994 274.105 250.126 274.208 250.283C274.311 250.44 274.379 250.617 274.407 250.803C274.435 250.989 274.421 251.178 274.368 251.358C274.315 251.538 274.223 251.705 274.099 251.845C271.555 254.719 265.058 262.019 264.411 262.531C263.608 263.206 262.637 262.073 262.387 261.061C262.387 261.061 264.229 258.619 264.411 257.053C264.488 255.845 264.488 254.633 264.411 253.424C264.397 253.121 264.498 252.825 264.694 252.594L268.614 247.993C268.816 247.753 269.099 247.595 269.409 247.548C269.719 247.501 270.036 247.568 270.3 247.737Z" fill="#263238"/>
<path d="M219.144 277.252L219.872 281.3C219.906 281.485 219.898 281.675 219.851 281.857C219.803 282.039 219.716 282.208 219.595 282.353C219.475 282.497 219.325 282.614 219.155 282.694C218.984 282.774 218.799 282.817 218.611 282.818C214.772 282.818 205.003 282.858 204.187 282.723C203.168 282.554 203.351 281.097 203.951 280.247C203.951 280.247 206.994 279.991 208.269 279.067C209.217 278.323 210.118 277.521 210.967 276.665C211.184 276.453 211.473 276.33 211.777 276.321L217.815 276.179C218.128 276.168 218.435 276.27 218.68 276.467C218.924 276.664 219.089 276.943 219.144 277.252Z" fill="#263238"/>
<path d="M233.101 122.215L241.521 116.306C241.521 116.306 239.281 107.347 235.962 106.901C232.643 106.456 216.168 103.319 205.691 106.901C205.691 106.901 201.927 107.974 200.766 118.545L205.246 119.976C205.246 119.976 206.851 139.769 207.843 142.819H231.752C231.752 142.819 232.022 125.798 233.101 122.215Z" fill="#223C6A"/>
<path d="M234.917 120.94C234.917 120.94 238.108 130.048 238.674 134.946C238.674 134.946 231.091 131.923 229.135 130.54L227.651 125.211L222.632 122.762L221.141 126.81L225.33 132.004C225.33 132.004 236.752 142.69 242.54 140.248C248.328 137.806 240.253 117.216 240.253 117.216L234.917 120.94Z" fill="#FFB573"/>
<path d="M213.497 81.063C213.497 81.063 210.576 86.8918 210.798 91.6345C211.021 96.3771 213.416 98.3133 217.97 98.9812C217.97 98.9812 219.913 105.053 214.812 105.667C214.421 105.714 214.286 107.259 214.313 107.508C214.448 108.493 215.426 109.033 216.337 109.263C217.296 109.475 218.276 109.584 219.258 109.586C220.29 109.622 221.316 109.422 222.259 109.003C223.203 108.583 224.038 107.955 224.702 107.164C224.81 107.036 225.836 105.727 225.836 105.727C225.836 105.727 223.4 104.52 224.257 96.6132C225.419 95.8566 226.312 94.7513 226.807 93.456C227.273 93.209 227.684 92.8718 228.018 92.4641C228.351 92.0563 228.6 91.5863 228.75 91.0813C229.115 89.5026 227.718 87.3168 225.168 89.5026C225.168 89.5026 220.365 87.074 218.543 78.5669C217.192 79.9467 215.413 80.8268 213.497 81.063Z" fill="#FFB573"/>
<path d="M214.867 90.3392L215.278 87.2224L213.072 89.6646C213.3 89.9068 213.58 90.0936 213.891 90.2105C214.202 90.3275 214.536 90.3715 214.867 90.3392Z" fill="#ED893E"/>
<path d="M216.148 92.6195C216.148 92.6195 218.476 92.977 219.595 91.4861" stroke="#222221" stroke-width="0.75" stroke-linecap="round" stroke-linejoin="round"/>
<path d="M218.475 82.8574C219.004 82.7072 219.563 82.7025 220.094 82.8438C220.624 82.9852 221.107 83.2672 221.491 83.6602" stroke="#222221" stroke-linecap="round" stroke-linejoin="round"/>
<path d="M214.448 82.1829C214.448 82.1829 213.099 81.9737 212.498 82.7361" stroke="#222221" stroke-linecap="round" stroke-linejoin="round"/>
<path d="M219.413 86.9592C219.352 87.4315 219.049 87.7755 218.739 87.7351C218.428 87.6946 218.219 87.283 218.28 86.8108C218.341 86.3386 218.644 85.9945 218.954 86.035C219.265 86.0755 219.474 86.487 219.413 86.9592Z" fill="#222221"/>
<path d="M214.028 85.9151C214.089 85.4459 213.883 85.0324 213.569 84.9916C213.255 84.9508 212.951 85.2982 212.89 85.7674C212.829 86.2367 213.035 86.6501 213.349 86.6909C213.663 86.7317 213.967 86.3844 214.028 85.9151Z" fill="#222221"/>
<path d="M218.961 86.0351L217.895 85.5696C217.909 85.6863 217.954 85.7972 218.024 85.8915C218.094 85.9858 218.187 86.0602 218.295 86.1072C218.403 86.1542 218.521 86.1723 218.638 86.1597C218.755 86.147 218.866 86.1041 218.961 86.0351Z" fill="#222221"/>
<path d="M213.672 85.0365L212.606 84.571C212.62 84.6877 212.665 84.7987 212.735 84.893C212.805 84.9873 212.898 85.0617 213.006 85.1087C213.114 85.1557 213.232 85.1738 213.349 85.1612C213.466 85.1485 213.577 85.1055 213.672 85.0365Z" fill="#222221"/>
<path d="M207.007 141.766V144.579L232.912 144.795L232.218 141.449L207.007 141.766Z" fill="#223C6A"/>
<path opacity="0.4" d="M207.007 141.766V144.579L232.912 144.795L232.218 141.449L207.007 141.766Z" fill="white"/>
<path d="M207.325 128.112L193.076 177.67C192.603 179.33 191.643 180.809 190.32 181.918C188.997 183.027 187.372 183.714 185.655 183.89C184.563 183.994 183.46 183.894 182.404 183.593L155.169 175.761C152.967 175.125 151.108 173.643 149.997 171.639C148.887 169.634 148.617 167.271 149.246 165.068L163.501 115.496C164.137 113.297 165.62 111.441 167.623 110.333C169.626 109.225 171.986 108.957 174.187 109.586L201.442 117.412C203.639 118.054 205.491 119.541 206.594 121.546C207.696 123.552 207.959 125.913 207.325 128.112Z" fill="#223C6A"/>
<path opacity="0.2" d="M207.325 128.112L193.076 177.67C192.603 179.33 191.643 180.809 190.32 181.918C188.997 183.027 187.372 183.714 185.655 183.89C184.563 183.994 183.46 183.894 182.404 183.593L155.169 175.761C152.967 175.125 151.108 173.643 149.997 171.639C148.887 169.634 148.617 167.271 149.246 165.068L163.501 115.496C164.137 113.297 165.62 111.441 167.623 110.333C169.626 109.225 171.986 108.957 174.187 109.586L201.442 117.412C203.639 118.054 205.491 119.541 206.594 121.546C207.696 123.552 207.959 125.913 207.325 128.112Z" fill="black"/>
<path d="M204.957 128.699L190.708 178.263C190.348 179.525 189.705 180.688 188.826 181.663C187.948 182.638 186.859 183.4 185.642 183.89C184.549 183.994 183.446 183.894 182.39 183.593L155.169 175.761C152.967 175.125 151.108 173.643 149.997 171.639C148.887 169.634 148.617 167.271 149.246 165.068L163.501 115.496C163.861 114.236 164.505 113.075 165.384 112.102C166.262 111.13 167.351 110.371 168.567 109.883C169.66 109.772 170.764 109.873 171.819 110.18L199.02 118.039C201.217 118.671 203.076 120.146 204.188 122.144C205.301 124.141 205.577 126.498 204.957 128.699Z" fill="#223C6A"/>
<path opacity="0.5" d="M204.957 128.699L190.708 178.263C190.348 179.525 189.705 180.688 188.826 181.663C187.948 182.638 186.859 183.4 185.642 183.89C184.549 183.994 183.446 183.894 182.39 183.593L155.169 175.761C152.967 175.125 151.108 173.643 149.997 171.639C148.887 169.634 148.617 167.271 149.246 165.068L163.501 115.496C163.861 114.236 164.505 113.075 165.384 112.102C166.262 111.13 167.351 110.371 168.567 109.883C169.66 109.772 170.764 109.873 171.819 110.18L199.02 118.039C201.217 118.671 203.076 120.146 204.188 122.144C205.301 124.141 205.577 126.498 204.957 128.699Z" fill="#F9F9F9"/>
<path d="M166.652 132.913L163.736 132.092L153.243 169.324L156.158 170.146L166.652 132.913Z" fill="#F9F9F9"/>
<path d="M160.343 171.328L157.429 170.485L167.92 133.266L170.827 134.102L160.343 171.328Z" fill="#F9F9F9"/>
<path d="M164.58 172.543L161.666 171.706L172.156 134.487L175.071 135.323L164.58 172.543Z" fill="#F9F9F9"/>
<path opacity="0.5" d="M192.035 140.201L189.12 139.379L178.626 176.612L181.542 177.434L192.035 140.201Z" fill="black"/>
<path d="M191.667 129.677L190.25 134.73L188.523 134.244C187.686 134.007 186.978 133.447 186.553 132.689C186.128 131.93 186.021 131.034 186.256 130.196L187.201 126.823L190.688 127.822C191.064 127.938 191.378 128.199 191.561 128.547C191.745 128.895 191.783 129.301 191.667 129.677Z" fill="#F9F9F9"/>
<path d="M190.836 127.201L187.349 126.203L188.394 122.506C188.511 122.091 188.708 121.703 188.975 121.365C189.242 121.026 189.572 120.744 189.948 120.533C190.324 120.323 190.738 120.188 191.166 120.138C191.594 120.087 192.027 120.122 192.442 120.239L194.237 120.745L192.671 126.189C192.62 126.377 192.53 126.553 192.409 126.707C192.289 126.86 192.138 126.987 191.967 127.082C191.796 127.176 191.608 127.235 191.414 127.256C191.22 127.276 191.023 127.258 190.836 127.201Z" fill="#F9F9F9"/>
<path d="M194.142 128.833L197.65 129.839L196.719 133.138C196.604 133.553 196.408 133.942 196.142 134.281C195.875 134.621 195.544 134.904 195.168 135.115C194.792 135.326 194.377 135.46 193.949 135.509C193.52 135.559 193.086 135.523 192.672 135.404L190.85 134.892L192.301 129.845C192.354 129.657 192.444 129.482 192.566 129.329C192.688 129.176 192.839 129.049 193.01 128.955C193.181 128.861 193.37 128.802 193.564 128.781C193.758 128.76 193.955 128.778 194.142 128.833Z" fill="#F9F9F9"/>
<path d="M198.892 125.46L197.832 129.211L194.324 128.206C193.949 128.096 193.632 127.843 193.442 127.5C193.253 127.158 193.206 126.754 193.312 126.378L194.878 120.934L196.625 121.426C197.039 121.542 197.425 121.739 197.763 122.004C198.101 122.27 198.383 122.599 198.594 122.974C198.804 123.348 198.939 123.761 198.99 124.187C199.041 124.614 199.008 125.047 198.892 125.46Z" fill="#F9F9F9"/>
</g>
<defs>
<clipPath id="clip0_1_2140">
<rect width="337.314" height="337.314" fill="white" transform="translate(0.678711 0.653931)"/>
</clipPath>
</defs>
</svg>
